<svg id="rss" viewBox="0 0 32 32" xmlns="http://www.w3.org/2000/svg">
  <path fill-rule="evenodd" clip-rule="evenodd" d="M16 32C24.8366 32 32 24.8366 32 16C32 7.16344 24.8366 0 16 0C7.16344 0 0 7.16344 0 16C0 24.8366 7.16344 32 16 32ZM19.3314 12.6441C16.486 9.80506 12.7519 8.17149 8.75182 8.00062C8.36557 7.98412 8.05189 8.2991 8.05189 8.6857V10.4154C8.05189 10.802 8.3656 11.1134 8.75165 11.134C11.9136 11.3023 14.8606 12.6093 17.1135 14.8571C19.3659 17.1046 20.6757 20.0446 20.8447 23.1989C20.8654 23.585 21.1768 23.8987 21.5634 23.8987H23.3C23.6866 23.8987 24.0016 23.585 23.985 23.1988C23.8134 19.2081 22.1762 15.4827 19.3314 12.6441ZM8.71955 13.3046C8.33377 13.2794 8.01942 13.5952 8.01942 13.9818V15.7115C8.01942 16.0981 8.33382 16.4081 8.71877 16.4438C12.2988 16.7755 15.1575 19.6274 15.4906 23.1994C15.5265 23.5843 15.8365 23.8987 16.2231 23.8987H17.9597C18.3463 23.8987 18.6621 23.5844 18.6368 23.1986C18.2895 17.9005 14.0296 13.6504 8.71955 13.3046ZM10.2465 23.9857C11.4873 23.9857 12.4931 22.9821 12.4931 21.7441C12.4931 20.5061 11.4873 19.5025 10.2465 19.5025C9.00584 19.5025 8 20.5061 8 21.7441C8 22.9821 9.00584 23.9857 10.2465 23.9857Z"/>
</svg>
