<svg width="8" height="3" viewBox="0 0 8 3" fill="none" xmlns="http://www.w3.org/2000/svg">
  <path d="M2.86299 0.232422C3.21299 0.232422 3.51166 0.302422 3.75899 0.442422C4.00632 0.582422 4.22799 0.745755 4.42399 0.932422C4.61999 1.11909 4.80899 1.28242 4.99099 1.42242C5.17299 1.56242 5.37132 1.63242 5.58599 1.63242C5.86599 1.63242 6.11099 1.52742 6.32099 1.31742C6.53566 1.10276 6.73399 0.825089 6.91599 0.484422L7.90999 0.960422C7.75132 1.29176 7.56466 1.60442 7.34999 1.89842C7.13999 2.19242 6.88799 2.43276 6.59399 2.61942C6.30466 2.80609 5.95232 2.89942 5.53699 2.89942C5.20566 2.89942 4.91632 2.82942 4.66899 2.68942C4.42632 2.54942 4.20466 2.38609 4.00399 2.19942C3.80799 2.01276 3.61432 1.84942 3.42299 1.70942C3.23632 1.56942 3.03332 1.49942 2.81399 1.49942C2.52466 1.49942 2.27499 1.60909 2.06499 1.82842C1.85966 2.04309 1.66599 2.31842 1.48399 2.65442L0.48999 2.18542C0.653324 1.86342 0.837657 1.55542 1.04299 1.26142C1.25299 0.962755 1.50499 0.717755 1.79899 0.526422C2.09299 0.330422 2.44766 0.232422 2.86299 0.232422Z" fill="#00aee5"/>
</svg>
