<svg width="1159" height="171" viewBox="0 0 1159 171" fill="none" xmlns="http://www.w3.org/2000/svg">
  <path d="M31.2965 0.568359H33.8265L33.539 5.11086L37.7595 3.45486L38.53 5.82386L34.137 6.96236L37.0235 10.4814L35.011 11.9304L32.5615 8.11236L30.112 11.9304L28.0995 10.4814L30.986 6.96236L26.593 5.82386L27.3635 3.45486L31.584 5.11086L31.2965 0.568359Z" fill="#00aee5"/>
  <path d="M44.6275 0.568359H47.1575L46.87 5.11086L51.0905 3.45486L51.861 5.82386L47.468 6.96236L50.3545 10.4814L48.342 11.9304L45.8925 8.11236L43.443 11.9304L41.4305 10.4814L44.317 6.96236L39.924 5.82386L40.6945 3.45486L44.915 5.11086L44.6275 0.568359Z" fill="#00aee5"/>
  <path d="M57.9586 0.568359H60.4886L60.2011 5.11086L64.4216 3.45486L65.1921 5.82386L60.7991 6.96236L63.6856 10.4814L61.6731 11.9304L59.2236 8.11236L56.7741 11.9304L54.7616 10.4814L57.6481 6.96236L53.2551 5.82386L54.0256 3.45486L58.2461 5.11086L57.9586 0.568359Z" fill="#00aee5"/>
  <path d="M71.2896 0.568359H73.8196L73.5321 5.11086L77.7526 3.45486L78.5231 5.82386L74.1301 6.96236L77.0166 10.4814L75.0041 11.9304L72.5546 8.11236L70.1051 11.9304L68.0926 10.4814L70.9791 6.96236L66.5861 5.82386L67.3566 3.45486L71.5771 5.11086L71.2896 0.568359Z" fill="#00aee5"/>
  <path d="M84.6206 0.568359H87.1506L86.8631 5.11086L91.0836 3.45486L91.8541 5.82386L87.4611 6.96236L90.3476 10.4814L88.3351 11.9304L85.8856 8.11236L83.4361 11.9304L81.4236 10.4814L84.3101 6.96236L79.9171 5.82386L80.6876 3.45486L84.9081 5.11086L84.6206 0.568359Z" fill="#00aee5"/>
  <path d="M97.9516 0.568359H100.482L100.194 5.11086L104.415 3.45486L105.185 5.82386L100.792 6.96236L103.679 10.4814L101.666 11.9304L99.2166 8.11236L96.7671 11.9304L94.7546 10.4814L97.6411 6.96236L93.2481 5.82386L94.0186 3.45486L98.2391 5.11086L97.9516 0.568359Z" fill="#00aee5"/>
  <path d="M111.283 0.568359H113.813L113.525 5.11086L117.746 3.45486L118.516 5.82386L114.123 6.96236L117.01 10.4814L114.997 11.9304L112.548 8.11236L110.098 11.9304L108.086 10.4814L110.972 6.96236L106.579 5.82386L107.35 3.45486L111.57 5.11086L111.283 0.568359Z" fill="#00aee5"/>
  <path d="M124.614 0.568359H127.144L126.856 5.11086L131.077 3.45486L131.847 5.82386L127.454 6.96236L130.341 10.4814L128.328 11.9304L125.879 8.11236L123.429 11.9304L121.417 10.4814L124.303 6.96236L119.91 5.82386L120.681 3.45486L124.901 5.11086L124.614 0.568359Z" fill="#00aee5"/>
  <path d="M564.643 0.568359H567.173L566.886 5.11086L571.106 3.45486L571.877 5.82386L567.484 6.96236L570.37 10.4814L568.358 11.9304L565.908 8.11236L563.459 11.9304L561.446 10.4814L564.333 6.96236L559.94 5.82386L560.71 3.45486L564.931 5.11086L564.643 0.568359ZM577.293 0.568359H579.823L579.536 5.11086L583.756 3.45486L584.527 5.82386L580.134 6.96236L583.02 10.4814L581.008 11.9304L578.558 8.11236L576.109 11.9304L574.096 10.4814L576.983 6.96236L572.59 5.82386L573.36 3.45486L577.581 5.11086L577.293 0.568359Z" fill="#00aee5"/>
  <path d="M631.298 0.568359H633.828L633.541 5.11086L637.761 3.45486L638.532 5.82386L634.139 6.96236L637.025 10.4814L635.013 11.9304L632.563 8.11236L630.114 11.9304L628.101 10.4814L630.988 6.96236L626.595 5.82386L627.365 3.45486L631.586 5.11086L631.298 0.568359ZM643.948 0.568359H646.478L646.191 5.11086L650.411 3.45486L651.182 5.82386L646.789 6.96236L649.675 10.4814L647.663 11.9304L645.213 8.11236L642.764 11.9304L640.751 10.4814L643.638 6.96236L639.245 5.82386L640.015 3.45486L644.236 5.11086L643.948 0.568359Z" fill="#00aee5"/>
  <path d="M817.932 0.568359H820.462L820.175 5.11086L824.395 3.45486L825.166 5.82386L820.773 6.96236L823.659 10.4814L821.647 11.9304L819.197 8.11236L816.748 11.9304L814.735 10.4814L817.622 6.96236L813.229 5.82386L813.999 3.45486L818.22 5.11086L817.932 0.568359ZM830.582 0.568359H833.112L832.825 5.11086L837.045 3.45486L837.816 5.82386L833.423 6.96236L836.309 10.4814L834.297 11.9304L831.847 8.11236L829.398 11.9304L827.385 10.4814L830.272 6.96236L825.879 5.82386L826.649 3.45486L830.87 5.11086L830.582 0.568359Z" fill="#00aee5"/>
  <path d="M1071.22 0.568359H1073.75L1073.46 5.11086L1077.68 3.45486L1078.46 5.82386L1074.06 6.96236L1076.95 10.4814L1074.94 11.9304L1072.49 8.11236L1070.04 11.9304L1068.02 10.4814L1070.91 6.96236L1066.52 5.82386L1067.29 3.45486L1071.51 5.11086L1071.22 0.568359ZM1083.87 0.568359H1086.4L1086.11 5.11086L1090.33 3.45486L1091.11 5.82386L1086.71 6.96236L1089.6 10.4814L1087.59 11.9304L1085.14 8.11236L1082.69 11.9304L1080.67 10.4814L1083.56 6.96236L1079.17 5.82386L1079.94 3.45486L1084.16 5.11086L1083.87 0.568359Z" fill="#00aee5"/>
  <path d="M17.9655 22.5684H20.4955L20.208 27.1109L24.4285 25.4549L25.199 27.8239L20.806 28.9624L23.6925 32.4814L21.68 33.9304L19.2305 30.1124L16.781 33.9304L14.7685 32.4814L17.655 28.9624L13.262 27.8239L14.0325 25.4549L18.253 27.1109L17.9655 22.5684Z" fill="#00aee5"/>
  <path d="M31.2965 22.5684H33.8265L33.539 27.1109L37.7595 25.4549L38.53 27.8239L34.137 28.9624L37.0235 32.4814L35.011 33.9304L32.5615 30.1124L30.112 33.9304L28.0995 32.4814L30.986 28.9624L26.593 27.8239L27.3635 25.4549L31.584 27.1109L31.2965 22.5684Z" fill="#00aee5"/>
  <path d="M42.04 38.4499L39.993 37.5299L49.768 17.3244L51.792 18.2789L42.04 38.4499Z" fill="#00aee5"/>
  <path d="M55.3711 38.4499L53.3241 37.5299L63.0991 17.3244L65.1231 18.2789L55.3711 38.4499Z" fill="#00aee5"/>
  <path d="M68.7021 38.4499L66.6551 37.5299L76.4301 17.3244L78.4541 18.2789L68.7021 38.4499Z" fill="#00aee5"/>
  <path d="M82.0331 38.4499L79.9861 37.5299L89.7611 17.3244L91.7851 18.2789L82.0331 38.4499Z" fill="#00aee5"/>
  <path d="M95.3641 38.4499L93.3171 37.5299L103.092 17.3244L105.116 18.2789L95.3641 38.4499Z" fill="#00aee5"/>
  <path d="M108.695 38.4499L106.648 37.5299L116.423 17.3244L118.447 18.2789L108.695 38.4499Z" fill="#00aee5"/>
  <path d="M549.3 38.4499L547.253 37.5299L557.028 17.3244L559.052 18.2789L549.3 38.4499ZM560.8 38.4499L558.753 37.5299L568.528 17.3244L570.552 18.2789L560.8 38.4499Z" fill="#00aee5"/>
  <path d="M615.274 38.4499L613.227 37.5299L623.002 17.3244L625.026 18.2789L615.274 38.4499Z" fill="#00aee5"/>
  <path d="M631.192 22.5684H633.722L633.435 27.1109L637.655 25.4549L638.426 27.8239L634.033 28.9624L636.919 32.4814L634.907 33.9304L632.457 30.1124L630.008 33.9304L627.995 32.4814L630.882 28.9624L626.489 27.8239L627.259 25.4549L631.48 27.1109L631.192 22.5684Z" fill="#00aee5"/>
  <path d="M644.523 22.5684H647.053L646.766 27.1109L650.986 25.4549L651.757 27.8239L647.364 28.9624L650.25 32.4814L648.238 33.9304L645.788 30.1124L643.339 33.9304L641.326 32.4814L644.213 28.9624L639.82 27.8239L640.59 25.4549L644.811 27.1109L644.523 22.5684Z" fill="#00aee5"/>
  <path d="M711.284 22.5684H713.814L713.527 27.1109L717.747 25.4549L718.518 27.8239L714.125 28.9624L717.011 32.4814L714.999 33.9304L712.549 30.1124L710.1 33.9304L708.087 32.4814L710.974 28.9624L706.581 27.8239L707.351 25.4549L711.572 27.1109L711.284 22.5684ZM723.934 22.5684H726.464L726.177 27.1109L730.397 25.4549L731.168 27.8239L726.775 28.9624L729.661 32.4814L727.649 33.9304L725.199 30.1124L722.75 33.9304L720.737 32.4814L723.624 28.9624L719.231 27.8239L720.001 25.4549L724.222 27.1109L723.934 22.5684Z" fill="#00aee5"/>
  <path d="M777.833 22.5684H780.363L780.076 27.1109L784.296 25.4549L785.067 27.8239L780.674 28.9624L783.56 32.4814L781.548 33.9304L779.098 30.1124L776.649 33.9304L774.636 32.4814L777.523 28.9624L773.13 27.8239L773.9 25.4549L778.121 27.1109L777.833 22.5684Z" fill="#00aee5"/>
  <path d="M791.164 22.5684H793.694L793.407 27.1109L797.627 25.4549L798.398 27.8239L794.005 28.9624L796.891 32.4814L794.879 33.9304L792.429 30.1124L789.98 33.9304L787.967 32.4814L790.854 28.9624L786.461 27.8239L787.231 25.4549L791.452 27.1109L791.164 22.5684Z" fill="#00aee5"/>
  <path d="M801.908 38.4499L799.861 37.5299L809.636 17.3244L811.66 18.2789L801.908 38.4499Z" fill="#00aee5"/>
  <path d="M817.826 22.5684H820.356L820.069 27.1109L824.289 25.4549L825.06 27.8239L820.667 28.9624L823.553 32.4814L821.541 33.9304L819.091 30.1124L816.642 33.9304L814.629 32.4814L817.516 28.9624L813.123 27.8239L813.893 25.4549L818.114 27.1109L817.826 22.5684Z" fill="#00aee5"/>
  <path d="M831.157 22.5684H833.687L833.4 27.1109L837.62 25.4549L838.391 27.8239L833.998 28.9624L836.884 32.4814L834.872 33.9304L832.422 30.1124L829.973 33.9304L827.96 32.4814L830.847 28.9624L826.454 27.8239L827.224 25.4549L831.445 27.1109L831.157 22.5684Z" fill="#00aee5"/>
  <path d="M1055.2 38.4499L1053.15 37.5299L1062.93 17.3244L1064.95 18.2789L1055.2 38.4499Z" fill="#00aee5"/>
  <path d="M1071.12 22.5684H1073.65L1073.36 27.1109L1077.58 25.4549L1078.35 27.8239L1073.96 28.9624L1076.84 32.4814L1074.83 33.9304L1072.38 30.1124L1069.93 33.9304L1067.92 32.4814L1070.81 28.9624L1066.41 27.8239L1067.18 25.4549L1071.4 27.1109L1071.12 22.5684Z" fill="#00aee5"/>
  <path d="M1084.45 22.5684H1086.98L1086.69 27.1109L1090.91 25.4549L1091.68 27.8239L1087.29 28.9624L1090.17 32.4814L1088.16 33.9304L1085.71 30.1124L1083.26 33.9304L1081.25 32.4814L1084.14 28.9624L1079.74 27.8239L1080.51 25.4549L1084.73 27.1109L1084.45 22.5684Z" fill="#00aee5"/>
  <path d="M2.047 60.4499L0 59.5299L9.775 39.3244L11.799 40.2789L2.047 60.4499Z" fill="#00aee5"/>
  <path d="M17.9655 44.5684H20.4955L20.208 49.1109L24.4285 47.4549L25.199 49.8239L20.806 50.9624L23.6925 54.4814L21.68 55.9304L19.2305 52.1124L16.781 55.9304L14.7685 54.4814L17.655 50.9624L13.262 49.8239L14.0325 47.4549L18.253 49.1109L17.9655 44.5684Z" fill="#00aee5"/>
  <path d="M31.2965 44.5684H33.8265L33.539 49.1109L37.7595 47.4549L38.53 49.8239L34.137 50.9624L37.0235 54.4814L35.011 55.9304L32.5615 52.1124L30.112 55.9304L28.0995 54.4814L30.986 50.9624L26.593 49.8239L27.3635 47.4549L31.584 49.1109L31.2965 44.5684Z" fill="#00aee5"/>
  <path d="M164.607 44.5684H167.137L166.849 49.1109L171.07 47.4549L171.84 49.8239L167.447 50.9624L170.334 54.4814L168.321 55.9304L165.872 52.1124L163.422 55.9304L161.41 54.4814L164.296 50.9624L159.903 49.8239L160.674 47.4549L164.894 49.1109L164.607 44.5684Z" fill="#00aee5"/>
  <path d="M177.938 44.5684H180.468L180.18 49.1109L184.401 47.4549L185.171 49.8239L180.778 50.9624L183.665 54.4814L181.652 55.9304L179.203 52.1124L176.753 55.9304L174.741 54.4814L177.627 50.9624L173.234 49.8239L174.005 47.4549L178.225 49.1109L177.938 44.5684Z" fill="#00aee5"/>
  <path d="M191.269 44.5684H193.799L193.511 49.1109L197.732 47.4549L198.502 49.8239L194.109 50.9624L196.996 54.4814L194.983 55.9304L192.534 52.1124L190.084 55.9304L188.072 54.4814L190.958 50.9624L186.565 49.8239L187.336 47.4549L191.556 49.1109L191.269 44.5684Z" fill="#00aee5"/>
  <path d="M204.6 44.5684H207.13L206.842 49.1109L211.063 47.4549L211.833 49.8239L207.44 50.9624L210.327 54.4814L208.314 55.9304L205.865 52.1124L203.415 55.9304L201.403 54.4814L204.289 50.9624L199.896 49.8239L200.667 47.4549L204.887 49.1109L204.6 44.5684Z" fill="#00aee5"/>
  <path d="M217.931 44.5684H220.461L220.173 49.1109L224.394 47.4549L225.164 49.8239L220.771 50.9624L223.658 54.4814L221.645 55.9304L219.196 52.1124L216.746 55.9304L214.734 54.4814L217.62 50.9624L213.227 49.8239L213.998 47.4549L218.218 49.1109L217.931 44.5684Z" fill="#00aee5"/>
  <path d="M271.255 44.5684H273.785L273.497 49.1109L277.718 47.4549L278.488 49.8239L274.095 50.9624L276.982 54.4814L274.969 55.9304L272.52 52.1124L270.07 55.9304L268.058 54.4814L270.944 50.9624L266.551 49.8239L267.322 47.4549L271.542 49.1109L271.255 44.5684Z" fill="#00aee5"/>
  <path d="M284.586 44.5684H287.116L286.828 49.1109L291.049 47.4549L291.819 49.8239L287.426 50.9624L290.313 54.4814L288.3 55.9304L285.851 52.1124L283.401 55.9304L281.389 54.4814L284.275 50.9624L279.882 49.8239L280.653 47.4549L284.873 49.1109L284.586 44.5684Z" fill="#00aee5"/>
  <path d="M297.917 44.5684H300.447L300.159 49.1109L304.38 47.4549L305.15 49.8239L300.757 50.9624L303.644 54.4814L301.631 55.9304L299.182 52.1124L296.732 55.9304L294.72 54.4814L297.606 50.9624L293.213 49.8239L293.984 47.4549L298.204 49.1109L297.917 44.5684Z" fill="#00aee5"/>
  <path d="M311.248 44.5684H313.778L313.49 49.1109L317.711 47.4549L318.481 49.8239L314.088 50.9624L316.975 54.4814L314.962 55.9304L312.513 52.1124L310.063 55.9304L308.051 54.4814L310.937 50.9624L306.544 49.8239L307.315 47.4549L311.535 49.1109L311.248 44.5684Z" fill="#00aee5"/>
  <path d="M324.579 44.5684H327.109L326.821 49.1109L331.042 47.4549L331.812 49.8239L327.419 50.9624L330.306 54.4814L328.293 55.9304L325.844 52.1124L323.394 55.9304L321.382 54.4814L324.268 50.9624L319.875 49.8239L320.646 47.4549L324.866 49.1109L324.579 44.5684Z" fill="#00aee5"/>
  <path d="M364.678 44.5684H367.208L366.92 49.1109L371.141 47.4549L371.911 49.8239L367.518 50.9624L370.405 54.4814L368.392 55.9304L365.943 52.1124L363.493 55.9304L361.481 54.4814L364.367 50.9624L359.974 49.8239L360.745 47.4549L364.965 49.1109L364.678 44.5684ZM377.328 44.5684H379.858L379.57 49.1109L383.791 47.4549L384.561 49.8239L380.168 50.9624L383.055 54.4814L381.042 55.9304L378.593 52.1124L376.143 55.9304L374.131 54.4814L377.017 50.9624L372.624 49.8239L373.395 47.4549L377.615 49.1109L377.328 44.5684Z" fill="#00aee5"/>
  <path d="M431.333 44.5684H433.863L433.576 49.1109L437.796 47.4549L438.567 49.8239L434.174 50.9624L437.06 54.4814L435.048 55.9304L432.598 52.1124L430.149 55.9304L428.136 54.4814L431.023 50.9624L426.63 49.8239L427.4 47.4549L431.621 49.1109L431.333 44.5684ZM443.983 44.5684H446.513L446.226 49.1109L450.446 47.4549L451.217 49.8239L446.824 50.9624L449.71 54.4814L447.698 55.9304L445.248 52.1124L442.799 55.9304L440.786 54.4814L443.673 50.9624L439.28 49.8239L440.05 47.4549L444.271 49.1109L443.983 44.5684Z" fill="#00aee5"/>
  <path d="M471.22 44.5684H473.75L473.463 49.1109L477.683 47.4549L478.454 49.8239L474.061 50.9624L476.947 54.4814L474.935 55.9304L472.485 52.1124L470.036 55.9304L468.023 54.4814L470.91 50.9624L466.517 49.8239L467.287 47.4549L471.508 49.1109L471.22 44.5684Z" fill="#00aee5"/>
  <path d="M484.551 44.5684H487.081L486.794 49.1109L491.014 47.4549L491.785 49.8239L487.392 50.9624L490.278 54.4814L488.266 55.9304L485.816 52.1124L483.367 55.9304L481.354 54.4814L484.241 50.9624L479.848 49.8239L480.618 47.4549L484.839 49.1109L484.551 44.5684Z" fill="#00aee5"/>
  <path d="M497.882 44.5684H500.412L500.125 49.1109L504.345 47.4549L505.116 49.8239L500.723 50.9624L503.609 54.4814L501.597 55.9304L499.147 52.1124L496.698 55.9304L494.685 54.4814L497.572 50.9624L493.179 49.8239L493.949 47.4549L498.17 49.1109L497.882 44.5684Z" fill="#00aee5"/>
  <path d="M511.213 44.5684H513.743L513.456 49.1109L517.676 47.4549L518.447 49.8239L514.054 50.9624L516.94 54.4814L514.928 55.9304L512.478 52.1124L510.029 55.9304L508.016 54.4814L510.903 50.9624L506.51 49.8239L507.28 47.4549L511.501 49.1109L511.213 44.5684Z" fill="#00aee5"/>
  <path d="M524.544 44.5684H527.074L526.787 49.1109L531.007 47.4549L531.778 49.8239L527.385 50.9624L530.271 54.4814L528.259 55.9304L525.809 52.1124L523.36 55.9304L521.347 54.4814L524.234 50.9624L519.841 49.8239L520.611 47.4549L524.832 49.1109L524.544 44.5684Z" fill="#00aee5"/>
  <path d="M537.875 44.5684H540.405L540.118 49.1109L544.338 47.4549L545.109 49.8239L540.716 50.9624L543.602 54.4814L541.59 55.9304L539.14 52.1124L536.691 55.9304L534.678 54.4814L537.565 50.9624L533.172 49.8239L533.942 47.4549L538.163 49.1109L537.875 44.5684Z" fill="#00aee5"/>
  <path d="M564.643 44.5684H567.173L566.886 49.1109L571.106 47.4549L571.877 49.8239L567.484 50.9624L570.37 54.4814L568.358 55.9304L565.908 52.1124L563.459 55.9304L561.446 54.4814L564.333 50.9624L559.94 49.8239L560.71 47.4549L564.931 49.1109L564.643 44.5684ZM577.293 44.5684H579.823L579.536 49.1109L583.756 47.4549L584.527 49.8239L580.134 50.9624L583.02 54.4814L581.008 55.9304L578.558 52.1124L576.109 55.9304L574.096 54.4814L576.983 50.9624L572.59 49.8239L573.36 47.4549L577.581 49.1109L577.293 44.5684Z" fill="#00aee5"/>
  <path d="M604.53 44.5684H607.06L606.773 49.1109L610.993 47.4549L611.764 49.8239L607.371 50.9624L610.257 54.4814L608.245 55.9304L605.795 52.1124L603.346 55.9304L601.333 54.4814L604.22 50.9624L599.827 49.8239L600.597 47.4549L604.818 49.1109L604.53 44.5684Z" fill="#00aee5"/>
  <path d="M617.861 44.5684H620.391L620.104 49.1109L624.324 47.4549L625.095 49.8239L620.702 50.9624L623.588 54.4814L621.576 55.9304L619.126 52.1124L616.677 55.9304L614.664 54.4814L617.551 50.9624L613.158 49.8239L613.928 47.4549L618.149 49.1109L617.861 44.5684Z" fill="#00aee5"/>
  <path d="M631.192 44.5684H633.722L633.435 49.1109L637.655 47.4549L638.426 49.8239L634.033 50.9624L636.919 54.4814L634.907 55.9304L632.457 52.1124L630.008 55.9304L627.995 54.4814L630.882 50.9624L626.489 49.8239L627.259 47.4549L631.48 49.1109L631.192 44.5684Z" fill="#00aee5"/>
  <path d="M644.523 44.5684H647.053L646.766 49.1109L650.986 47.4549L651.757 49.8239L647.364 50.9624L650.25 54.4814L648.238 55.9304L645.788 52.1124L643.339 55.9304L641.326 54.4814L644.213 50.9624L639.82 49.8239L640.59 47.4549L644.811 49.1109L644.523 44.5684Z" fill="#00aee5"/>
  <path d="M657.854 44.5684H660.384L660.097 49.1109L664.317 47.4549L665.088 49.8239L660.695 50.9624L663.581 54.4814L661.569 55.9304L659.119 52.1124L656.67 55.9304L654.657 54.4814L657.544 50.9624L653.151 49.8239L653.921 47.4549L658.142 49.1109L657.854 44.5684Z" fill="#00aee5"/>
  <path d="M671.185 44.5684H673.715L673.428 49.1109L677.648 47.4549L678.419 49.8239L674.026 50.9624L676.912 54.4814L674.9 55.9304L672.45 52.1124L670.001 55.9304L667.988 54.4814L670.875 50.9624L666.482 49.8239L667.252 47.4549L671.473 49.1109L671.185 44.5684Z" fill="#00aee5"/>
  <path d="M695.941 60.4499L693.894 59.5299L703.669 39.3244L705.693 40.2789L695.941 60.4499ZM707.441 60.4499L705.394 59.5299L715.169 39.3244L717.193 40.2789L707.441 60.4499Z" fill="#00aee5"/>
  <path d="M724.509 44.5684H727.039L726.752 49.1109L730.972 47.4549L731.743 49.8239L727.35 50.9624L730.236 54.4814L728.224 55.9304L725.774 52.1124L723.325 55.9304L721.312 54.4814L724.199 50.9624L719.806 49.8239L720.576 47.4549L724.797 49.1109L724.509 44.5684Z" fill="#00aee5"/>
  <path d="M737.84 44.5684H740.37L740.083 49.1109L744.303 47.4549L745.074 49.8239L740.681 50.9624L743.567 54.4814L741.555 55.9304L739.105 52.1124L736.656 55.9304L734.643 54.4814L737.53 50.9624L733.137 49.8239L733.907 47.4549L738.128 49.1109L737.84 44.5684Z" fill="#00aee5"/>
  <path d="M764.608 44.5684H767.138L766.851 49.1109L771.071 47.4549L771.842 49.8239L767.449 50.9624L770.335 54.4814L768.323 55.9304L765.873 52.1124L763.424 55.9304L761.411 54.4814L764.298 50.9624L759.905 49.8239L760.675 47.4549L764.896 49.1109L764.608 44.5684ZM777.258 44.5684H779.788L779.501 49.1109L783.721 47.4549L784.492 49.8239L780.099 50.9624L782.985 54.4814L780.973 55.9304L778.523 52.1124L776.074 55.9304L774.061 54.4814L776.948 50.9624L772.555 49.8239L773.325 47.4549L777.546 49.1109L777.258 44.5684Z" fill="#00aee5"/>
  <path d="M801.908 60.4499L799.861 59.5299L809.636 39.3244L811.66 40.2789L801.908 60.4499Z" fill="#00aee5"/>
  <path d="M817.826 44.5684H820.356L820.069 49.1109L824.289 47.4549L825.06 49.8239L820.667 50.9624L823.553 54.4814L821.541 55.9304L819.091 52.1124L816.642 55.9304L814.629 54.4814L817.516 50.9624L813.123 49.8239L813.893 47.4549L818.114 49.1109L817.826 44.5684Z" fill="#00aee5"/>
  <path d="M831.157 44.5684H833.687L833.4 49.1109L837.62 47.4549L838.391 49.8239L833.998 50.9624L836.884 54.4814L834.872 55.9304L832.422 52.1124L829.973 55.9304L827.96 54.4814L830.847 50.9624L826.454 49.8239L827.224 47.4549L831.445 49.1109L831.157 44.5684Z" fill="#00aee5"/>
  <path d="M951.137 44.5684H953.667L953.379 49.1109L957.6 47.4549L958.37 49.8239L953.977 50.9624L956.864 54.4814L954.851 55.9304L952.402 52.1124L949.952 55.9304L947.94 54.4814L950.826 50.9624L946.433 49.8239L947.204 47.4549L951.424 49.1109L951.137 44.5684Z" fill="#00aee5"/>
  <path d="M964.468 44.5684H966.998L966.71 49.1109L970.931 47.4549L971.701 49.8239L967.308 50.9624L970.195 54.4814L968.182 55.9304L965.733 52.1124L963.283 55.9304L961.271 54.4814L964.157 50.9624L959.764 49.8239L960.535 47.4549L964.755 49.1109L964.468 44.5684Z" fill="#00aee5"/>
  <path d="M977.799 44.5684H980.329L980.041 49.1109L984.262 47.4549L985.032 49.8239L980.639 50.9624L983.526 54.4814L981.513 55.9304L979.064 52.1124L976.614 55.9304L974.602 54.4814L977.488 50.9624L973.095 49.8239L973.866 47.4549L978.086 49.1109L977.799 44.5684Z" fill="#00aee5"/>
  <path d="M991.13 44.5684H993.66L993.372 49.1109L997.593 47.4549L998.363 49.8239L993.97 50.9624L996.857 54.4814L994.844 55.9304L992.395 52.1124L989.945 55.9304L987.933 54.4814L990.819 50.9624L986.426 49.8239L987.197 47.4549L991.417 49.1109L991.13 44.5684Z" fill="#00aee5"/>
  <path d="M1004.46 44.5684H1006.99L1006.7 49.1109L1010.92 47.4549L1011.69 49.8239L1007.3 50.9624L1010.19 54.4814L1008.18 55.9304L1005.73 52.1124L1003.28 55.9304L1001.26 54.4814L1004.15 50.9624L999.757 49.8239L1000.53 47.4549L1004.75 49.1109L1004.46 44.5684Z" fill="#00aee5"/>
  <path d="M1017.79 44.5684H1020.32L1020.03 49.1109L1024.25 47.4549L1025.03 49.8239L1020.63 50.9624L1023.52 54.4814L1021.51 55.9304L1019.06 52.1124L1016.61 55.9304L1014.59 54.4814L1017.48 50.9624L1013.09 49.8239L1013.86 47.4549L1018.08 49.1109L1017.79 44.5684Z" fill="#00aee5"/>
  <path d="M1055.2 60.4499L1053.15 59.5299L1062.93 39.3244L1064.95 40.2789L1055.2 60.4499Z" fill="#00aee5"/>
  <path d="M1071.12 44.5684H1073.65L1073.36 49.1109L1077.58 47.4549L1078.35 49.8239L1073.96 50.9624L1076.84 54.4814L1074.83 55.9304L1072.38 52.1124L1069.93 55.9304L1067.92 54.4814L1070.81 50.9624L1066.41 49.8239L1067.18 47.4549L1071.4 49.1109L1071.12 44.5684Z" fill="#00aee5"/>
  <path d="M1084.45 44.5684H1086.98L1086.69 49.1109L1090.91 47.4549L1091.68 49.8239L1087.29 50.9624L1090.17 54.4814L1088.16 55.9304L1085.71 52.1124L1083.26 55.9304L1081.25 54.4814L1084.14 50.9624L1079.74 49.8239L1080.51 47.4549L1084.73 49.1109L1084.45 44.5684Z" fill="#00aee5"/>
  <path d="M2.047 82.4499L0 81.5299L9.775 61.3244L11.799 62.2789L2.047 82.4499Z" fill="#00aee5"/>
  <path d="M17.9655 66.5684H20.4955L20.208 71.1109L24.4285 69.4549L25.199 71.8239L20.806 72.9624L23.6925 76.4814L21.68 77.9304L19.2305 74.1124L16.781 77.9304L14.7685 76.4814L17.655 72.9624L13.262 71.8239L14.0325 69.4549L18.253 71.1109L17.9655 66.5684Z" fill="#00aee5"/>
  <path d="M31.2965 66.5684H33.8265L33.539 71.1109L37.7595 69.4549L38.53 71.8239L34.137 72.9624L37.0235 76.4814L35.011 77.9304L32.5615 74.1124L30.112 77.9304L28.0995 76.4814L30.986 72.9624L26.593 71.8239L27.3635 69.4549L31.584 71.1109L31.2965 66.5684Z" fill="#00aee5"/>
  <path d="M44.6275 66.5684H47.1575L46.87 71.1109L51.0905 69.4549L51.861 71.8239L47.468 72.9624L50.3545 76.4814L48.342 77.9304L45.8925 74.1124L43.443 77.9304L41.4305 76.4814L44.317 72.9624L39.924 71.8239L40.6945 69.4549L44.915 71.1109L44.6275 66.5684Z" fill="#00aee5"/>
  <path d="M57.9586 66.5684H60.4886L60.2011 71.1109L64.4216 69.4549L65.1921 71.8239L60.7991 72.9624L63.6856 76.4814L61.6731 77.9304L59.2236 74.1124L56.7741 77.9304L54.7616 76.4814L57.6481 72.9624L53.2551 71.8239L54.0256 69.4549L58.2461 71.1109L57.9586 66.5684Z" fill="#00aee5"/>
  <path d="M71.2896 66.5684H73.8196L73.5321 71.1109L77.7526 69.4549L78.5231 71.8239L74.1301 72.9624L77.0166 76.4814L75.0041 77.9304L72.5546 74.1124L70.1051 77.9304L68.0926 76.4814L70.9791 72.9624L66.5861 71.8239L67.3566 69.4549L71.5771 71.1109L71.2896 66.5684Z" fill="#00aee5"/>
  <path d="M84.6206 66.5684H87.1506L86.8631 71.1109L91.0836 69.4549L91.8541 71.8239L87.4611 72.9624L90.3476 76.4814L88.3351 77.9304L85.8856 74.1124L83.4361 77.9304L81.4236 76.4814L84.3101 72.9624L79.9171 71.8239L80.6876 69.4549L84.9081 71.1109L84.6206 66.5684Z" fill="#00aee5"/>
  <path d="M97.9516 66.5684H100.482L100.194 71.1109L104.415 69.4549L105.185 71.8239L100.792 72.9624L103.679 76.4814L101.666 77.9304L99.2166 74.1124L96.7671 77.9304L94.7546 76.4814L97.6411 72.9624L93.2481 71.8239L94.0186 69.4549L98.2391 71.1109L97.9516 66.5684Z" fill="#00aee5"/>
  <path d="M111.283 66.5684H113.813L113.525 71.1109L117.746 69.4549L118.516 71.8239L114.123 72.9624L117.01 76.4814L114.997 77.9304L112.548 74.1124L110.098 77.9304L108.086 76.4814L110.972 72.9624L106.579 71.8239L107.35 69.4549L111.57 71.1109L111.283 66.5684Z" fill="#00aee5"/>
  <path d="M124.614 66.5684H127.144L126.856 71.1109L131.077 69.4549L131.847 71.8239L127.454 72.9624L130.341 76.4814L128.328 77.9304L125.879 74.1124L123.429 77.9304L121.417 76.4814L124.303 72.9624L119.91 71.8239L120.681 69.4549L124.901 71.1109L124.614 66.5684Z" fill="#00aee5"/>
  <path d="M151.382 66.5684H153.912L153.624 71.1109L157.845 69.4549L158.615 71.8239L154.222 72.9624L157.109 76.4814L155.096 77.9304L152.647 74.1124L150.197 77.9304L148.185 76.4814L151.071 72.9624L146.678 71.8239L147.449 69.4549L151.669 71.1109L151.382 66.5684ZM164.032 66.5684H166.562L166.274 71.1109L170.495 69.4549L171.265 71.8239L166.872 72.9624L169.759 76.4814L167.746 77.9304L165.297 74.1124L162.847 77.9304L160.835 76.4814L163.721 72.9624L159.328 71.8239L160.099 69.4549L164.319 71.1109L164.032 66.5684Z" fill="#00aee5"/>
  <path d="M199.712 82.4499L197.665 81.5299L207.44 61.3244L209.464 62.2789L199.712 82.4499ZM176.712 82.4499L174.665 81.5299L184.44 61.3244L186.464 62.2789L176.712 82.4499ZM188.212 82.4499L186.165 81.5299L195.94 61.3244L197.964 62.2789L188.212 82.4499Z" fill="#00aee5"/>
  <path d="M218.037 66.5684H220.567L220.279 71.1109L224.5 69.4549L225.27 71.8239L220.877 72.9624L223.764 76.4814L221.751 77.9304L219.302 74.1124L216.852 77.9304L214.84 76.4814L217.726 72.9624L213.333 71.8239L214.104 69.4549L218.324 71.1109L218.037 66.5684ZM230.687 66.5684H233.217L232.929 71.1109L237.15 69.4549L237.92 71.8239L233.527 72.9624L236.414 76.4814L234.401 77.9304L231.952 74.1124L229.502 77.9304L227.49 76.4814L230.376 72.9624L225.983 71.8239L226.754 69.4549L230.974 71.1109L230.687 66.5684Z" fill="#00aee5"/>
  <path d="M258.03 66.5684H260.56L260.272 71.1109L264.493 69.4549L265.263 71.8239L260.87 72.9624L263.757 76.4814L261.744 77.9304L259.295 74.1124L256.845 77.9304L254.833 76.4814L257.719 72.9624L253.326 71.8239L254.097 69.4549L258.317 71.1109L258.03 66.5684ZM270.68 66.5684H273.21L272.922 71.1109L277.143 69.4549L277.913 71.8239L273.52 72.9624L276.407 76.4814L274.394 77.9304L271.945 74.1124L269.495 77.9304L267.483 76.4814L270.369 72.9624L265.976 71.8239L266.747 69.4549L270.967 71.1109L270.68 66.5684Z" fill="#00aee5"/>
  <path d="M306.36 82.4499L304.313 81.5299L314.088 61.3244L316.112 62.2789L306.36 82.4499ZM283.36 82.4499L281.313 81.5299L291.088 61.3244L293.112 62.2789L283.36 82.4499ZM294.86 82.4499L292.813 81.5299L302.588 61.3244L304.612 62.2789L294.86 82.4499Z" fill="#00aee5"/>
  <path d="M324.579 66.5684H327.109L326.821 71.1109L331.042 69.4549L331.812 71.8239L327.419 72.9624L330.306 76.4814L328.293 77.9304L325.844 74.1124L323.394 77.9304L321.382 76.4814L324.268 72.9624L319.875 71.8239L320.646 69.4549L324.866 71.1109L324.579 66.5684Z" fill="#00aee5"/>
  <path d="M337.91 66.5684H340.44L340.152 71.1109L344.373 69.4549L345.143 71.8239L340.75 72.9624L343.637 76.4814L341.624 77.9304L339.175 74.1124L336.725 77.9304L334.713 76.4814L337.599 72.9624L333.206 71.8239L333.977 69.4549L338.197 71.1109L337.91 66.5684Z" fill="#00aee5"/>
  <path d="M348.653 82.4499L346.606 81.5299L356.381 61.3244L358.405 62.2789L348.653 82.4499Z" fill="#00aee5"/>
  <path d="M364.572 66.5684H367.102L366.814 71.1109L371.035 69.4549L371.805 71.8239L367.412 72.9624L370.299 76.4814L368.286 77.9304L365.837 74.1124L363.387 77.9304L361.375 76.4814L364.261 72.9624L359.868 71.8239L360.639 69.4549L364.859 71.1109L364.572 66.5684Z" fill="#00aee5"/>
  <path d="M377.903 66.5684H380.433L380.145 71.1109L384.366 69.4549L385.136 71.8239L380.743 72.9624L383.63 76.4814L381.617 77.9304L379.168 74.1124L376.718 77.9304L374.706 76.4814L377.592 72.9624L373.199 71.8239L373.97 69.4549L378.19 71.1109L377.903 66.5684Z" fill="#00aee5"/>
  <path d="M415.308 82.4499L413.261 81.5299L423.036 61.3244L425.06 62.2789L415.308 82.4499Z" fill="#00aee5"/>
  <path d="M431.227 66.5684H433.757L433.47 71.1109L437.69 69.4549L438.461 71.8239L434.068 72.9624L436.954 76.4814L434.941 77.9304L432.492 74.1124L430.043 77.9304L428.03 76.4814L430.917 72.9624L426.523 71.8239L427.294 69.4549L431.514 71.1109L431.227 66.5684Z" fill="#00aee5"/>
  <path d="M444.558 66.5684H447.088L446.801 71.1109L451.021 69.4549L451.792 71.8239L447.399 72.9624L450.285 76.4814L448.273 77.9304L445.823 74.1124L443.374 77.9304L441.361 76.4814L444.248 72.9624L439.855 71.8239L440.625 69.4549L444.846 71.1109L444.558 66.5684Z" fill="#00aee5"/>
  <path d="M455.983 82.4499L453.936 81.5299L463.711 61.3244L465.735 62.2789L455.983 82.4499ZM467.483 82.4499L465.436 81.5299L475.211 61.3244L477.235 62.2789L467.483 82.4499Z" fill="#00aee5"/>
  <path d="M484.551 66.5684H487.081L486.794 71.1109L491.014 69.4549L491.785 71.8239L487.392 72.9624L490.278 76.4814L488.266 77.9304L485.816 74.1124L483.367 77.9304L481.354 76.4814L484.241 72.9624L479.848 71.8239L480.618 69.4549L484.839 71.1109L484.551 66.5684Z" fill="#00aee5"/>
  <path d="M497.882 66.5684H500.412L500.125 71.1109L504.345 69.4549L505.116 71.8239L500.723 72.9624L503.609 76.4814L501.597 77.9304L499.147 74.1124L496.698 77.9304L494.685 76.4814L497.572 72.9624L493.179 71.8239L493.949 69.4549L498.17 71.1109L497.882 66.5684Z" fill="#00aee5"/>
  <path d="M509.307 82.4499L507.26 81.5299L517.035 61.3244L519.059 62.2789L509.307 82.4499ZM520.807 82.4499L518.76 81.5299L528.535 61.3244L530.559 62.2789L520.807 82.4499Z" fill="#00aee5"/>
  <path d="M537.875 66.5684H540.405L540.118 71.1109L544.338 69.4549L545.109 71.8239L540.716 72.9624L543.602 76.4814L541.59 77.9304L539.14 74.1124L536.691 77.9304L534.678 76.4814L537.565 72.9624L533.172 71.8239L533.942 69.4549L538.163 71.1109L537.875 66.5684Z" fill="#00aee5"/>
  <path d="M548.619 82.4499L546.572 81.5299L556.347 61.3244L558.371 62.2789L548.619 82.4499Z" fill="#00aee5"/>
  <path d="M564.537 66.5684H567.067L566.78 71.1109L571 69.4549L571.771 71.8239L567.378 72.9624L570.264 76.4814L568.252 77.9304L565.802 74.1124L563.353 77.9304L561.34 76.4814L564.227 72.9624L559.834 71.8239L560.604 69.4549L564.825 71.1109L564.537 66.5684Z" fill="#00aee5"/>
  <path d="M577.868 66.5684H580.398L580.111 71.1109L584.331 69.4549L585.102 71.8239L580.709 72.9624L583.595 76.4814L581.583 77.9304L579.133 74.1124L576.684 77.9304L574.671 76.4814L577.558 72.9624L573.165 71.8239L573.935 69.4549L578.156 71.1109L577.868 66.5684Z" fill="#00aee5"/>
  <path d="M612.974 82.4499L610.927 81.5299L620.702 61.3244L622.726 62.2789L612.974 82.4499ZM589.974 82.4499L587.927 81.5299L597.702 61.3244L599.726 62.2789L589.974 82.4499ZM601.474 82.4499L599.427 81.5299L609.202 61.3244L611.226 62.2789L601.474 82.4499Z" fill="#00aee5"/>
  <path d="M631.192 66.5684H633.722L633.435 71.1109L637.655 69.4549L638.426 71.8239L634.033 72.9624L636.919 76.4814L634.907 77.9304L632.457 74.1124L630.008 77.9304L627.995 76.4814L630.882 72.9624L626.489 71.8239L627.259 69.4549L631.48 71.1109L631.192 66.5684Z" fill="#00aee5"/>
  <path d="M644.523 66.5684H647.053L646.766 71.1109L650.986 69.4549L651.757 71.8239L647.364 72.9624L650.25 76.4814L648.238 77.9304L645.788 74.1124L643.339 77.9304L641.326 76.4814L644.213 72.9624L639.82 71.8239L640.59 69.4549L644.811 71.1109L644.523 66.5684Z" fill="#00aee5"/>
  <path d="M655.267 82.4499L653.22 81.5299L662.995 61.3244L665.019 62.2789L655.267 82.4499Z" fill="#00aee5"/>
  <path d="M709.272 82.4499L707.225 81.5299L717 61.3244L719.024 62.2789L709.272 82.4499ZM720.772 82.4499L718.725 81.5299L728.5 61.3244L730.524 62.2789L720.772 82.4499Z" fill="#00aee5"/>
  <path d="M737.84 66.5684H740.37L740.083 71.1109L744.303 69.4549L745.074 71.8239L740.681 72.9624L743.567 76.4814L741.555 77.9304L739.105 74.1124L736.656 77.9304L734.643 76.4814L737.53 72.9624L733.137 71.8239L733.907 69.4549L738.128 71.1109L737.84 66.5684Z" fill="#00aee5"/>
  <path d="M751.171 66.5684H753.701L753.414 71.1109L757.634 69.4549L758.405 71.8239L754.012 72.9624L756.898 76.4814L754.886 77.9304L752.436 74.1124L749.987 77.9304L747.974 76.4814L750.861 72.9624L746.468 71.8239L747.238 69.4549L751.459 71.1109L751.171 66.5684Z" fill="#00aee5"/>
  <path d="M764.502 66.5684H767.032L766.745 71.1109L770.965 69.4549L771.736 71.8239L767.343 72.9624L770.229 76.4814L768.217 77.9304L765.767 74.1124L763.318 77.9304L761.305 76.4814L764.192 72.9624L759.799 71.8239L760.569 69.4549L764.79 71.1109L764.502 66.5684Z" fill="#00aee5"/>
  <path d="M801.908 82.4499L799.861 81.5299L809.636 61.3244L811.66 62.2789L801.908 82.4499Z" fill="#00aee5"/>
  <path d="M817.826 66.5684H820.356L820.069 71.1109L824.289 69.4549L825.06 71.8239L820.667 72.9624L823.553 76.4814L821.541 77.9304L819.091 74.1124L816.642 77.9304L814.629 76.4814L817.516 72.9624L813.123 71.8239L813.893 69.4549L818.114 71.1109L817.826 66.5684Z" fill="#00aee5"/>
  <path d="M831.157 66.5684H833.687L833.4 71.1109L837.62 69.4549L838.391 71.8239L833.998 72.9624L836.884 76.4814L834.872 77.9304L832.422 74.1124L829.973 77.9304L827.96 76.4814L830.847 72.9624L826.454 71.8239L827.224 69.4549L831.445 71.1109L831.157 66.5684Z" fill="#00aee5"/>
  <path d="M935.218 82.4499L933.171 81.5299L942.946 61.3244L944.97 62.2789L935.218 82.4499Z" fill="#00aee5"/>
  <path d="M948.549 82.4499L946.502 81.5299L956.277 61.3244L958.301 62.2789L948.549 82.4499Z" fill="#00aee5"/>
  <path d="M961.88 82.4499L959.833 81.5299L969.608 61.3244L971.632 62.2789L961.88 82.4499Z" fill="#00aee5"/>
  <path d="M975.211 82.4499L973.164 81.5299L982.939 61.3244L984.963 62.2789L975.211 82.4499Z" fill="#00aee5"/>
  <path d="M988.542 82.4499L986.495 81.5299L996.27 61.3244L998.294 62.2789L988.542 82.4499Z" fill="#00aee5"/>
  <path d="M1001.87 82.4499L999.826 81.5299L1009.6 61.3244L1011.63 62.2789L1001.87 82.4499Z" fill="#00aee5"/>
  <path d="M1017.79 66.5684H1020.32L1020.03 71.1109L1024.25 69.4549L1025.03 71.8239L1020.63 72.9624L1023.52 76.4814L1021.51 77.9304L1019.06 74.1124L1016.61 77.9304L1014.59 76.4814L1017.48 72.9624L1013.09 71.8239L1013.86 69.4549L1018.08 71.1109L1017.79 66.5684Z" fill="#00aee5"/>
  <path d="M1031.12 66.5684H1033.65L1033.37 71.1109L1037.59 69.4549L1038.36 71.8239L1033.96 72.9624L1036.85 76.4814L1034.84 77.9304L1032.39 74.1124L1029.94 77.9304L1027.93 76.4814L1030.81 72.9624L1026.42 71.8239L1027.19 69.4549L1031.41 71.1109L1031.12 66.5684Z" fill="#00aee5"/>
  <path d="M1055.2 82.4499L1053.15 81.5299L1062.93 61.3244L1064.95 62.2789L1055.2 82.4499Z" fill="#00aee5"/>
  <path d="M1071.12 66.5684H1073.65L1073.36 71.1109L1077.58 69.4549L1078.35 71.8239L1073.96 72.9624L1076.84 76.4814L1074.83 77.9304L1072.38 74.1124L1069.93 77.9304L1067.92 76.4814L1070.81 72.9624L1066.41 71.8239L1067.18 69.4549L1071.4 71.1109L1071.12 66.5684Z" fill="#00aee5"/>
  <path d="M1084.45 66.5684H1086.98L1086.69 71.1109L1090.91 69.4549L1091.68 71.8239L1087.29 72.9624L1090.17 76.4814L1088.16 77.9304L1085.71 74.1124L1083.26 77.9304L1081.25 76.4814L1084.14 72.9624L1079.74 71.8239L1080.51 69.4549L1084.73 71.1109L1084.45 66.5684Z" fill="#00aee5"/>
  <path d="M1097.78 66.5684H1100.31L1100.02 71.1109L1104.24 69.4549L1105.01 71.8239L1100.62 72.9624L1103.5 76.4814L1101.49 77.9304L1099.04 74.1124L1096.59 77.9304L1094.58 76.4814L1097.47 72.9624L1093.07 71.8239L1093.84 69.4549L1098.07 71.1109L1097.78 66.5684Z" fill="#00aee5"/>
  <path d="M1111.11 66.5684H1113.64L1113.35 71.1109L1117.57 69.4549L1118.34 71.8239L1113.95 72.9624L1116.84 76.4814L1114.82 77.9304L1112.37 74.1124L1109.92 77.9304L1107.91 76.4814L1110.8 72.9624L1106.41 71.8239L1107.18 69.4549L1111.4 71.1109L1111.11 66.5684Z" fill="#00aee5"/>
  <path d="M1124.44 66.5684H1126.97L1126.68 71.1109L1130.9 69.4549L1131.67 71.8239L1127.28 72.9624L1130.17 76.4814L1128.15 77.9304L1125.7 74.1124L1123.26 77.9304L1121.24 76.4814L1124.13 72.9624L1119.74 71.8239L1120.51 69.4549L1124.73 71.1109L1124.44 66.5684Z" fill="#00aee5"/>
  <path d="M1137.77 66.5684H1140.3L1140.01 71.1109L1144.23 69.4549L1145 71.8239L1140.61 72.9624L1143.5 76.4814L1141.49 77.9304L1139.04 74.1124L1136.59 77.9304L1134.57 76.4814L1137.46 72.9624L1133.07 71.8239L1133.84 69.4549L1138.06 71.1109L1137.77 66.5684Z" fill="#00aee5"/>
  <path d="M2.047 104.45L0 103.53L9.775 83.3244L11.799 84.2789L2.047 104.45Z" fill="#00aee5"/>
  <path d="M15.378 104.45L13.331 103.53L23.106 83.3244L25.13 84.2789L15.378 104.45Z" fill="#00aee5"/>
  <path d="M28.709 104.45L26.662 103.53L36.437 83.3244L38.461 84.2789L28.709 104.45Z" fill="#00aee5"/>
  <path d="M42.04 104.45L39.993 103.53L49.768 83.3244L51.792 84.2789L42.04 104.45Z" fill="#00aee5"/>
  <path d="M55.3711 104.45L53.3241 103.53L63.0991 83.3244L65.1231 84.2789L55.3711 104.45Z" fill="#00aee5"/>
  <path d="M68.7021 104.45L66.6551 103.53L76.4301 83.3244L78.4541 84.2789L68.7021 104.45Z" fill="#00aee5"/>
  <path d="M82.0331 104.45L79.9861 103.53L89.7611 83.3244L91.7851 84.2789L82.0331 104.45Z" fill="#00aee5"/>
  <path d="M95.3641 104.45L93.3171 103.53L103.092 83.3244L105.116 84.2789L95.3641 104.45Z" fill="#00aee5"/>
  <path d="M111.283 88.5684H113.813L113.525 93.1109L117.746 91.4549L118.516 93.8239L114.123 94.9624L117.01 98.4814L114.997 99.9304L112.548 96.1124L110.098 99.9304L108.086 98.4814L110.972 94.9624L106.579 93.8239L107.35 91.4549L111.57 93.1109L111.283 88.5684Z" fill="#00aee5"/>
  <path d="M124.614 88.5684H127.144L126.856 93.1109L131.077 91.4549L131.847 93.8239L127.454 94.9624L130.341 98.4814L128.328 99.9304L125.879 96.1124L123.429 99.9304L121.417 98.4814L124.303 94.9624L119.91 93.8239L120.681 91.4549L124.901 93.1109L124.614 88.5684Z" fill="#00aee5"/>
  <path d="M135.357 104.45L133.31 103.53L143.085 83.3244L145.109 84.2789L135.357 104.45Z" fill="#00aee5"/>
  <path d="M151.276 88.5684H153.806L153.518 93.1109L157.739 91.4549L158.509 93.8239L154.116 94.9624L157.003 98.4814L154.99 99.9304L152.541 96.1124L150.091 99.9304L148.079 98.4814L150.965 94.9624L146.572 93.8239L147.343 91.4549L151.563 93.1109L151.276 88.5684Z" fill="#00aee5"/>
  <path d="M164.607 88.5684H167.137L166.849 93.1109L171.07 91.4549L171.84 93.8239L167.447 94.9624L170.334 98.4814L168.321 99.9304L165.872 96.1124L163.422 99.9304L161.41 98.4814L164.296 94.9624L159.903 93.8239L160.674 91.4549L164.894 93.1109L164.607 88.5684Z" fill="#00aee5"/>
  <path d="M177.938 88.5684H180.468L180.18 93.1109L184.401 91.4549L185.171 93.8239L180.778 94.9624L183.665 98.4814L181.652 99.9304L179.203 96.1124L176.753 99.9304L174.741 98.4814L177.627 94.9624L173.234 93.8239L174.005 91.4549L178.225 93.1109L177.938 88.5684Z" fill="#00aee5"/>
  <path d="M191.269 88.5684H193.799L193.511 93.1109L197.732 91.4549L198.502 93.8239L194.109 94.9624L196.996 98.4814L194.983 99.9304L192.534 96.1124L190.084 99.9304L188.072 98.4814L190.958 94.9624L186.565 93.8239L187.336 91.4549L191.556 93.1109L191.269 88.5684Z" fill="#00aee5"/>
  <path d="M204.6 88.5684H207.13L206.842 93.1109L211.063 91.4549L211.833 93.8239L207.44 94.9624L210.327 98.4814L208.314 99.9304L205.865 96.1124L203.415 99.9304L201.403 98.4814L204.289 94.9624L199.896 93.8239L200.667 91.4549L204.887 93.1109L204.6 88.5684Z" fill="#00aee5"/>
  <path d="M217.931 88.5684H220.461L220.173 93.1109L224.394 91.4549L225.164 93.8239L220.771 94.9624L223.658 98.4814L221.645 99.9304L219.196 96.1124L216.746 99.9304L214.734 98.4814L217.62 94.9624L213.227 93.8239L213.998 91.4549L218.218 93.1109L217.931 88.5684Z" fill="#00aee5"/>
  <path d="M231.262 88.5684H233.792L233.504 93.1109L237.725 91.4549L238.495 93.8239L234.102 94.9624L236.989 98.4814L234.976 99.9304L232.527 96.1124L230.077 99.9304L228.065 98.4814L230.951 94.9624L226.558 93.8239L227.329 91.4549L231.549 93.1109L231.262 88.5684Z" fill="#00aee5"/>
  <path d="M242.005 104.45L239.958 103.53L249.733 83.3244L251.757 84.2789L242.005 104.45Z" fill="#00aee5"/>
  <path d="M257.924 88.5684H260.454L260.166 93.1109L264.387 91.4549L265.157 93.8239L260.764 94.9624L263.651 98.4814L261.638 99.9304L259.189 96.1124L256.739 99.9304L254.727 98.4814L257.613 94.9624L253.22 93.8239L253.991 91.4549L258.211 93.1109L257.924 88.5684Z" fill="#00aee5"/>
  <path d="M271.255 88.5684H273.785L273.497 93.1109L277.718 91.4549L278.488 93.8239L274.095 94.9624L276.982 98.4814L274.969 99.9304L272.52 96.1124L270.07 99.9304L268.058 98.4814L270.944 94.9624L266.551 93.8239L267.322 91.4549L271.542 93.1109L271.255 88.5684Z" fill="#00aee5"/>
  <path d="M309.341 104.45L307.294 103.53L317.069 83.3244L319.093 84.2789L309.341 104.45ZM320.841 104.45L318.794 103.53L328.569 83.3244L330.593 84.2789L320.841 104.45Z" fill="#00aee5"/>
  <path d="M348.653 104.45L346.606 103.53L356.381 83.3244L358.405 84.2789L348.653 104.45Z" fill="#00aee5"/>
  <path d="M364.572 88.5684H367.102L366.814 93.1109L371.035 91.4549L371.805 93.8239L367.412 94.9624L370.299 98.4814L368.286 99.9304L365.837 96.1124L363.387 99.9304L361.375 98.4814L364.261 94.9624L359.868 93.8239L360.639 91.4549L364.859 93.1109L364.572 88.5684Z" fill="#00aee5"/>
  <path d="M377.903 88.5684H380.433L380.145 93.1109L384.366 91.4549L385.136 93.8239L380.743 94.9624L383.63 98.4814L381.617 99.9304L379.168 96.1124L376.718 99.9304L374.706 98.4814L377.592 94.9624L373.199 93.8239L373.97 91.4549L378.19 93.1109L377.903 88.5684Z" fill="#00aee5"/>
  <path d="M415.308 104.45L413.261 103.53L423.036 83.3244L425.06 84.2789L415.308 104.45Z" fill="#00aee5"/>
  <path d="M431.227 88.5684H433.757L433.47 93.1109L437.69 91.4549L438.461 93.8239L434.068 94.9624L436.954 98.4814L434.941 99.9304L432.492 96.1124L430.043 99.9304L428.03 98.4814L430.917 94.9624L426.523 93.8239L427.294 91.4549L431.514 93.1109L431.227 88.5684Z" fill="#00aee5"/>
  <path d="M444.558 88.5684H447.088L446.801 93.1109L451.021 91.4549L451.792 93.8239L447.399 94.9624L450.285 98.4814L448.273 99.9304L445.823 96.1124L443.374 99.9304L441.361 98.4814L444.248 94.9624L439.855 93.8239L440.625 91.4549L444.846 93.1109L444.558 88.5684Z" fill="#00aee5"/>
  <path d="M468.633 104.45L466.586 103.53L476.361 83.3244L478.385 84.2789L468.633 104.45Z" fill="#00aee5"/>
  <path d="M484.551 88.5684H487.081L486.794 93.1109L491.014 91.4549L491.785 93.8239L487.392 94.9624L490.278 98.4814L488.266 99.9304L485.816 96.1124L483.367 99.9304L481.354 98.4814L484.241 94.9624L479.848 93.8239L480.618 91.4549L484.839 93.1109L484.551 88.5684Z" fill="#00aee5"/>
  <path d="M497.882 88.5684H500.412L500.125 93.1109L504.345 91.4549L505.116 93.8239L500.723 94.9624L503.609 98.4814L501.597 99.9304L499.147 96.1124L496.698 99.9304L494.685 98.4814L497.572 94.9624L493.179 93.8239L493.949 91.4549L498.17 93.1109L497.882 88.5684Z" fill="#00aee5"/>
  <path d="M521.957 104.45L519.91 103.53L529.685 83.3244L531.709 84.2789L521.957 104.45Z" fill="#00aee5"/>
  <path d="M548.619 104.45L546.572 103.53L556.347 83.3244L558.371 84.2789L548.619 104.45Z" fill="#00aee5"/>
  <path d="M564.537 88.5684H567.067L566.78 93.1109L571 91.4549L571.771 93.8239L567.378 94.9624L570.264 98.4814L568.252 99.9304L565.802 96.1124L563.353 99.9304L561.34 98.4814L564.227 94.9624L559.834 93.8239L560.604 91.4549L564.825 93.1109L564.537 88.5684Z" fill="#00aee5"/>
  <path d="M577.868 88.5684H580.398L580.111 93.1109L584.331 91.4549L585.102 93.8239L580.709 94.9624L583.595 98.4814L581.583 99.9304L579.133 96.1124L576.684 99.9304L574.671 98.4814L577.558 94.9624L573.165 93.8239L573.935 91.4549L578.156 93.1109L577.868 88.5684Z" fill="#00aee5"/>
  <path d="M615.274 104.45L613.227 103.53L623.002 83.3244L625.026 84.2789L615.274 104.45Z" fill="#00aee5"/>
  <path d="M631.192 88.5684H633.722L633.435 93.1109L637.655 91.4549L638.426 93.8239L634.033 94.9624L636.919 98.4814L634.907 99.9304L632.457 96.1124L630.008 99.9304L627.995 98.4814L630.882 94.9624L626.489 93.8239L627.259 91.4549L631.48 93.1109L631.192 88.5684Z" fill="#00aee5"/>
  <path d="M644.523 88.5684H647.053L646.766 93.1109L650.986 91.4549L651.757 93.8239L647.364 94.9624L650.25 98.4814L648.238 99.9304L645.788 96.1124L643.339 99.9304L641.326 98.4814L644.213 94.9624L639.82 93.8239L640.59 91.4549L644.811 93.1109L644.523 88.5684Z" fill="#00aee5"/>
  <path d="M721.922 104.45L719.875 103.53L729.65 83.3244L731.674 84.2789L721.922 104.45Z" fill="#00aee5"/>
  <path d="M737.84 88.5684H740.37L740.083 93.1109L744.303 91.4549L745.074 93.8239L740.681 94.9624L743.567 98.4814L741.555 99.9304L739.105 96.1124L736.656 99.9304L734.643 98.4814L737.53 94.9624L733.137 93.8239L733.907 91.4549L738.128 93.1109L737.84 88.5684Z" fill="#00aee5"/>
  <path d="M751.171 88.5684H753.701L753.414 93.1109L757.634 91.4549L758.405 93.8239L754.012 94.9624L756.898 98.4814L754.886 99.9304L752.436 96.1124L749.987 99.9304L747.974 98.4814L750.861 94.9624L746.468 93.8239L747.238 91.4549L751.459 93.1109L751.171 88.5684Z" fill="#00aee5"/>
  <path d="M801.908 104.45L799.861 103.53L809.636 83.3244L811.66 84.2789L801.908 104.45Z" fill="#00aee5"/>
  <path d="M817.826 88.5684H820.356L820.069 93.1109L824.289 91.4549L825.06 93.8239L820.667 94.9624L823.553 98.4814L821.541 99.9304L819.091 96.1124L816.642 99.9304L814.629 98.4814L817.516 94.9624L813.123 93.8239L813.893 91.4549L818.114 93.1109L817.826 88.5684Z" fill="#00aee5"/>
  <path d="M831.157 88.5684H833.687L833.4 93.1109L837.62 91.4549L838.391 93.8239L833.998 94.9624L836.884 98.4814L834.872 99.9304L832.422 96.1124L829.973 99.9304L827.96 98.4814L830.847 94.9624L826.454 93.8239L827.224 91.4549L831.445 93.1109L831.157 88.5684Z" fill="#00aee5"/>
  <path d="M951.137 88.5684H953.667L953.379 93.1109L957.6 91.4549L958.37 93.8239L953.977 94.9624L956.864 98.4814L954.851 99.9304L952.402 96.1124L949.952 99.9304L947.94 98.4814L950.826 94.9624L946.433 93.8239L947.204 91.4549L951.424 93.1109L951.137 88.5684Z" fill="#00aee5"/>
  <path d="M964.468 88.5684H966.998L966.71 93.1109L970.931 91.4549L971.701 93.8239L967.308 94.9624L970.195 98.4814L968.182 99.9304L965.733 96.1124L963.283 99.9304L961.271 98.4814L964.157 94.9624L959.764 93.8239L960.535 91.4549L964.755 93.1109L964.468 88.5684Z" fill="#00aee5"/>
  <path d="M977.799 88.5684H980.329L980.041 93.1109L984.262 91.4549L985.032 93.8239L980.639 94.9624L983.526 98.4814L981.513 99.9304L979.064 96.1124L976.614 99.9304L974.602 98.4814L977.488 94.9624L973.095 93.8239L973.866 91.4549L978.086 93.1109L977.799 88.5684Z" fill="#00aee5"/>
  <path d="M991.13 88.5684H993.66L993.372 93.1109L997.593 91.4549L998.363 93.8239L993.97 94.9624L996.857 98.4814L994.844 99.9304L992.395 96.1124L989.945 99.9304L987.933 98.4814L990.819 94.9624L986.426 93.8239L987.197 91.4549L991.417 93.1109L991.13 88.5684Z" fill="#00aee5"/>
  <path d="M1004.46 88.5684H1006.99L1006.7 93.1109L1010.92 91.4549L1011.69 93.8239L1007.3 94.9624L1010.19 98.4814L1008.18 99.9304L1005.73 96.1124L1003.28 99.9304L1001.26 98.4814L1004.15 94.9624L999.757 93.8239L1000.53 91.4549L1004.75 93.1109L1004.46 88.5684Z" fill="#00aee5"/>
  <path d="M1017.79 88.5684H1020.32L1020.03 93.1109L1024.25 91.4549L1025.03 93.8239L1020.63 94.9624L1023.52 98.4814L1021.51 99.9304L1019.06 96.1124L1016.61 99.9304L1014.59 98.4814L1017.48 94.9624L1013.09 93.8239L1013.86 91.4549L1018.08 93.1109L1017.79 88.5684Z" fill="#00aee5"/>
  <path d="M1031.12 88.5684H1033.65L1033.37 93.1109L1037.59 91.4549L1038.36 93.8239L1033.96 94.9624L1036.85 98.4814L1034.84 99.9304L1032.39 96.1124L1029.94 99.9304L1027.93 98.4814L1030.81 94.9624L1026.42 93.8239L1027.19 91.4549L1031.41 93.1109L1031.12 88.5684Z" fill="#00aee5"/>
  <path d="M1055.2 104.45L1053.15 103.53L1062.93 83.3244L1064.95 84.2789L1055.2 104.45Z" fill="#00aee5"/>
  <path d="M1071.12 88.5684H1073.65L1073.36 93.1109L1077.58 91.4549L1078.35 93.8239L1073.96 94.9624L1076.84 98.4814L1074.83 99.9304L1072.38 96.1124L1069.93 99.9304L1067.92 98.4814L1070.81 94.9624L1066.41 93.8239L1067.18 91.4549L1071.4 93.1109L1071.12 88.5684Z" fill="#00aee5"/>
  <path d="M1084.45 88.5684H1086.98L1086.69 93.1109L1090.91 91.4549L1091.68 93.8239L1087.29 94.9624L1090.17 98.4814L1088.16 99.9304L1085.71 96.1124L1083.26 99.9304L1081.25 98.4814L1084.14 94.9624L1079.74 93.8239L1080.51 91.4549L1084.73 93.1109L1084.45 88.5684Z" fill="#00aee5"/>
  <path d="M1119.55 104.45L1117.51 103.53L1127.28 83.3244L1129.3 84.2789L1119.55 104.45ZM1096.55 104.45L1094.51 103.53L1104.28 83.3244L1106.3 84.2789L1096.55 104.45ZM1108.05 104.45L1106.01 103.53L1115.78 83.3244L1117.8 84.2789L1108.05 104.45Z" fill="#00aee5"/>
  <path d="M1137.88 88.5684H1140.41L1140.12 93.1109L1144.34 91.4549L1145.11 93.8239L1140.72 94.9624L1143.6 98.4814L1141.59 99.9304L1139.14 96.1124L1136.69 99.9304L1134.68 98.4814L1137.57 94.9624L1133.17 93.8239L1133.94 91.4549L1138.16 93.1109L1137.88 88.5684ZM1150.53 88.5684H1153.06L1152.77 93.1109L1156.99 91.4549L1157.76 93.8239L1153.37 94.9624L1156.25 98.4814L1154.24 99.9304L1151.79 96.1124L1149.34 99.9304L1147.33 98.4814L1150.22 94.9624L1145.82 93.8239L1146.59 91.4549L1150.81 93.1109L1150.53 88.5684Z" fill="#00aee5"/>
  <path d="M95.3641 126.45L93.3171 125.53L103.092 105.324L105.116 106.279L95.3641 126.45Z" fill="#00aee5"/>
  <path d="M111.283 110.568H113.813L113.525 115.111L117.746 113.455L118.516 115.824L114.123 116.962L117.01 120.481L114.997 121.93L112.548 118.112L110.098 121.93L108.086 120.481L110.972 116.962L106.579 115.824L107.35 113.455L111.57 115.111L111.283 110.568Z" fill="#00aee5"/>
  <path d="M124.614 110.568H127.144L126.856 115.111L131.077 113.455L131.847 115.824L127.454 116.962L130.341 120.481L128.328 121.93L125.879 118.112L123.429 121.93L121.417 120.481L124.303 116.962L119.91 115.824L120.681 113.455L124.901 115.111L124.614 110.568Z" fill="#00aee5"/>
  <path d="M135.357 126.45L133.31 125.53L143.085 105.324L145.109 106.279L135.357 126.45Z" fill="#00aee5"/>
  <path d="M151.276 110.568H153.806L153.518 115.111L157.739 113.455L158.509 115.824L154.116 116.962L157.003 120.481L154.99 121.93L152.541 118.112L150.091 121.93L148.079 120.481L150.965 116.962L146.572 115.824L147.343 113.455L151.563 115.111L151.276 110.568Z" fill="#00aee5"/>
  <path d="M164.607 110.568H167.137L166.849 115.111L171.07 113.455L171.84 115.824L167.447 116.962L170.334 120.481L168.321 121.93L165.872 118.112L163.422 121.93L161.41 120.481L164.296 116.962L159.903 115.824L160.674 113.455L164.894 115.111L164.607 110.568Z" fill="#00aee5"/>
  <path d="M175.35 126.45L173.303 125.53L183.078 105.324L185.102 106.279L175.35 126.45Z" fill="#00aee5"/>
  <path d="M188.681 126.45L186.634 125.53L196.409 105.324L198.433 106.279L188.681 126.45Z" fill="#00aee5"/>
  <path d="M202.012 126.45L199.965 125.53L209.74 105.324L211.764 106.279L202.012 126.45Z" fill="#00aee5"/>
  <path d="M215.343 126.45L213.296 125.53L223.071 105.324L225.095 106.279L215.343 126.45Z" fill="#00aee5"/>
  <path d="M242.005 126.45L239.958 125.53L249.733 105.324L251.757 106.279L242.005 126.45Z" fill="#00aee5"/>
  <path d="M257.924 110.568H260.454L260.166 115.111L264.387 113.455L265.157 115.824L260.764 116.962L263.651 120.481L261.638 121.93L259.189 118.112L256.739 121.93L254.727 120.481L257.613 116.962L253.22 115.824L253.991 113.455L258.211 115.111L257.924 110.568Z" fill="#00aee5"/>
  <path d="M271.255 110.568H273.785L273.497 115.111L277.718 113.455L278.488 115.824L274.095 116.962L276.982 120.481L274.969 121.93L272.52 118.112L270.07 121.93L268.058 120.481L270.944 116.962L266.551 115.824L267.322 113.455L271.542 115.111L271.255 110.568Z" fill="#00aee5"/>
  <path d="M324.579 110.568H327.109L326.821 115.111L331.042 113.455L331.812 115.824L327.419 116.962L330.306 120.481L328.293 121.93L325.844 118.112L323.394 121.93L321.382 120.481L324.268 116.962L319.875 115.824L320.646 113.455L324.866 115.111L324.579 110.568Z" fill="#00aee5"/>
  <path d="M337.91 110.568H340.44L340.152 115.111L344.373 113.455L345.143 115.824L340.75 116.962L343.637 120.481L341.624 121.93L339.175 118.112L336.725 121.93L334.713 120.481L337.599 116.962L333.206 115.824L333.977 113.455L338.197 115.111L337.91 110.568Z" fill="#00aee5"/>
  <path d="M348.653 126.45L346.606 125.53L356.381 105.324L358.405 106.279L348.653 126.45Z" fill="#00aee5"/>
  <path d="M364.572 110.568H367.102L366.814 115.111L371.035 113.455L371.805 115.824L367.412 116.962L370.299 120.481L368.286 121.93L365.837 118.112L363.387 121.93L361.375 120.481L364.261 116.962L359.868 115.824L360.639 113.455L364.859 115.111L364.572 110.568Z" fill="#00aee5"/>
  <path d="M377.903 110.568H380.433L380.145 115.111L384.366 113.455L385.136 115.824L380.743 116.962L383.63 120.481L381.617 121.93L379.168 118.112L376.718 121.93L374.706 120.481L377.592 116.962L373.199 115.824L373.97 113.455L378.19 115.111L377.903 110.568Z" fill="#00aee5"/>
  <path d="M415.308 126.45L413.261 125.53L423.036 105.324L425.06 106.279L415.308 126.45Z" fill="#00aee5"/>
  <path d="M431.227 110.568H433.757L433.47 115.111L437.69 113.455L438.461 115.824L434.068 116.962L436.954 120.481L434.941 121.93L432.492 118.112L430.043 121.93L428.03 120.481L430.917 116.962L426.523 115.824L427.294 113.455L431.514 115.111L431.227 110.568Z" fill="#00aee5"/>
  <path d="M444.558 110.568H447.088L446.801 115.111L451.021 113.455L451.792 115.824L447.399 116.962L450.285 120.481L448.273 121.93L445.823 118.112L443.374 121.93L441.361 120.481L444.248 116.962L439.855 115.824L440.625 113.455L444.846 115.111L444.558 110.568Z" fill="#00aee5"/>
  <path d="M468.633 126.45L466.586 125.53L476.361 105.324L478.385 106.279L468.633 126.45Z" fill="#00aee5"/>
  <path d="M484.551 110.568H487.081L486.794 115.111L491.014 113.455L491.785 115.824L487.392 116.962L490.278 120.481L488.266 121.93L485.816 118.112L483.367 121.93L481.354 120.481L484.241 116.962L479.848 115.824L480.618 113.455L484.839 115.111L484.551 110.568Z" fill="#00aee5"/>
  <path d="M497.882 110.568H500.412L500.125 115.111L504.345 113.455L505.116 115.824L500.723 116.962L503.609 120.481L501.597 121.93L499.147 118.112L496.698 121.93L494.685 120.481L497.572 116.962L493.179 115.824L493.949 113.455L498.17 115.111L497.882 110.568Z" fill="#00aee5"/>
  <path d="M548.619 126.45L546.572 125.53L556.347 105.324L558.371 106.279L548.619 126.45Z" fill="#00aee5"/>
  <path d="M564.537 110.568H567.067L566.78 115.111L571 113.455L571.771 115.824L567.378 116.962L570.264 120.481L568.252 121.93L565.802 118.112L563.353 121.93L561.34 120.481L564.227 116.962L559.834 115.824L560.604 113.455L564.825 115.111L564.537 110.568Z" fill="#00aee5"/>
  <path d="M577.868 110.568H580.398L580.111 115.111L584.331 113.455L585.102 115.824L580.709 116.962L583.595 120.481L581.583 121.93L579.133 118.112L576.684 121.93L574.671 120.481L577.558 116.962L573.165 115.824L573.935 113.455L578.156 115.111L577.868 110.568Z" fill="#00aee5"/>
  <path d="M615.274 126.45L613.227 125.53L623.002 105.324L625.026 106.279L615.274 126.45Z" fill="#00aee5"/>
  <path d="M631.192 110.568H633.722L633.435 115.111L637.655 113.455L638.426 115.824L634.033 116.962L636.919 120.481L634.907 121.93L632.457 118.112L630.008 121.93L627.995 120.481L630.882 116.962L626.489 115.824L627.259 113.455L631.48 115.111L631.192 110.568Z" fill="#00aee5"/>
  <path d="M644.523 110.568H647.053L646.766 115.111L650.986 113.455L651.757 115.824L647.364 116.962L650.25 120.481L648.238 121.93L645.788 118.112L643.339 121.93L641.326 120.481L644.213 116.962L639.82 115.824L640.59 113.455L644.811 115.111L644.523 110.568Z" fill="#00aee5"/>
  <path d="M724.615 110.568H727.145L726.858 115.111L731.078 113.455L731.849 115.824L727.456 116.962L730.342 120.481L728.33 121.93L725.88 118.112L723.431 121.93L721.418 120.481L724.305 116.962L719.912 115.824L720.682 113.455L724.903 115.111L724.615 110.568ZM737.265 110.568H739.795L739.508 115.111L743.728 113.455L744.499 115.824L740.106 116.962L742.992 120.481L740.98 121.93L738.53 118.112L736.081 121.93L734.068 120.481L736.955 116.962L732.562 115.824L733.332 113.455L737.553 115.111L737.265 110.568Z" fill="#00aee5"/>
  <path d="M801.908 126.45L799.861 125.53L809.636 105.324L811.66 106.279L801.908 126.45Z" fill="#00aee5"/>
  <path d="M817.826 110.568H820.356L820.069 115.111L824.289 113.455L825.06 115.824L820.667 116.962L823.553 120.481L821.541 121.93L819.091 118.112L816.642 121.93L814.629 120.481L817.516 116.962L813.123 115.824L813.893 113.455L818.114 115.111L817.826 110.568Z" fill="#00aee5"/>
  <path d="M831.157 110.568H833.687L833.4 115.111L837.62 113.455L838.391 115.824L833.998 116.962L836.884 120.481L834.872 121.93L832.422 118.112L829.973 121.93L827.96 120.481L830.847 116.962L826.454 115.824L827.224 113.455L831.445 115.111L831.157 110.568Z" fill="#00aee5"/>
  <path d="M937.806 110.568H940.336L940.048 115.111L944.269 113.455L945.039 115.824L940.646 116.962L943.533 120.481L941.52 121.93L939.071 118.112L936.621 121.93L934.609 120.481L937.495 116.962L933.102 115.824L933.873 113.455L938.093 115.111L937.806 110.568Z" fill="#00aee5"/>
  <path d="M951.137 110.568H953.667L953.379 115.111L957.6 113.455L958.37 115.824L953.977 116.962L956.864 120.481L954.851 121.93L952.402 118.112L949.952 121.93L947.94 120.481L950.826 116.962L946.433 115.824L947.204 113.455L951.424 115.111L951.137 110.568Z" fill="#00aee5"/>
  <path d="M961.88 126.45L959.833 125.53L969.608 105.324L971.632 106.279L961.88 126.45Z" fill="#00aee5"/>
  <path d="M975.211 126.45L973.164 125.53L982.939 105.324L984.963 106.279L975.211 126.45Z" fill="#00aee5"/>
  <path d="M988.542 126.45L986.495 125.53L996.27 105.324L998.294 106.279L988.542 126.45Z" fill="#00aee5"/>
  <path d="M1001.87 126.45L999.826 125.53L1009.6 105.324L1011.63 106.279L1001.87 126.45Z" fill="#00aee5"/>
  <path d="M1017.79 110.568H1020.32L1020.03 115.111L1024.25 113.455L1025.03 115.824L1020.63 116.962L1023.52 120.481L1021.51 121.93L1019.06 118.112L1016.61 121.93L1014.59 120.481L1017.48 116.962L1013.09 115.824L1013.86 113.455L1018.08 115.111L1017.79 110.568Z" fill="#00aee5"/>
  <path d="M1031.12 110.568H1033.65L1033.37 115.111L1037.59 113.455L1038.36 115.824L1033.96 116.962L1036.85 120.481L1034.84 121.93L1032.39 118.112L1029.94 121.93L1027.93 120.481L1030.81 116.962L1026.42 115.824L1027.19 113.455L1031.41 115.111L1031.12 110.568Z" fill="#00aee5"/>
  <path d="M1055.2 126.45L1053.15 125.53L1062.93 105.324L1064.95 106.279L1055.2 126.45Z" fill="#00aee5"/>
  <path d="M1071.12 110.568H1073.65L1073.36 115.111L1077.58 113.455L1078.35 115.824L1073.96 116.962L1076.84 120.481L1074.83 121.93L1072.38 118.112L1069.93 121.93L1067.92 120.481L1070.81 116.962L1066.41 115.824L1067.18 113.455L1071.4 115.111L1071.12 110.568Z" fill="#00aee5"/>
  <path d="M1084.45 110.568H1086.98L1086.69 115.111L1090.91 113.455L1091.68 115.824L1087.29 116.962L1090.17 120.481L1088.16 121.93L1085.71 118.112L1083.26 121.93L1081.25 120.481L1084.14 116.962L1079.74 115.824L1080.51 113.455L1084.73 115.111L1084.45 110.568Z" fill="#00aee5"/>
  <path d="M1121.85 126.45L1119.81 125.53L1129.58 105.324L1131.6 106.279L1121.85 126.45Z" fill="#00aee5"/>
  <path d="M1137.77 110.568H1140.3L1140.01 115.111L1144.23 113.455L1145 115.824L1140.61 116.962L1143.5 120.481L1141.49 121.93L1139.04 118.112L1136.59 121.93L1134.57 120.481L1137.46 116.962L1133.07 115.824L1133.84 113.455L1138.06 115.111L1137.77 110.568Z" fill="#00aee5"/>
  <path d="M1151.1 110.568H1153.63L1153.34 115.111L1157.56 113.455L1158.34 115.824L1153.94 116.962L1156.83 120.481L1154.82 121.93L1152.37 118.112L1149.92 121.93L1147.9 120.481L1150.79 116.962L1146.4 115.824L1147.17 113.455L1151.39 115.111L1151.1 110.568Z" fill="#00aee5"/>
  <path d="M17.9655 132.568H20.4955L20.208 137.111L24.4285 135.455L25.199 137.824L20.806 138.962L23.6925 142.481L21.68 143.93L19.2305 140.112L16.781 143.93L14.7685 142.481L17.655 138.962L13.262 137.824L14.0325 135.455L18.253 137.111L17.9655 132.568Z" fill="#00aee5"/>
  <path d="M31.2965 132.568H33.8265L33.539 137.111L37.7595 135.455L38.53 137.824L34.137 138.962L37.0235 142.481L35.011 143.93L32.5615 140.112L30.112 143.93L28.0995 142.481L30.986 138.962L26.593 137.824L27.3635 135.455L31.584 137.111L31.2965 132.568Z" fill="#00aee5"/>
  <path d="M44.6275 132.568H47.1575L46.87 137.111L51.0905 135.455L51.861 137.824L47.468 138.962L50.3545 142.481L48.342 143.93L45.8925 140.112L43.443 143.93L41.4305 142.481L44.317 138.962L39.924 137.824L40.6945 135.455L44.915 137.111L44.6275 132.568Z" fill="#00aee5"/>
  <path d="M57.9586 132.568H60.4886L60.2011 137.111L64.4216 135.455L65.1921 137.824L60.7991 138.962L63.6856 142.481L61.6731 143.93L59.2236 140.112L56.7741 143.93L54.7616 142.481L57.6481 138.962L53.2551 137.824L54.0256 135.455L58.2461 137.111L57.9586 132.568Z" fill="#00aee5"/>
  <path d="M71.2896 132.568H73.8196L73.5321 137.111L77.7526 135.455L78.5231 137.824L74.1301 138.962L77.0166 142.481L75.0041 143.93L72.5546 140.112L70.1051 143.93L68.0926 142.481L70.9791 138.962L66.5861 137.824L67.3566 135.455L71.5771 137.111L71.2896 132.568Z" fill="#00aee5"/>
  <path d="M84.6206 132.568H87.1506L86.8631 137.111L91.0836 135.455L91.8541 137.824L87.4611 138.962L90.3476 142.481L88.3351 143.93L85.8856 140.112L83.4361 143.93L81.4236 142.481L84.3101 138.962L79.9171 137.824L80.6876 135.455L84.9081 137.111L84.6206 132.568Z" fill="#00aee5"/>
  <path d="M97.9516 132.568H100.482L100.194 137.111L104.415 135.455L105.185 137.824L100.792 138.962L103.679 142.481L101.666 143.93L99.2166 140.112L96.7671 143.93L94.7546 142.481L97.6411 138.962L93.2481 137.824L94.0186 135.455L98.2391 137.111L97.9516 132.568Z" fill="#00aee5"/>
  <path d="M111.283 132.568H113.813L113.525 137.111L117.746 135.455L118.516 137.824L114.123 138.962L117.01 142.481L114.997 143.93L112.548 140.112L110.098 143.93L108.086 142.481L110.972 138.962L106.579 137.824L107.35 135.455L111.57 137.111L111.283 132.568Z" fill="#00aee5"/>
  <path d="M136.038 148.45L133.991 147.53L143.766 127.324L145.79 128.279L136.038 148.45ZM147.538 148.45L145.491 147.53L155.266 127.324L157.29 128.279L147.538 148.45Z" fill="#00aee5"/>
  <path d="M164.607 132.568H167.137L166.849 137.111L171.07 135.455L171.84 137.824L167.447 138.962L170.334 142.481L168.321 143.93L165.872 140.112L163.422 143.93L161.41 142.481L164.296 138.962L159.903 137.824L160.674 135.455L164.894 137.111L164.607 132.568Z" fill="#00aee5"/>
  <path d="M177.938 132.568H180.468L180.18 137.111L184.401 135.455L185.171 137.824L180.778 138.962L183.665 142.481L181.652 143.93L179.203 140.112L176.753 143.93L174.741 142.481L177.627 138.962L173.234 137.824L174.005 135.455L178.225 137.111L177.938 132.568Z" fill="#00aee5"/>
  <path d="M191.269 132.568H193.799L193.511 137.111L197.732 135.455L198.502 137.824L194.109 138.962L196.996 142.481L194.983 143.93L192.534 140.112L190.084 143.93L188.072 142.481L190.958 138.962L186.565 137.824L187.336 135.455L191.556 137.111L191.269 132.568Z" fill="#00aee5"/>
  <path d="M204.6 132.568H207.13L206.842 137.111L211.063 135.455L211.833 137.824L207.44 138.962L210.327 142.481L208.314 143.93L205.865 140.112L203.415 143.93L201.403 142.481L204.289 138.962L199.896 137.824L200.667 135.455L204.887 137.111L204.6 132.568Z" fill="#00aee5"/>
  <path d="M217.931 132.568H220.461L220.173 137.111L224.394 135.455L225.164 137.824L220.771 138.962L223.658 142.481L221.645 143.93L219.196 140.112L216.746 143.93L214.734 142.481L217.62 138.962L213.227 137.824L213.998 135.455L218.218 137.111L217.931 132.568Z" fill="#00aee5"/>
  <path d="M231.262 132.568H233.792L233.504 137.111L237.725 135.455L238.495 137.824L234.102 138.962L236.989 142.481L234.976 143.93L232.527 140.112L230.077 143.93L228.065 142.481L230.951 138.962L226.558 137.824L227.329 135.455L231.549 137.111L231.262 132.568Z" fill="#00aee5"/>
  <path d="M242.686 148.45L240.639 147.53L250.414 127.324L252.438 128.279L242.686 148.45ZM254.186 148.45L252.139 147.53L261.914 127.324L263.938 128.279L254.186 148.45Z" fill="#00aee5"/>
  <path d="M271.255 132.568H273.785L273.497 137.111L277.718 135.455L278.488 137.824L274.095 138.962L276.982 142.481L274.969 143.93L272.52 140.112L270.07 143.93L268.058 142.481L270.944 138.962L266.551 137.824L267.322 135.455L271.542 137.111L271.255 132.568Z" fill="#00aee5"/>
  <path d="M284.586 132.568H287.116L286.828 137.111L291.049 135.455L291.819 137.824L287.426 138.962L290.313 142.481L288.3 143.93L285.851 140.112L283.401 143.93L281.389 142.481L284.275 138.962L279.882 137.824L280.653 135.455L284.873 137.111L284.586 132.568Z" fill="#00aee5"/>
  <path d="M297.917 132.568H300.447L300.159 137.111L304.38 135.455L305.15 137.824L300.757 138.962L303.644 142.481L301.631 143.93L299.182 140.112L296.732 143.93L294.72 142.481L297.606 138.962L293.213 137.824L293.984 135.455L298.204 137.111L297.917 132.568Z" fill="#00aee5"/>
  <path d="M311.248 132.568H313.778L313.49 137.111L317.711 135.455L318.481 137.824L314.088 138.962L316.975 142.481L314.962 143.93L312.513 140.112L310.063 143.93L308.051 142.481L310.937 138.962L306.544 137.824L307.315 135.455L311.535 137.111L311.248 132.568Z" fill="#00aee5"/>
  <path d="M324.579 132.568H327.109L326.821 137.111L331.042 135.455L331.812 137.824L327.419 138.962L330.306 142.481L328.293 143.93L325.844 140.112L323.394 143.93L321.382 142.481L324.268 138.962L319.875 137.824L320.646 135.455L324.866 137.111L324.579 132.568Z" fill="#00aee5"/>
  <path d="M349.334 148.45L347.287 147.53L357.062 127.324L359.086 128.279L349.334 148.45ZM360.834 148.45L358.787 147.53L368.562 127.324L370.586 128.279L360.834 148.45Z" fill="#00aee5"/>
  <path d="M377.903 132.568H380.433L380.145 137.111L384.366 135.455L385.136 137.824L380.743 138.962L383.63 142.481L381.617 143.93L379.168 140.112L376.718 143.93L374.706 142.481L377.592 138.962L373.199 137.824L373.97 135.455L378.19 137.111L377.903 132.568Z" fill="#00aee5"/>
  <path d="M391.234 132.568H393.764L393.476 137.111L397.697 135.455L398.467 137.824L394.074 138.962L396.961 142.481L394.948 143.93L392.499 140.112L390.049 143.93L388.037 142.481L390.923 138.962L386.53 137.824L387.301 135.455L391.521 137.111L391.234 132.568Z" fill="#00aee5"/>
  <path d="M404.565 132.568H407.095L406.807 137.111L411.028 135.455L411.798 137.824L407.405 138.962L410.292 142.481L408.279 143.93L405.83 140.112L403.38 143.93L401.368 142.481L404.254 138.962L399.861 137.824L400.632 135.455L404.852 137.111L404.565 132.568Z" fill="#00aee5"/>
  <path d="M417.896 132.568H420.426L420.138 137.111L424.359 135.455L425.129 137.824L420.736 138.962L423.623 142.481L421.61 143.93L419.161 140.112L416.711 143.93L414.699 142.481L417.585 138.962L413.192 137.824L413.963 135.455L418.183 137.111L417.896 132.568Z" fill="#00aee5"/>
  <path d="M431.227 132.568H433.757L433.47 137.111L437.69 135.455L438.461 137.824L434.068 138.962L436.954 142.481L434.941 143.93L432.492 140.112L430.043 143.93L428.03 142.481L430.917 138.962L426.523 137.824L427.294 135.455L431.514 137.111L431.227 132.568Z" fill="#00aee5"/>
  <path d="M444.558 132.568H447.088L446.801 137.111L451.021 135.455L451.792 137.824L447.399 138.962L450.285 142.481L448.273 143.93L445.823 140.112L443.374 143.93L441.361 142.481L444.248 138.962L439.855 137.824L440.625 135.455L444.846 137.111L444.558 132.568Z" fill="#00aee5"/>
  <path d="M455.302 148.45L453.255 147.53L463.03 127.324L465.054 128.279L455.302 148.45Z" fill="#00aee5"/>
  <path d="M471.22 132.568H473.75L473.463 137.111L477.683 135.455L478.454 137.824L474.061 138.962L476.947 142.481L474.935 143.93L472.485 140.112L470.036 143.93L468.023 142.481L470.91 138.962L466.517 137.824L467.287 135.455L471.508 137.111L471.22 132.568Z" fill="#00aee5"/>
  <path d="M484.551 132.568H487.081L486.794 137.111L491.014 135.455L491.785 137.824L487.392 138.962L490.278 142.481L488.266 143.93L485.816 140.112L483.367 143.93L481.354 142.481L484.241 138.962L479.848 137.824L480.618 135.455L484.839 137.111L484.551 132.568Z" fill="#00aee5"/>
  <path d="M497.882 132.568H500.412L500.125 137.111L504.345 135.455L505.116 137.824L500.723 138.962L503.609 142.481L501.597 143.93L499.147 140.112L496.698 143.93L494.685 142.481L497.572 138.962L493.179 137.824L493.949 135.455L498.17 137.111L497.882 132.568Z" fill="#00aee5"/>
  <path d="M548.619 148.45L546.572 147.53L556.347 127.324L558.371 128.279L548.619 148.45Z" fill="#00aee5"/>
  <path d="M564.537 132.568H567.067L566.78 137.111L571 135.455L571.771 137.824L567.378 138.962L570.264 142.481L568.252 143.93L565.802 140.112L563.353 143.93L561.34 142.481L564.227 138.962L559.834 137.824L560.604 135.455L564.825 137.111L564.537 132.568Z" fill="#00aee5"/>
  <path d="M577.868 132.568H580.398L580.111 137.111L584.331 135.455L585.102 137.824L580.709 138.962L583.595 142.481L581.583 143.93L579.133 140.112L576.684 143.93L574.671 142.481L577.558 138.962L573.165 137.824L573.935 135.455L578.156 137.111L577.868 132.568Z" fill="#00aee5"/>
  <path d="M615.955 148.45L613.908 147.53L623.683 127.324L625.707 128.279L615.955 148.45ZM627.455 148.45L625.408 147.53L635.183 127.324L637.207 128.279L627.455 148.45Z" fill="#00aee5"/>
  <path d="M644.523 132.568H647.053L646.766 137.111L650.986 135.455L651.757 137.824L647.364 138.962L650.25 142.481L648.238 143.93L645.788 140.112L643.339 143.93L641.326 142.481L644.213 138.962L639.82 137.824L640.59 135.455L644.811 137.111L644.523 132.568Z" fill="#00aee5"/>
  <path d="M657.854 132.568H660.384L660.097 137.111L664.317 135.455L665.088 137.824L660.695 138.962L663.581 142.481L661.569 143.93L659.119 140.112L656.67 143.93L654.657 142.481L657.544 138.962L653.151 137.824L653.921 135.455L658.142 137.111L657.854 132.568Z" fill="#00aee5"/>
  <path d="M711.284 132.568H713.814L713.527 137.111L717.747 135.455L718.518 137.824L714.125 138.962L717.011 142.481L714.999 143.93L712.549 140.112L710.1 143.93L708.087 142.481L710.974 138.962L706.581 137.824L707.351 135.455L711.572 137.111L711.284 132.568ZM723.934 132.568H726.464L726.177 137.111L730.397 135.455L731.168 137.824L726.775 138.962L729.661 142.481L727.649 143.93L725.199 140.112L722.75 143.93L720.737 142.481L723.624 138.962L719.231 137.824L720.001 135.455L724.222 137.111L723.934 132.568Z" fill="#00aee5"/>
  <path d="M801.908 148.45L799.861 147.53L809.636 127.324L811.66 128.279L801.908 148.45Z" fill="#00aee5"/>
  <path d="M817.826 132.568H820.356L820.069 137.111L824.289 135.455L825.06 137.824L820.667 138.962L823.553 142.481L821.541 143.93L819.091 140.112L816.642 143.93L814.629 142.481L817.516 138.962L813.123 137.824L813.893 135.455L818.114 137.111L817.826 132.568Z" fill="#00aee5"/>
  <path d="M831.157 132.568H833.687L833.4 137.111L837.62 135.455L838.391 137.824L833.998 138.962L836.884 142.481L834.872 143.93L832.422 140.112L829.973 143.93L827.96 142.481L830.847 138.962L826.454 137.824L827.224 135.455L831.445 137.111L831.157 132.568Z" fill="#00aee5"/>
  <path d="M844.489 132.568H847.018L846.731 137.111L850.951 135.455L851.722 137.824L847.329 138.962L850.216 142.481L848.203 143.93L845.753 140.112L843.304 143.93L841.292 142.481L844.178 138.962L839.785 137.824L840.555 135.455L844.776 137.111L844.489 132.568Z" fill="#00aee5"/>
  <path d="M857.82 132.568H860.349L860.062 137.111L864.282 135.455L865.053 137.824L860.66 138.962L863.547 142.481L861.534 143.93L859.084 140.112L856.635 143.93L854.622 142.481L857.509 138.962L853.116 137.824L853.886 135.455L858.107 137.111L857.82 132.568Z" fill="#00aee5"/>
  <path d="M871.151 132.568H873.68L873.393 137.111L877.613 135.455L878.384 137.824L873.991 138.962L876.878 142.481L874.865 143.93L872.415 140.112L869.966 143.93L867.953 142.481L870.84 138.962L866.447 137.824L867.217 135.455L871.438 137.111L871.151 132.568Z" fill="#00aee5"/>
  <path d="M884.482 132.568H887.012L886.724 137.111L890.945 135.455L891.715 137.824L887.322 138.962L890.209 142.481L888.196 143.93L885.747 140.112L883.297 143.93L881.285 142.481L884.171 138.962L879.778 137.824L880.549 135.455L884.769 137.111L884.482 132.568Z" fill="#00aee5"/>
  <path d="M897.813 132.568H900.343L900.055 137.111L904.276 135.455L905.046 137.824L900.653 138.962L903.54 142.481L901.527 143.93L899.078 140.112L896.628 143.93L894.616 142.481L897.502 138.962L893.109 137.824L893.88 135.455L898.1 137.111L897.813 132.568Z" fill="#00aee5"/>
  <path d="M911.144 132.568H913.674L913.386 137.111L917.607 135.455L918.377 137.824L913.984 138.962L916.871 142.481L914.858 143.93L912.409 140.112L909.959 143.93L907.947 142.481L910.833 138.962L906.44 137.824L907.211 135.455L911.431 137.111L911.144 132.568Z" fill="#00aee5"/>
  <path d="M922.568 148.45L920.521 147.53L930.296 127.324L932.32 128.279L922.568 148.45ZM934.068 148.45L932.021 147.53L941.796 127.324L943.82 128.279L934.068 148.45Z" fill="#00aee5"/>
  <path d="M951.137 132.568H953.667L953.379 137.111L957.6 135.455L958.37 137.824L953.977 138.962L956.864 142.481L954.851 143.93L952.402 140.112L949.952 143.93L947.94 142.481L950.826 138.962L946.433 137.824L947.204 135.455L951.424 137.111L951.137 132.568Z" fill="#00aee5"/>
  <path d="M964.468 132.568H966.998L966.71 137.111L970.931 135.455L971.701 137.824L967.308 138.962L970.195 142.481L968.182 143.93L965.733 140.112L963.283 143.93L961.271 142.481L964.157 138.962L959.764 137.824L960.535 135.455L964.755 137.111L964.468 132.568Z" fill="#00aee5"/>
  <path d="M977.799 132.568H980.329L980.041 137.111L984.262 135.455L985.032 137.824L980.639 138.962L983.526 142.481L981.513 143.93L979.064 140.112L976.614 143.93L974.602 142.481L977.488 138.962L973.095 137.824L973.866 135.455L978.086 137.111L977.799 132.568Z" fill="#00aee5"/>
  <path d="M991.13 132.568H993.66L993.372 137.111L997.593 135.455L998.363 137.824L993.97 138.962L996.857 142.481L994.844 143.93L992.395 140.112L989.945 143.93L987.933 142.481L990.819 138.962L986.426 137.824L987.197 135.455L991.417 137.111L991.13 132.568Z" fill="#00aee5"/>
  <path d="M1004.46 132.568H1006.99L1006.7 137.111L1010.92 135.455L1011.69 137.824L1007.3 138.962L1010.19 142.481L1008.18 143.93L1005.73 140.112L1003.28 143.93L1001.26 142.481L1004.15 138.962L999.757 137.824L1000.53 135.455L1004.75 137.111L1004.46 132.568Z" fill="#00aee5"/>
  <path d="M1017.79 132.568H1020.32L1020.03 137.111L1024.25 135.455L1025.03 137.824L1020.63 138.962L1023.52 142.481L1021.51 143.93L1019.06 140.112L1016.61 143.93L1014.59 142.481L1017.48 138.962L1013.09 137.824L1013.86 135.455L1018.08 137.111L1017.79 132.568Z" fill="#00aee5"/>
  <path d="M1031.12 132.568H1033.65L1033.37 137.111L1037.59 135.455L1038.36 137.824L1033.96 138.962L1036.85 142.481L1034.84 143.93L1032.39 140.112L1029.94 143.93L1027.93 142.481L1030.81 138.962L1026.42 137.824L1027.19 135.455L1031.41 137.111L1031.12 132.568Z" fill="#00aee5"/>
  <path d="M1044.45 132.568H1046.98L1046.7 137.111L1050.92 135.455L1051.69 137.824L1047.29 138.962L1050.18 142.481L1048.17 143.93L1045.72 140.112L1043.27 143.93L1041.26 142.481L1044.14 138.962L1039.75 137.824L1040.52 135.455L1044.74 137.111L1044.45 132.568Z" fill="#00aee5"/>
  <path d="M1055.2 148.45L1053.15 147.53L1062.93 127.324L1064.95 128.279L1055.2 148.45Z" fill="#00aee5"/>
  <path d="M1071.12 132.568H1073.65L1073.36 137.111L1077.58 135.455L1078.35 137.824L1073.96 138.962L1076.84 142.481L1074.83 143.93L1072.38 140.112L1069.93 143.93L1067.92 142.481L1070.81 138.962L1066.41 137.824L1067.18 135.455L1071.4 137.111L1071.12 132.568Z" fill="#00aee5"/>
  <path d="M1084.45 132.568H1086.98L1086.69 137.111L1090.91 135.455L1091.68 137.824L1087.29 138.962L1090.17 142.481L1088.16 143.93L1085.71 140.112L1083.26 143.93L1081.25 142.481L1084.14 138.962L1079.74 137.824L1080.51 135.455L1084.73 137.111L1084.45 132.568Z" fill="#00aee5"/>
  <path d="M1097.78 132.568H1100.31L1100.02 137.111L1104.24 135.455L1105.01 137.824L1100.62 138.962L1103.5 142.481L1101.49 143.93L1099.04 140.112L1096.59 143.93L1094.58 142.481L1097.47 138.962L1093.07 137.824L1093.84 135.455L1098.07 137.111L1097.78 132.568Z" fill="#00aee5"/>
  <path d="M1111.11 132.568H1113.64L1113.35 137.111L1117.57 135.455L1118.34 137.824L1113.95 138.962L1116.84 142.481L1114.82 143.93L1112.37 140.112L1109.92 143.93L1107.91 142.481L1110.8 138.962L1106.41 137.824L1107.18 135.455L1111.4 137.111L1111.11 132.568Z" fill="#00aee5"/>
  <path d="M1124.44 132.568H1126.97L1126.68 137.111L1130.9 135.455L1131.67 137.824L1127.28 138.962L1130.17 142.481L1128.15 143.93L1125.7 140.112L1123.26 143.93L1121.24 142.481L1124.13 138.962L1119.74 137.824L1120.51 135.455L1124.73 137.111L1124.44 132.568Z" fill="#00aee5"/>
  <path d="M1137.77 132.568H1140.3L1140.01 137.111L1144.23 135.455L1145 137.824L1140.61 138.962L1143.5 142.481L1141.49 143.93L1139.04 140.112L1136.59 143.93L1134.57 142.481L1137.46 138.962L1133.07 137.824L1133.84 135.455L1138.06 137.111L1137.77 132.568Z" fill="#00aee5"/>
  <path d="M2.047 170.45L0 169.53L9.775 149.324L11.799 150.279L2.047 170.45Z" fill="#00aee5"/>
  <path d="M15.378 170.45L13.331 169.53L23.106 149.324L25.13 150.279L15.378 170.45Z" fill="#00aee5"/>
  <path d="M28.709 170.45L26.662 169.53L36.437 149.324L38.461 150.279L28.709 170.45Z" fill="#00aee5"/>
  <path d="M42.04 170.45L39.993 169.53L49.768 149.324L51.792 150.279L42.04 170.45Z" fill="#00aee5"/>
  <path d="M55.3711 170.45L53.3241 169.53L63.0991 149.324L65.1231 150.279L55.3711 170.45Z" fill="#00aee5"/>
  <path d="M68.7021 170.45L66.6551 169.53L76.4301 149.324L78.4541 150.279L68.7021 170.45Z" fill="#00aee5"/>
  <path d="M82.0331 170.45L79.9861 169.53L89.7611 149.324L91.7851 150.279L82.0331 170.45Z" fill="#00aee5"/>
  <path d="M95.3641 170.45L93.3171 169.53L103.092 149.324L105.116 150.279L95.3641 170.45Z" fill="#00aee5"/>
  <path d="M148.688 170.45L146.641 169.53L156.416 149.324L158.44 150.279L148.688 170.45Z" fill="#00aee5"/>
  <path d="M162.019 170.45L159.972 169.53L169.747 149.324L171.771 150.279L162.019 170.45Z" fill="#00aee5"/>
  <path d="M175.35 170.45L173.303 169.53L183.078 149.324L185.102 150.279L175.35 170.45Z" fill="#00aee5"/>
  <path d="M188.681 170.45L186.634 169.53L196.409 149.324L198.433 150.279L188.681 170.45Z" fill="#00aee5"/>
  <path d="M202.012 170.45L199.965 169.53L209.74 149.324L211.764 150.279L202.012 170.45Z" fill="#00aee5"/>
  <path d="M215.343 170.45L213.296 169.53L223.071 149.324L225.095 150.279L215.343 170.45Z" fill="#00aee5"/>
  <path d="M255.336 170.45L253.289 169.53L263.064 149.324L265.088 150.279L255.336 170.45Z" fill="#00aee5"/>
  <path d="M268.667 170.45L266.62 169.53L276.395 149.324L278.419 150.279L268.667 170.45Z" fill="#00aee5"/>
  <path d="M281.998 170.45L279.951 169.53L289.726 149.324L291.75 150.279L281.998 170.45Z" fill="#00aee5"/>
  <path d="M295.329 170.45L293.282 169.53L303.057 149.324L305.081 150.279L295.329 170.45Z" fill="#00aee5"/>
  <path d="M308.66 170.45L306.613 169.53L316.388 149.324L318.412 150.279L308.66 170.45Z" fill="#00aee5"/>
  <path d="M361.984 170.45L359.937 169.53L369.712 149.324L371.736 150.279L361.984 170.45Z" fill="#00aee5"/>
  <path d="M375.315 170.45L373.268 169.53L383.043 149.324L385.067 150.279L375.315 170.45Z" fill="#00aee5"/>
  <path d="M388.646 170.45L386.599 169.53L396.374 149.324L398.398 150.279L388.646 170.45Z" fill="#00aee5"/>
  <path d="M401.977 170.45L399.93 169.53L409.705 149.324L411.729 150.279L401.977 170.45Z" fill="#00aee5"/>
  <path d="M415.308 170.45L413.261 169.53L423.036 149.324L425.06 150.279L415.308 170.45Z" fill="#00aee5"/>
  <path d="M428.639 170.45L426.592 169.53L436.367 149.324L438.392 150.279L428.639 170.45Z" fill="#00aee5"/>
  <path d="M479.664 170.45L477.617 169.53L487.392 149.324L489.416 150.279L479.664 170.45ZM456.664 170.45L454.617 169.53L464.392 149.324L466.416 150.279L456.664 170.45ZM468.164 170.45L466.117 169.53L475.892 149.324L477.916 150.279L468.164 170.45Z" fill="#00aee5"/>
  <path d="M549.3 170.45L547.253 169.53L557.028 149.324L559.052 150.279L549.3 170.45ZM560.8 170.45L558.753 169.53L568.528 149.324L570.552 150.279L560.8 170.45Z" fill="#00aee5"/>
  <path d="M629.286 170.45L627.239 169.53L637.014 149.324L639.038 150.279L629.286 170.45ZM640.786 170.45L638.739 169.53L648.514 149.324L650.538 150.279L640.786 170.45Z" fill="#00aee5"/>
  <path d="M695.941 170.45L693.894 169.53L703.669 149.324L705.693 150.279L695.941 170.45ZM707.441 170.45L705.394 169.53L715.169 149.324L717.193 150.279L707.441 170.45Z" fill="#00aee5"/>
  <path d="M801.908 170.45L799.861 169.53L809.636 149.324L811.66 150.279L801.908 170.45Z" fill="#00aee5"/>
  <path d="M815.239 170.45L813.192 169.53L822.967 149.324L824.991 150.279L815.239 170.45Z" fill="#00aee5"/>
  <path d="M828.57 170.45L826.523 169.53L836.298 149.324L838.322 150.279L828.57 170.45Z" fill="#00aee5"/>
  <path d="M841.901 170.45L839.854 169.53L849.629 149.324L851.653 150.279L841.901 170.45Z" fill="#00aee5"/>
  <path d="M855.232 170.45L853.185 169.53L862.96 149.324L864.984 150.279L855.232 170.45Z" fill="#00aee5"/>
  <path d="M868.563 170.45L866.516 169.53L876.291 149.324L878.315 150.279L868.563 170.45Z" fill="#00aee5"/>
  <path d="M881.894 170.45L879.847 169.53L889.622 149.324L891.646 150.279L881.894 170.45Z" fill="#00aee5"/>
  <path d="M895.225 170.45L893.178 169.53L902.953 149.324L904.977 150.279L895.225 170.45Z" fill="#00aee5"/>
  <path d="M935.218 170.45L933.171 169.53L942.946 149.324L944.97 150.279L935.218 170.45Z" fill="#00aee5"/>
  <path d="M948.549 170.45L946.502 169.53L956.277 149.324L958.301 150.279L948.549 170.45Z" fill="#00aee5"/>
  <path d="M961.88 170.45L959.833 169.53L969.608 149.324L971.632 150.279L961.88 170.45Z" fill="#00aee5"/>
  <path d="M975.211 170.45L973.164 169.53L982.939 149.324L984.963 150.279L975.211 170.45Z" fill="#00aee5"/>
  <path d="M988.542 170.45L986.495 169.53L996.27 149.324L998.294 150.279L988.542 170.45Z" fill="#00aee5"/>
  <path d="M1001.87 170.45L999.826 169.53L1009.6 149.324L1011.63 150.279L1001.87 170.45Z" fill="#00aee5"/>
  <path d="M1015.2 170.45L1013.16 169.53L1022.93 149.324L1024.96 150.279L1015.2 170.45Z" fill="#00aee5"/>
  <path d="M1028.54 170.45L1026.49 169.53L1036.26 149.324L1038.29 150.279L1028.54 170.45Z" fill="#00aee5"/>
  <path d="M1055.2 170.45L1053.15 169.53L1062.93 149.324L1064.95 150.279L1055.2 170.45Z" fill="#00aee5"/>
  <path d="M1068.53 170.45L1066.48 169.53L1076.26 149.324L1078.28 150.279L1068.53 170.45Z" fill="#00aee5"/>
  <path d="M1081.86 170.45L1079.81 169.53L1089.59 149.324L1091.61 150.279L1081.86 170.45Z" fill="#00aee5"/>
  <path d="M1095.19 170.45L1093.14 169.53L1102.92 149.324L1104.94 150.279L1095.19 170.45Z" fill="#00aee5"/>
  <path d="M1108.52 170.45L1106.47 169.53L1116.25 149.324L1118.27 150.279L1108.52 170.45Z" fill="#00aee5"/>
</svg>
