<svg width="232" height="8" viewBox="0 0 232 8" fill="none" xmlns="http://www.w3.org/2000/svg">
<path d="M4.056 1.454V3.848H6.414V4.694H4.056V7.07H3.114V4.694H0.786V3.848H3.114V1.454H4.056ZM12.4093 3.794V4.706H7.98131V3.794H12.4093ZM19.0046 3.794V4.706H14.5766V3.794H19.0046ZM25.5999 3.794V4.706H21.1719V3.794H25.5999ZM32.1953 3.794V4.706H27.7673V3.794H32.1953ZM38.7906 3.794V4.706H34.3626V3.794H38.7906ZM45.3859 3.794V4.706H40.9579V3.794H45.3859ZM51.9812 3.794V4.706H47.5532V3.794H51.9812ZM58.5765 3.794V4.706H54.1485V3.794H58.5765ZM65.1718 3.794V4.706H60.7438V3.794H65.1718ZM71.7671 3.794V4.706H67.3391V3.794H71.7671ZM78.3624 3.794V4.706H73.9344V3.794H78.3624ZM84.9578 3.794V4.706H80.5298V3.794H84.9578ZM91.5531 3.794V4.706H87.1251V3.794H91.5531ZM98.1484 3.794V4.706H93.7204V3.794H98.1484ZM104.744 3.794V4.706H100.316V3.794H104.744ZM111.339 3.794V4.706H106.911V3.794H111.339ZM117.934 3.794V4.706H113.506V3.794H117.934ZM124.53 3.794V4.706H120.102V3.794H124.53ZM131.125 3.794V4.706H126.697V3.794H131.125ZM137.72 3.794V4.706H133.292V3.794H137.72ZM144.316 3.794V4.706H139.888V3.794H144.316ZM150.911 3.794V4.706H146.483V3.794H150.911ZM157.506 3.794V4.706H153.078V3.794H157.506ZM164.102 3.794V4.706H159.674V3.794H164.102ZM170.697 3.794V4.706H166.269V3.794H170.697ZM177.292 3.794V4.706H172.864V3.794H177.292ZM183.887 3.794V4.706H179.459V3.794H183.887ZM190.483 3.794V4.706H186.055V3.794H190.483ZM197.078 3.794V4.706H192.65V3.794H197.078ZM203.673 3.794V4.706H199.245V3.794H203.673ZM210.269 3.794V4.706H205.841V3.794H210.269ZM216.864 3.794V4.706H212.436V3.794H216.864ZM223.459 3.794V4.706H219.031V3.794H223.459Z" fill="#00AEE5"/>
<path d="M228.056 1.454V3.848H230.414V4.694H228.056V7.07H227.114V4.694H224.786V3.848H227.114V1.454H228.056Z" fill="#00AEE5"/>
</svg>
