<svg id="logo" viewBox="0 0 251 32" fill="none" xmlns="http://www.w3.org/2000/svg">
  <path d="M162.841 27.4194H179.364V31.2151H162.841V27.4194Z" fill="#0b1823"/>
  <path d="M192.126 3.07324V22.2953H197.002V26.0639H182.998V22.2953H187.901V6.84175H182.998V3.07324H192.126Z" fill="#0b1823"/>
  <path d="M200.041 15.409C200.203 13.4028 200.971 11.8212 202.343 10.6645C203.733 9.50772 205.548 8.92934 207.787 8.92934C210.08 8.92934 211.832 9.47157 213.042 10.556C214.252 11.6224 214.857 13.1587 214.857 15.165V26.0639H210.74V24.4372H209.764C209.078 25.7927 207.796 26.4705 205.918 26.4705C204.907 26.4705 204.013 26.2717 203.237 25.8741C202.46 25.4584 201.855 24.889 201.422 24.166C201.007 23.425 200.799 22.5845 200.799 21.6447C200.799 20.1987 201.251 19.0239 202.153 18.1202C203.056 17.1984 204.356 16.611 206.054 16.3579L210.74 15.6259V15.4903C210.74 14.5505 210.487 13.8365 209.981 13.3485C209.476 12.8605 208.735 12.6165 207.76 12.6165C206.749 12.6165 205.927 12.8605 205.295 13.3485C204.663 13.8185 204.266 14.5053 204.104 15.409H200.041ZM205.079 21.238C205.079 21.7622 205.25 22.1779 205.593 22.4851C205.954 22.7924 206.46 22.946 207.11 22.946C207.76 22.946 208.365 22.8014 208.925 22.5122C209.485 22.205 209.927 21.7983 210.252 21.2922C210.577 20.7861 210.74 20.2349 210.74 19.6384V18.8251L206.948 19.3944C206.352 19.4667 205.891 19.6746 205.566 20.018C205.241 20.3433 205.079 20.75 205.079 21.238Z" fill="#0b1823"/>
  <path d="M228.107 26.4976C227.276 26.4976 226.527 26.3169 225.859 25.9554C225.191 25.5939 224.694 25.1059 224.369 24.4914H223.367V26.0639H219.141V3.07324H223.367V10.9898H224.369C224.694 10.3753 225.191 9.89632 225.859 9.55291C226.527 9.19142 227.276 9.01068 228.107 9.01068C229.443 9.01068 230.608 9.36313 231.601 10.068C232.612 10.7729 233.389 11.7851 233.93 13.1045C234.472 14.424 234.743 15.9693 234.743 17.7406C234.743 19.5119 234.472 21.0573 233.93 22.3767C233.389 23.6961 232.612 24.7173 231.601 25.4403C230.608 26.1452 229.443 26.4976 228.107 26.4976ZM223.123 17.7406C223.123 19.3312 223.448 20.5602 224.098 21.4278C224.766 22.2953 225.696 22.7291 226.888 22.7291C228.08 22.7291 229.001 22.2953 229.651 21.4278C230.319 20.5421 230.653 19.3131 230.653 17.7406C230.653 16.1681 230.319 14.9481 229.651 14.0805C228.983 13.213 228.062 12.7792 226.888 12.7792C225.696 12.7792 224.766 13.213 224.098 14.0805C223.448 14.9481 223.123 16.1681 223.123 17.7406Z" fill="#0b1823"/>
  <path d="M0 27.4186H16.5223V31.2142H0V27.4186Z" fill="#01aee5"/>
  <path d="M23.7053 20.8847C24.211 22.2402 25.3034 22.918 26.9827 22.918C27.8856 22.918 28.5808 22.7825 29.0683 22.5114C29.5559 22.2222 29.7997 21.8155 29.7997 21.2913C29.7997 20.4599 29.0864 19.9629 27.6599 19.8002L25.3034 19.5291C23.4255 19.2941 22.0351 18.7609 21.1322 17.9295C20.2293 17.0981 19.7779 15.9323 19.7779 14.4321C19.7779 12.7151 20.4009 11.3685 21.6468 10.3925C22.8928 9.41648 24.6172 8.92847 26.8202 8.92847C29.1496 8.92847 30.9463 9.44359 32.2103 10.4738C33.4923 11.486 34.1785 12.9681 34.2688 14.9201H30.3414C29.9261 13.3657 28.7433 12.5885 26.7931 12.5885C25.8361 12.5885 25.1048 12.7331 24.5992 13.0223C24.0936 13.3115 23.8408 13.7182 23.8408 14.2423C23.8408 14.658 24.0123 14.9924 24.3554 15.2455C24.6985 15.4804 25.2312 15.6431 25.9535 15.7335L28.337 16.0046C30.215 16.2215 31.6054 16.7456 32.5082 17.5771C33.4111 18.4085 33.8625 19.5743 33.8625 21.0745C33.8625 22.7915 33.2486 24.1381 32.0207 25.1141C30.8109 26.0901 29.1315 26.5781 26.9827 26.5781C24.7436 26.5781 23.0101 26.0991 21.7823 25.1412C20.5544 24.1652 19.8682 22.7463 19.7237 20.8847H23.7053Z" fill="#01aee5"/>
  <path d="M37.6598 17.6584C37.6598 15.8871 37.9758 14.3508 38.6078 13.0494C39.2398 11.73 40.1337 10.7178 41.2893 10.0129C42.463 9.28996 43.8263 8.92847 45.3793 8.92847C47.6545 8.92847 49.4241 9.68759 50.6881 11.2058C51.9701 12.7241 52.6112 14.8569 52.6112 17.6042C52.6112 18.0199 52.5751 18.5169 52.5028 19.0953H41.8039C42.1109 21.6438 43.3388 22.918 45.4876 22.918C46.9502 22.918 48.0969 22.2402 48.9275 20.8847H52.9904C52.4667 22.6921 51.5368 24.0929 50.2005 25.087C48.8824 26.0811 47.2843 26.5781 45.4063 26.5781C42.9686 26.5781 41.0636 25.8009 39.6913 24.2465C38.337 22.674 37.6598 20.478 37.6598 17.6584ZM48.765 16.0046C48.44 13.7272 47.3114 12.5885 45.3793 12.5885C44.4042 12.5885 43.6187 12.8868 43.0228 13.4832C42.445 14.0616 42.0567 14.9021 41.8581 16.0046H48.765Z" fill="#01aee5"/>
  <path d="M63.9925 26.5781C62.4035 26.5781 61.0131 26.2257 59.8213 25.5208C58.6295 24.7978 57.7086 23.7766 57.0585 22.4571C56.4265 21.1377 56.1105 19.5924 56.1105 17.8211C56.1105 16.0136 56.4356 14.4412 57.0856 13.1037C57.7357 11.7661 58.6656 10.7359 59.8755 10.0129C61.0853 9.28996 62.5028 8.92847 64.1279 8.92847C65.5725 8.92847 66.8455 9.2267 67.947 9.82315C69.0485 10.4196 69.9062 11.2691 70.5202 12.3716C71.1522 13.4742 71.4952 14.7575 71.5494 16.2215H67.7303C67.4956 15.1009 67.0622 14.2333 66.4302 13.6188C65.7982 13.0042 65.0218 12.697 64.1008 12.697C62.8729 12.697 61.9159 13.1488 61.2297 14.0526C60.5436 14.9563 60.2005 16.2124 60.2005 17.8211C60.2005 19.3935 60.5255 20.6136 61.1756 21.4811C61.8437 22.3487 62.7736 22.7825 63.9654 22.7825C64.796 22.7825 65.5093 22.5294 66.1052 22.0234C66.7011 21.4992 67.1254 20.7672 67.3782 19.8273H71.1973C71.089 21.1829 70.7188 22.3758 70.0868 23.406C69.4548 24.4182 68.6151 25.2045 67.5678 25.7648C66.5205 26.307 65.3287 26.5781 63.9925 26.5781Z" fill="#01aee5"/>
  <path d="M88.9709 26.063H84.7455V24.5718H83.7433C83.3822 25.2045 82.8675 25.7015 82.1994 26.063C81.5494 26.4064 80.809 26.5781 79.9784 26.5781C78.3171 26.5781 77.017 25.9997 76.078 24.843C75.1571 23.6862 74.6967 22.0776 74.6967 20.0171V9.44359H78.9221V18.9597C78.9221 20.1707 79.1658 21.0835 79.6534 21.698C80.1409 22.3125 80.8632 22.6198 81.8202 22.6198C82.7773 22.6198 83.4995 22.3125 83.9871 21.698C84.4927 21.0835 84.7455 20.1707 84.7455 18.9597V9.44359H88.9709V26.063Z" fill="#01aee5"/>
  <path d="M100.135 9.44359V10.9076H101.138C101.427 10.2931 101.869 9.81411 102.465 9.4707C103.079 9.12729 103.765 8.95558 104.523 8.95558C105.842 8.95558 106.844 9.45263 107.53 10.4467C108.216 11.4408 108.559 12.8958 108.559 14.8117V17.4415H104.253V15.3539C104.253 13.7995 103.666 13.0223 102.492 13.0223C101.77 13.0223 101.228 13.3567 100.867 14.0254C100.506 14.6942 100.325 15.7154 100.325 17.0891V22.2945H105.065V26.063H93.4182V22.2945H96.2351V13.2121H93.0661V9.44359H100.135Z" fill="#01aee5"/>
  <path d="M121.864 9.44359V22.2945H126.766V26.063H112.736V22.2945H117.638V13.2121H112.736V9.44359H121.864ZM119.534 7.41022C118.667 7.41022 117.999 7.19333 117.53 6.75954C117.06 6.30768 116.826 5.67508 116.826 4.86173C116.826 4.03031 117.06 3.39771 117.53 2.96392C117.999 2.51206 118.667 2.28613 119.534 2.28613C120.401 2.28613 121.069 2.51206 121.539 2.96392C122.008 3.39771 122.243 4.03031 122.243 4.86173C122.243 5.67508 122.008 6.30768 121.539 6.75954C121.069 7.19333 120.401 7.41022 119.534 7.41022Z" fill="#01aee5"/>
  <path d="M135.056 9.44359H142.342V13.2121H135.056V20.3153C135.056 21.1287 135.209 21.7432 135.516 22.1589C135.823 22.5746 136.266 22.7825 136.844 22.7825C137.458 22.7825 137.945 22.5385 138.306 22.0505C138.667 21.5625 138.956 20.7672 139.173 19.6647H142.911C142.803 21.9059 142.216 23.6229 141.15 24.8159C140.085 25.9907 138.613 26.5781 136.735 26.5781C134.839 26.5781 133.377 26.0449 132.347 24.9785C131.336 23.8941 130.831 22.3487 130.831 20.3424V13.2121H127.662V9.44359H130.831V5.13285H135.056V9.44359Z" fill="#01aee5"/>
  <path d="M149.796 9.44359L153.615 21.4269H154.644L157.976 9.44359H161.985L156.811 27.8523C156.396 29.2079 155.755 30.2382 154.888 30.9431C154.039 31.648 152.983 32.0004 151.719 32.0004C150.148 32.0004 148.911 31.5666 148.008 30.6991C147.123 29.8315 146.6 28.5663 146.437 26.9034H150.148C150.347 27.4457 150.554 27.8252 150.771 28.0421C151.006 28.2771 151.313 28.3946 151.692 28.3946C152.035 28.3946 152.315 28.2681 152.532 28.015C152.766 27.7801 152.974 27.3824 153.155 26.8221L153.75 24.7074H150.473L145.462 9.44359H149.796Z" fill="#01aee5"/>
  <rect opacity="0.3" x="236.571" width="13.7143" height="27.4286" rx="2" fill="#00cae5"/>
</svg>
