<svg width="606" height="112" viewBox="0 0 606 112" fill="none" xmlns="http://www.w3.org/2000/svg">
<path d="M5.676 15.658C4.76667 15.5993 3.98933 15.4013 3.344 15.064C2.71333 14.712 2.18533 14.2573 1.76 13.7C1.34933 13.128 1.04867 12.4753 0.858 11.742C0.667333 10.994 0.572 10.1947 0.572 9.344C0.572 8.49333 0.667333 7.70133 0.858 6.968C1.04867 6.22 1.34933 5.56733 1.76 5.01C2.18533 4.438 2.71333 3.98333 3.344 3.646C3.98933 3.294 4.76667 3.08867 5.676 3.03V1.05H7.524V3.03C8.41867 3.08867 9.18867 3.294 9.834 3.646C10.4793 3.98333 11.0073 4.438 11.418 5.01C11.8433 5.56733 12.1513 6.22 12.342 6.968C12.5327 7.70133 12.628 8.49333 12.628 9.344C12.628 10.1947 12.5327 10.994 12.342 11.742C12.1513 12.4753 11.8433 13.128 11.418 13.7C11.0073 14.2573 10.4793 14.712 9.834 15.064C9.18867 15.4013 8.41867 15.5993 7.524 15.658V17.638H5.676V15.658ZM5.72 4.592C4.56133 4.70933 3.73267 5.12 3.234 5.824C2.73533 6.51333 2.486 7.386 2.486 8.442V10.246C2.486 11.302 2.73533 12.182 3.234 12.886C3.73267 13.5753 4.56133 13.9787 5.72 14.096V4.592ZM7.48 14.096C8.63867 13.9787 9.46733 13.5753 9.966 12.886C10.4647 12.182 10.714 11.302 10.714 10.246V8.442C10.714 7.386 10.4647 6.51333 9.966 5.824C9.46733 5.12 8.63867 4.70933 7.48 4.592V14.096ZM24.0814 17C23.3921 17 22.9007 16.824 22.6074 16.472C22.3141 16.12 22.1307 15.68 22.0574 15.152H21.9474C21.6981 15.812 21.2947 16.3327 20.7374 16.714C20.1947 17.0807 19.4614 17.264 18.5374 17.264C17.3494 17.264 16.4034 16.956 15.6994 16.34C14.9954 15.724 14.6434 14.8807 14.6434 13.81C14.6434 12.754 15.0247 11.94 15.7874 11.368C16.5647 10.796 17.8114 10.51 19.5274 10.51H21.9474V9.388C21.9474 8.552 21.7127 7.92867 21.2434 7.518C20.7741 7.09267 20.1067 6.88 19.2414 6.88C18.4787 6.88 17.8554 7.034 17.3714 7.342C16.8874 7.63533 16.4987 8.03867 16.2054 8.552L15.0174 7.672C15.1641 7.37867 15.3621 7.09267 15.6114 6.814C15.8607 6.53533 16.1687 6.29333 16.5354 6.088C16.9021 5.868 17.3201 5.69933 17.7894 5.582C18.2587 5.45 18.7794 5.384 19.3514 5.384C20.6861 5.384 21.7421 5.72133 22.5194 6.396C23.3114 7.07067 23.7074 8.00933 23.7074 9.212V15.46H25.2914V17H24.0814ZM18.8454 15.79C19.3001 15.79 19.7107 15.7387 20.0774 15.636C20.4587 15.5187 20.7887 15.372 21.0674 15.196C21.3461 15.0053 21.5587 14.7853 21.7054 14.536C21.8667 14.272 21.9474 13.9933 21.9474 13.7V11.83H19.5274C18.4714 11.83 17.7014 11.9767 17.2174 12.27C16.7334 12.5633 16.4914 12.9887 16.4914 13.546V14.008C16.4914 14.5947 16.6967 15.042 17.1074 15.35C17.5327 15.6433 18.1121 15.79 18.8454 15.79ZM28.4728 5.648H30.2328V11.434L30.0568 14.338H30.1448L35.8428 5.648H37.4928V17H35.7328V11.214L35.9088 8.31H35.8208L30.1228 17H28.4728V5.648ZM32.9168 3.91C32.1688 3.91 31.5601 3.74867 31.0908 3.426C30.6215 3.08867 30.2108 2.568 29.8588 1.864L29.2428 0.609999L30.8268 0.104L31.7068 2.436C31.8681 2.49467 32.0661 2.53133 32.3008 2.546C32.5355 2.56067 32.7408 2.568 32.9168 2.568C33.0928 2.568 33.2981 2.56067 33.5328 2.546C33.7675 2.53133 33.9655 2.49467 34.1268 2.436L35.0068 0.104L36.5908 0.609999L35.9748 1.864C35.6228 2.568 35.2121 3.08867 34.7428 3.426C34.2735 3.74867 33.6648 3.91 32.9168 3.91ZM40.1462 15.504H41.5542C41.7742 15.2253 41.9649 14.8953 42.1262 14.514C42.3022 14.1327 42.4416 13.678 42.5442 13.15C42.6616 12.622 42.7496 12.0133 42.8082 11.324C42.8669 10.62 42.8962 9.806 42.8962 8.882V5.648H50.4422V17H48.6822V7.144H44.6122V8.926C44.6122 10.9793 44.4582 12.5927 44.1502 13.766C43.8569 14.9247 43.4609 15.7533 42.9622 16.252C42.6836 16.5307 42.3756 16.7287 42.0382 16.846C41.7009 16.9487 41.2976 17 40.8282 17H40.1462V15.504ZM53.9536 5.648H55.7136V9.762H57.6276C58.7716 9.762 59.681 10.0847 60.3556 10.73C61.0303 11.3753 61.3676 12.2627 61.3676 13.392C61.3676 14.536 61.0376 15.4233 60.3776 16.054C59.7176 16.6847 58.8083 17 57.6496 17H53.9536V5.648ZM57.3856 15.504C58.0456 15.504 58.559 15.372 58.9256 15.108C59.307 14.844 59.4976 14.4187 59.4976 13.832V12.908C59.4976 12.3213 59.307 11.9033 58.9256 11.654C58.559 11.39 58.0456 11.258 57.3856 11.258H55.7136V15.504H57.3856ZM63.0176 5.648H64.7776V17H63.0176V5.648ZM85.7484 11.83C85.1471 11.83 84.7218 11.7053 84.4724 11.456C84.2378 11.2067 84.1204 10.8913 84.1204 10.51V10.114C84.1204 9.73267 84.2378 9.41733 84.4724 9.168C84.7218 8.91867 85.1471 8.794 85.7484 8.794C86.3498 8.794 86.7678 8.91867 87.0024 9.168C87.2518 9.41733 87.3764 9.73267 87.3764 10.114V10.51C87.3764 10.8913 87.2518 11.2067 87.0024 11.456C86.7678 11.7053 86.3498 11.83 85.7484 11.83ZM107.357 1.644H116.905V17H115.057V3.25H109.205V17H107.357V1.644ZM125.521 17.264C124.699 17.264 123.959 17.1247 123.299 16.846C122.653 16.5673 122.096 16.1713 121.627 15.658C121.172 15.13 120.82 14.5067 120.571 13.788C120.321 13.0547 120.197 12.2407 120.197 11.346C120.197 10.4367 120.321 9.61533 120.571 8.882C120.835 8.14867 121.194 7.52533 121.649 7.012C122.103 6.484 122.646 6.08067 123.277 5.802C123.922 5.52333 124.633 5.384 125.411 5.384C126.173 5.384 126.863 5.52333 127.479 5.802C128.109 6.08067 128.645 6.46933 129.085 6.968C129.525 7.452 129.862 8.03133 130.097 8.706C130.331 9.38067 130.449 10.1213 130.449 10.928V11.764H122.045V12.292C122.045 12.7907 122.125 13.2527 122.287 13.678C122.448 14.1033 122.675 14.47 122.969 14.778C123.277 15.086 123.643 15.328 124.069 15.504C124.509 15.6653 124.993 15.746 125.521 15.746C126.283 15.746 126.943 15.57 127.501 15.218C128.058 14.866 128.483 14.382 128.777 13.766L130.075 14.646C129.737 15.4087 129.173 16.0393 128.381 16.538C127.603 17.022 126.65 17.264 125.521 17.264ZM125.411 6.836C124.927 6.836 124.479 6.924 124.069 7.1C123.658 7.276 123.299 7.518 122.991 7.826C122.697 8.134 122.463 8.50067 122.287 8.926C122.125 9.33667 122.045 9.79133 122.045 10.29V10.444H128.557V10.202C128.557 9.70333 128.476 9.24867 128.315 8.838C128.168 8.42733 127.955 8.07533 127.677 7.782C127.413 7.474 127.083 7.23933 126.687 7.078C126.305 6.91667 125.88 6.836 125.411 6.836ZM134.004 5.648H135.764V7.496H135.852C136.585 6.088 137.751 5.384 139.35 5.384C140.743 5.384 141.829 5.90467 142.606 6.946C143.398 7.98733 143.794 9.44667 143.794 11.324C143.794 13.2013 143.398 14.6607 142.606 15.702C141.829 16.7433 140.743 17.264 139.35 17.264C137.751 17.264 136.585 16.56 135.852 15.152H135.764V21.4H134.004V5.648ZM138.668 15.702C139.695 15.702 140.487 15.394 141.044 14.778C141.616 14.1473 141.902 13.3187 141.902 12.292V10.356C141.902 9.32933 141.616 8.508 141.044 7.892C140.487 7.26133 139.695 6.946 138.668 6.946C138.272 6.946 137.898 6.99733 137.546 7.1C137.194 7.20267 136.886 7.35667 136.622 7.562C136.358 7.75267 136.145 7.99467 135.984 8.288C135.837 8.56667 135.764 8.89667 135.764 9.278V13.37C135.764 13.7513 135.837 14.0887 135.984 14.382C136.145 14.6607 136.358 14.9027 136.622 15.108C136.886 15.2987 137.194 15.4453 137.546 15.548C137.898 15.6507 138.272 15.702 138.668 15.702ZM151.903 17.264C151.082 17.264 150.341 17.1247 149.681 16.846C149.036 16.5673 148.479 16.1713 148.009 15.658C147.555 15.13 147.203 14.5067 146.953 13.788C146.704 13.0547 146.579 12.2407 146.579 11.346C146.579 10.4367 146.704 9.61533 146.953 8.882C147.217 8.14867 147.577 7.52533 148.031 7.012C148.486 6.484 149.029 6.08067 149.659 5.802C150.305 5.52333 151.016 5.384 151.793 5.384C152.556 5.384 153.245 5.52333 153.861 5.802C154.492 6.08067 155.027 6.46933 155.467 6.968C155.907 7.452 156.245 8.03133 156.479 8.706C156.714 9.38067 156.831 10.1213 156.831 10.928V11.764H148.427V12.292C148.427 12.7907 148.508 13.2527 148.669 13.678C148.831 14.1033 149.058 14.47 149.351 14.778C149.659 15.086 150.026 15.328 150.451 15.504C150.891 15.6653 151.375 15.746 151.903 15.746C152.666 15.746 153.326 15.57 153.883 15.218C154.441 14.866 154.866 14.382 155.159 13.766L156.457 14.646C156.12 15.4087 155.555 16.0393 154.763 16.538C153.986 17.022 153.033 17.264 151.903 17.264ZM151.793 6.836C151.309 6.836 150.862 6.924 150.451 7.1C150.041 7.276 149.681 7.518 149.373 7.826C149.08 8.134 148.845 8.50067 148.669 8.926C148.508 9.33667 148.427 9.79133 148.427 10.29V10.444H154.939V10.202C154.939 9.70333 154.859 9.24867 154.697 8.838C154.551 8.42733 154.338 8.07533 154.059 7.782C153.795 7.474 153.465 7.23933 153.069 7.078C152.688 6.91667 152.263 6.836 151.793 6.836ZM164.017 7.144H159.837V5.648H169.957V7.144H165.777V17H164.017V7.144ZM182.378 17C181.689 17 181.198 16.824 180.904 16.472C180.611 16.12 180.428 15.68 180.354 15.152H180.244C179.995 15.812 179.592 16.3327 179.034 16.714C178.492 17.0807 177.758 17.264 176.834 17.264C175.646 17.264 174.7 16.956 173.996 16.34C173.292 15.724 172.94 14.8807 172.94 13.81C172.94 12.754 173.322 11.94 174.084 11.368C174.862 10.796 176.108 10.51 177.824 10.51H180.244V9.388C180.244 8.552 180.01 7.92867 179.54 7.518C179.071 7.09267 178.404 6.88 177.538 6.88C176.776 6.88 176.152 7.034 175.668 7.342C175.184 7.63533 174.796 8.03867 174.502 8.552L173.314 7.672C173.461 7.37867 173.659 7.09267 173.908 6.814C174.158 6.53533 174.466 6.29333 174.832 6.088C175.199 5.868 175.617 5.69933 176.086 5.582C176.556 5.45 177.076 5.384 177.648 5.384C178.983 5.384 180.039 5.72133 180.816 6.396C181.608 7.07067 182.004 8.00933 182.004 9.212V15.46H183.588V17H182.378ZM177.142 15.79C177.597 15.79 178.008 15.7387 178.374 15.636C178.756 15.5187 179.086 15.372 179.364 15.196C179.643 15.0053 179.856 14.7853 180.002 14.536C180.164 14.272 180.244 13.9933 180.244 13.7V11.83H177.824C176.768 11.83 175.998 11.9767 175.514 12.27C175.03 12.5633 174.788 12.9887 174.788 13.546V14.008C174.788 14.5947 174.994 15.042 175.404 15.35C175.83 15.6433 176.409 15.79 177.142 15.79ZM196.34 17H185.868V5.648H187.496V15.548H190.466V5.648H192.094V15.548H195.064V5.648H196.692V15.504H197.88V20.08H196.34V17ZM199.961 5.648H201.721V11.434L201.545 14.338H201.633L207.331 5.648H208.981V17H207.221V11.214L207.397 8.31H207.309L201.611 17H199.961V5.648ZM216.783 7.144H212.603V5.648H222.723V7.144H218.543V17H216.783V7.144ZM231.052 17.264C230.231 17.264 229.49 17.1247 228.83 16.846C228.185 16.5673 227.627 16.1713 227.158 15.658C226.703 15.13 226.351 14.5067 226.102 13.788C225.853 13.0547 225.728 12.2407 225.728 11.346C225.728 10.4367 225.853 9.61533 226.102 8.882C226.366 8.14867 226.725 7.52533 227.18 7.012C227.635 6.484 228.177 6.08067 228.808 5.802C229.453 5.52333 230.165 5.384 230.942 5.384C231.705 5.384 232.394 5.52333 233.01 5.802C233.641 6.08067 234.176 6.46933 234.616 6.968C235.056 7.452 235.393 8.03133 235.628 8.706C235.863 9.38067 235.98 10.1213 235.98 10.928V11.764H227.576V12.292C227.576 12.7907 227.657 13.2527 227.818 13.678C227.979 14.1033 228.207 14.47 228.5 14.778C228.808 15.086 229.175 15.328 229.6 15.504C230.04 15.6653 230.524 15.746 231.052 15.746C231.815 15.746 232.475 15.57 233.032 15.218C233.589 14.866 234.015 14.382 234.308 13.766L235.606 14.646C235.269 15.4087 234.704 16.0393 233.912 16.538C233.135 17.022 232.181 17.264 231.052 17.264ZM230.942 6.836C230.458 6.836 230.011 6.924 229.6 7.1C229.189 7.276 228.83 7.518 228.522 7.826C228.229 8.134 227.994 8.50067 227.818 8.926C227.657 9.33667 227.576 9.79133 227.576 10.29V10.444H234.088V10.202C234.088 9.70333 234.007 9.24867 233.846 8.838C233.699 8.42733 233.487 8.07533 233.208 7.782C232.944 7.474 232.614 7.23933 232.218 7.078C231.837 6.91667 231.411 6.836 230.942 6.836ZM252.991 5.648H258.777C259.701 5.648 260.427 5.912 260.955 6.44C261.483 6.95333 261.747 7.65 261.747 8.53C261.747 9.95267 261.006 10.752 259.525 10.928V11.016C260.405 11.0893 261.057 11.368 261.483 11.852C261.923 12.3213 262.143 12.908 262.143 13.612C262.143 14.0667 262.069 14.4993 261.923 14.91C261.776 15.3207 261.563 15.68 261.285 15.988C261.006 16.296 260.661 16.5453 260.251 16.736C259.84 16.912 259.371 17 258.843 17H252.991V5.648ZM258.403 15.592C259.004 15.592 259.466 15.4453 259.789 15.152C260.111 14.8587 260.273 14.4553 260.273 13.942V13.436C260.273 12.9227 260.111 12.5267 259.789 12.248C259.481 11.9547 259.063 11.808 258.535 11.808H254.751V15.592H258.403ZM258.315 10.422C258.799 10.422 259.18 10.2973 259.459 10.048C259.737 9.79867 259.877 9.44667 259.877 8.992V8.508C259.877 8.05333 259.737 7.70133 259.459 7.452C259.18 7.188 258.799 7.056 258.315 7.056H254.751V10.422H258.315ZM281.552 10.532H286.48V10.356C286.48 9.85733 286.406 9.39533 286.26 8.97C286.128 8.54467 285.922 8.178 285.644 7.87C285.365 7.562 285.02 7.32733 284.61 7.166C284.199 6.99 283.73 6.902 283.202 6.902C282.424 6.902 281.801 7.06333 281.332 7.386C280.862 7.694 280.496 8.14867 280.232 8.75L278.868 8.024C279.205 7.26133 279.718 6.63067 280.408 6.132C281.097 5.63333 282.036 5.384 283.224 5.384C284.03 5.384 284.749 5.53067 285.38 5.824C286.025 6.10267 286.568 6.49867 287.008 7.012C287.448 7.52533 287.785 8.14867 288.02 8.882C288.254 9.61533 288.372 10.4293 288.372 11.324C288.372 12.2333 288.254 13.0547 288.02 13.788C287.785 14.5067 287.448 15.13 287.008 15.658C286.568 16.1713 286.032 16.5673 285.402 16.846C284.771 17.1247 284.052 17.264 283.246 17.264C282.102 17.264 281.17 17.0147 280.452 16.516C279.733 16.0173 279.205 15.4013 278.868 14.668L280.166 13.766C280.459 14.382 280.848 14.866 281.332 15.218C281.816 15.57 282.454 15.746 283.246 15.746C283.759 15.746 284.214 15.6653 284.61 15.504C285.02 15.328 285.358 15.086 285.622 14.778C285.9 14.47 286.113 14.1033 286.26 13.678C286.406 13.2527 286.48 12.7907 286.48 12.292V12.006H281.552V10.532ZM295.931 7.144H291.751V5.648H301.871V7.144H297.691V17H295.931V7.144ZM313.676 5.648H315.436L309.804 19.486C309.672 19.8087 309.526 20.0873 309.364 20.322C309.203 20.5713 309.012 20.7693 308.792 20.916C308.572 21.0773 308.308 21.1947 308 21.268C307.692 21.356 307.326 21.4 306.9 21.4H305.228V19.904H307.868L309.144 16.78L304.568 5.648H306.372L308.286 10.4L309.98 14.712H310.068L311.762 10.4L313.676 5.648ZM336.385 17.264C335.593 17.264 334.874 17.1247 334.229 16.846C333.598 16.5673 333.056 16.1713 332.601 15.658C332.161 15.13 331.824 14.5067 331.589 13.788C331.354 13.0547 331.237 12.2333 331.237 11.324C331.237 10.4293 331.354 9.61533 331.589 8.882C331.824 8.14867 332.161 7.52533 332.601 7.012C333.056 6.484 333.598 6.08067 334.229 5.802C334.874 5.52333 335.593 5.384 336.385 5.384C337.177 5.384 337.888 5.52333 338.519 5.802C339.164 6.08067 339.707 6.484 340.147 7.012C340.602 7.52533 340.946 8.14867 341.181 8.882C341.416 9.61533 341.533 10.4293 341.533 11.324C341.533 12.2333 341.416 13.0547 341.181 13.788C340.946 14.5067 340.602 15.13 340.147 15.658C339.707 16.1713 339.164 16.5673 338.519 16.846C337.888 17.1247 337.177 17.264 336.385 17.264ZM336.385 15.746C337.368 15.746 338.16 15.4527 338.761 14.866C339.362 14.2793 339.663 13.37 339.663 12.138V10.51C339.663 9.278 339.362 8.36867 338.761 7.782C338.16 7.19533 337.368 6.902 336.385 6.902C335.402 6.902 334.61 7.19533 334.009 7.782C333.408 8.36867 333.107 9.278 333.107 10.51V12.138C333.107 13.37 333.408 14.2793 334.009 14.866C334.61 15.4527 335.402 15.746 336.385 15.746ZM349.599 17.264C348.836 17.264 348.139 17.1247 347.509 16.846C346.893 16.5673 346.357 16.142 345.903 15.57C345.463 14.998 345.118 14.2793 344.869 13.414C344.619 12.534 344.495 11.4927 344.495 10.29C344.495 8.618 344.605 7.19533 344.825 6.022C345.059 4.84867 345.411 3.88067 345.881 3.118C346.365 2.35533 346.973 1.79067 347.707 1.424C348.455 1.05733 349.342 0.837332 350.369 0.763999L353.845 0.543999V2.282L350.193 2.524C349.562 2.568 349.019 2.68533 348.565 2.876C348.125 3.06667 347.751 3.37467 347.443 3.8C347.149 4.21067 346.915 4.75333 346.739 5.428C346.563 6.10267 346.431 6.946 346.343 7.958H346.453C346.761 7.22467 347.193 6.66 347.751 6.264C348.308 5.85333 349.005 5.648 349.841 5.648C350.559 5.648 351.219 5.78 351.821 6.044C352.422 6.308 352.935 6.68933 353.361 7.188C353.786 7.672 354.116 8.28067 354.351 9.014C354.6 9.73267 354.725 10.554 354.725 11.478C354.725 12.3433 354.6 13.128 354.351 13.832C354.101 14.536 353.749 15.1447 353.295 15.658C352.84 16.1713 352.297 16.5673 351.667 16.846C351.051 17.1247 350.361 17.264 349.599 17.264ZM349.599 15.746C350.552 15.746 351.329 15.4527 351.931 14.866C352.547 14.2647 352.855 13.392 352.855 12.248V10.862C352.855 9.63 352.554 8.706 351.953 8.09C351.366 7.474 350.596 7.166 349.643 7.166C348.528 7.166 347.699 7.43733 347.157 7.98C346.629 8.508 346.365 9.19 346.365 10.026V12.248C346.365 13.392 346.658 14.2647 347.245 14.866C347.846 15.4527 348.631 15.746 349.599 15.746ZM356.74 15.504H358.148C358.368 15.2253 358.559 14.8953 358.72 14.514C358.896 14.1327 359.035 13.678 359.138 13.15C359.255 12.622 359.343 12.0133 359.402 11.324C359.461 10.62 359.49 9.806 359.49 8.882V5.648H367.036V17H365.276V7.144H361.206V8.926C361.206 10.9793 361.052 12.5927 360.744 13.766C360.451 14.9247 360.055 15.7533 359.556 16.252C359.277 16.5307 358.969 16.7287 358.632 16.846C358.295 16.9487 357.891 17 357.422 17H356.74V15.504ZM380.249 17C379.56 17 379.069 16.824 378.775 16.472C378.482 16.12 378.299 15.68 378.225 15.152H378.115C377.866 15.812 377.463 16.3327 376.905 16.714C376.363 17.0807 375.629 17.264 374.705 17.264C373.517 17.264 372.571 16.956 371.867 16.34C371.163 15.724 370.811 14.8807 370.811 13.81C370.811 12.754 371.193 11.94 371.955 11.368C372.733 10.796 373.979 10.51 375.695 10.51H378.115V9.388C378.115 8.552 377.881 7.92867 377.411 7.518C376.942 7.09267 376.275 6.88 375.409 6.88C374.647 6.88 374.023 7.034 373.539 7.342C373.055 7.63533 372.667 8.03867 372.373 8.552L371.185 7.672C371.332 7.37867 371.53 7.09267 371.779 6.814C372.029 6.53533 372.337 6.29333 372.703 6.088C373.07 5.868 373.488 5.69933 373.957 5.582C374.427 5.45 374.947 5.384 375.519 5.384C376.854 5.384 377.91 5.72133 378.687 6.396C379.479 7.07067 379.875 8.00933 379.875 9.212V15.46H381.459V17H380.249ZM375.013 15.79C375.468 15.79 375.879 15.7387 376.245 15.636C376.627 15.5187 376.957 15.372 377.235 15.196C377.514 15.0053 377.727 14.7853 377.873 14.536C378.035 14.272 378.115 13.9933 378.115 13.7V11.83H375.695C374.639 11.83 373.869 11.9767 373.385 12.27C372.901 12.5633 372.659 12.9887 372.659 13.546V14.008C372.659 14.5947 372.865 15.042 373.275 15.35C373.701 15.6433 374.28 15.79 375.013 15.79ZM389.547 17.264C388.725 17.264 387.992 17.1247 387.347 16.846C386.716 16.5527 386.181 16.1493 385.741 15.636C385.301 15.1227 384.963 14.4993 384.729 13.766C384.509 13.0327 384.399 12.2187 384.399 11.324C384.399 10.4293 384.516 9.61533 384.751 8.882C384.985 8.14867 385.323 7.52533 385.763 7.012C386.203 6.484 386.738 6.08067 387.369 5.802C387.999 5.52333 388.718 5.384 389.525 5.384C390.625 5.384 391.519 5.626 392.209 6.11C392.898 6.594 393.404 7.22467 393.727 8.002L392.319 8.75C392.113 8.16333 391.769 7.70867 391.285 7.386C390.815 7.06333 390.229 6.902 389.525 6.902C389.011 6.902 388.549 6.99 388.139 7.166C387.743 7.32733 387.405 7.562 387.127 7.87C386.848 8.178 386.635 8.54467 386.489 8.97C386.357 9.39533 386.291 9.85733 386.291 10.356V12.292C386.291 12.7907 386.357 13.2527 386.489 13.678C386.635 14.1033 386.848 14.47 387.127 14.778C387.405 15.086 387.75 15.328 388.161 15.504C388.571 15.6653 389.041 15.746 389.569 15.746C390.331 15.746 390.962 15.57 391.461 15.218C391.959 14.866 392.355 14.382 392.649 13.766L393.903 14.624C393.565 15.3867 393.037 16.0173 392.319 16.516C391.615 17.0147 390.691 17.264 389.547 17.264ZM401.462 7.144H397.282V5.648H407.402V7.144H403.222V17H401.462V7.144ZM411.376 5.648H413.136V9.762H416.656C417.8 9.762 418.709 10.0847 419.384 10.73C420.058 11.3753 420.396 12.2627 420.396 13.392C420.396 14.536 420.066 15.4233 419.406 16.054C418.746 16.6847 417.836 17 416.678 17H411.376V5.648ZM416.414 15.504C417.074 15.504 417.587 15.372 417.954 15.108C418.335 14.844 418.526 14.4187 418.526 13.832V12.908C418.526 12.3213 418.335 11.9033 417.954 11.654C417.587 11.39 417.074 11.258 416.414 11.258H413.136V15.504H416.414ZM435.8 15.504H437.076C437.546 14.756 437.912 13.876 438.176 12.864C438.455 11.8373 438.594 10.6347 438.594 9.256V5.648H445.92V15.504H447.79V20.08H446.184V17H437.406V20.08H435.8V15.504ZM444.16 15.504V7.144H440.31V9.344C440.31 10.708 440.2 11.8813 439.98 12.864C439.76 13.832 439.43 14.712 438.99 15.504H444.16ZM449.08 15.504H450.488C450.708 15.2253 450.898 14.8953 451.06 14.514C451.236 14.1327 451.375 13.678 451.478 13.15C451.595 12.622 451.683 12.0133 451.742 11.324C451.8 10.62 451.83 9.806 451.83 8.882V5.648H459.376V17H457.616V7.144H453.546V8.926C453.546 10.9793 453.392 12.5927 453.084 13.766C452.79 14.9247 452.394 15.7533 451.896 16.252C451.617 16.5307 451.309 16.7287 450.972 16.846C450.634 16.9487 450.231 17 449.762 17H449.08V15.504ZM463.195 15.504H464.471L465.461 13.634C465.637 13.2967 465.828 13.04 466.033 12.864C466.239 12.688 466.488 12.578 466.781 12.534V12.446C465.857 12.402 465.102 12.1087 464.515 11.566C463.943 11.0087 463.657 10.202 463.657 9.146C463.657 8.06067 463.987 7.21 464.647 6.594C465.307 5.96333 466.217 5.648 467.375 5.648H472.479V17H470.719V12.622H467.969L466.407 15.548C466.143 16.032 465.857 16.3987 465.549 16.648C465.256 16.8827 464.875 17 464.405 17H463.195V15.504ZM470.719 7.144H467.639C466.979 7.144 466.459 7.276 466.077 7.54C465.711 7.804 465.527 8.22933 465.527 8.816V9.498C465.527 10.0847 465.711 10.51 466.077 10.774C466.459 11.038 466.979 11.17 467.639 11.17H470.719V7.144ZM494.22 17.264C493.047 17.264 492.071 17.0733 491.294 16.692C490.531 16.3107 489.908 15.768 489.424 15.064L490.722 14.008C491.074 14.5653 491.536 14.998 492.108 15.306C492.68 15.5993 493.384 15.746 494.22 15.746C495.276 15.746 496.039 15.5773 496.508 15.24C496.977 14.9027 497.212 14.47 497.212 13.942V13.634C497.212 13.062 497.021 12.6293 496.64 12.336C496.273 12.028 495.738 11.874 495.034 11.874H491.976V10.4H494.814C496.251 10.4 496.97 9.86467 496.97 8.794V8.53C496.97 8.046 496.765 7.65733 496.354 7.364C495.958 7.056 495.261 6.902 494.264 6.902C493.384 6.902 492.673 7.04867 492.13 7.342C491.602 7.63533 491.169 8.046 490.832 8.574L489.6 7.738C490.113 6.99 490.737 6.41067 491.47 6C492.203 5.58933 493.164 5.384 494.352 5.384C495.863 5.384 496.985 5.65533 497.718 6.198C498.466 6.74067 498.84 7.48867 498.84 8.442C498.84 9.146 498.657 9.70333 498.29 10.114C497.923 10.5247 497.41 10.8107 496.75 10.972V11.06C497.513 11.1773 498.092 11.4707 498.488 11.94C498.884 12.3947 499.082 12.9813 499.082 13.7C499.082 14.8 498.657 15.6727 497.806 16.318C496.97 16.9487 495.775 17.264 494.22 17.264ZM512.163 17C511.474 17 510.983 16.824 510.689 16.472C510.396 16.12 510.213 15.68 510.139 15.152H510.029C509.78 15.812 509.377 16.3327 508.819 16.714C508.277 17.0807 507.543 17.264 506.619 17.264C505.431 17.264 504.485 16.956 503.781 16.34C503.077 15.724 502.725 14.8807 502.725 13.81C502.725 12.754 503.107 11.94 503.869 11.368C504.647 10.796 505.893 10.51 507.609 10.51H510.029V9.388C510.029 8.552 509.795 7.92867 509.325 7.518C508.856 7.09267 508.189 6.88 507.323 6.88C506.561 6.88 505.937 7.034 505.453 7.342C504.969 7.63533 504.581 8.03867 504.287 8.552L503.099 7.672C503.246 7.37867 503.444 7.09267 503.693 6.814C503.943 6.53533 504.251 6.29333 504.617 6.088C504.984 5.868 505.402 5.69933 505.871 5.582C506.341 5.45 506.861 5.384 507.433 5.384C508.768 5.384 509.824 5.72133 510.601 6.396C511.393 7.07067 511.789 8.00933 511.789 9.212V15.46H513.373V17H512.163ZM506.927 15.79C507.382 15.79 507.793 15.7387 508.159 15.636C508.541 15.5187 508.871 15.372 509.149 15.196C509.428 15.0053 509.641 14.7853 509.787 14.536C509.949 14.272 510.029 13.9933 510.029 13.7V11.83H507.609C506.553 11.83 505.783 11.9767 505.299 12.27C504.815 12.5633 504.573 12.9887 504.573 13.546V14.008C504.573 14.5947 504.779 15.042 505.189 15.35C505.615 15.6433 506.194 15.79 506.927 15.79ZM517.435 5.648H525.575V7.144H519.195V17H517.435V5.648ZM529.746 5.648H531.506V7.496H531.594C532.328 6.088 533.494 5.384 535.092 5.384C536.486 5.384 537.571 5.90467 538.348 6.946C539.14 7.98733 539.536 9.44667 539.536 11.324C539.536 13.2013 539.14 14.6607 538.348 15.702C537.571 16.7433 536.486 17.264 535.092 17.264C533.494 17.264 532.328 16.56 531.594 15.152H531.506V21.4H529.746V5.648ZM534.41 15.702C535.437 15.702 536.229 15.394 536.786 14.778C537.358 14.1473 537.644 13.3187 537.644 12.292V10.356C537.644 9.32933 537.358 8.508 536.786 7.892C536.229 7.26133 535.437 6.946 534.41 6.946C534.014 6.946 533.64 6.99733 533.288 7.1C532.936 7.20267 532.628 7.35667 532.364 7.562C532.1 7.75267 531.888 7.99467 531.726 8.288C531.58 8.56667 531.506 8.89667 531.506 9.278V13.37C531.506 13.7513 531.58 14.0887 531.726 14.382C531.888 14.6607 532.1 14.9027 532.364 15.108C532.628 15.2987 532.936 15.4453 533.288 15.548C533.64 15.6507 534.014 15.702 534.41 15.702ZM551.122 5.648H552.882L547.25 19.486C547.118 19.8087 546.971 20.0873 546.81 20.322C546.648 20.5713 546.458 20.7693 546.238 20.916C546.018 21.0773 545.754 21.1947 545.446 21.268C545.138 21.356 544.771 21.4 544.346 21.4H542.674V19.904H545.314L546.59 16.78L542.014 5.648H543.818L545.732 10.4L547.426 14.712H547.514L549.208 10.4L551.122 5.648ZM560.177 17.264C559.004 17.264 558.028 17.0733 557.251 16.692C556.488 16.3107 555.865 15.768 555.381 15.064L556.679 14.008C557.031 14.5653 557.493 14.998 558.065 15.306C558.637 15.5993 559.341 15.746 560.177 15.746C561.233 15.746 561.996 15.5773 562.465 15.24C562.934 14.9027 563.169 14.47 563.169 13.942V13.634C563.169 13.062 562.978 12.6293 562.597 12.336C562.23 12.028 561.695 11.874 560.991 11.874H557.933V10.4H560.771C562.208 10.4 562.927 9.86467 562.927 8.794V8.53C562.927 8.046 562.722 7.65733 562.311 7.364C561.915 7.056 561.218 6.902 560.221 6.902C559.341 6.902 558.63 7.04867 558.087 7.342C557.559 7.63533 557.126 8.046 556.789 8.574L555.557 7.738C556.07 6.99 556.694 6.41067 557.427 6C558.16 5.58933 559.121 5.384 560.309 5.384C561.82 5.384 562.942 5.65533 563.675 6.198C564.423 6.74067 564.797 7.48867 564.797 8.442C564.797 9.146 564.614 9.70333 564.247 10.114C563.88 10.5247 563.367 10.8107 562.707 10.972V11.06C563.47 11.1773 564.049 11.4707 564.445 11.94C564.841 12.3947 565.039 12.9813 565.039 13.7C565.039 14.8 564.614 15.6727 563.763 16.318C562.927 16.9487 561.732 17.264 560.177 17.264ZM569.584 5.648H571.344V10.4H573.764L576.822 5.648H578.648L575.876 9.96C575.627 10.3413 575.407 10.6127 575.216 10.774C575.026 10.9207 574.798 11.0307 574.534 11.104V11.192C574.828 11.236 575.077 11.3387 575.282 11.5C575.488 11.6467 575.7 11.9107 575.92 12.292L577.768 15.504H579.044V17H577.768C577.387 17 577.057 16.8973 576.778 16.692C576.5 16.4867 576.221 16.1493 575.942 15.68L573.764 11.896H571.344V17H569.584V5.648ZM582.512 5.648H584.272V11.434L584.096 14.338H584.184L589.882 5.648H591.532V17H589.772V11.214L589.948 8.31H589.86L584.162 17H582.512V5.648ZM5.764 47.636V43.038H1.364V41.542H5.764V36.944H7.436V41.542H11.836V43.038H7.436V47.636H5.764ZM14.5554 43.038V41.542H25.0274V43.038H14.5554ZM27.7468 43.038V41.542H38.2188V43.038H27.7468ZM40.9382 43.038V41.542H51.4102V43.038H40.9382ZM54.1296 43.038V41.542H64.6016V43.038H54.1296ZM67.321 43.038V41.542H77.793V43.038H67.321ZM80.5124 43.038V41.542H90.9844V43.038H80.5124ZM93.7038 43.038V41.542H104.176V43.038H93.7038ZM106.895 43.038V41.542H117.367V43.038H106.895ZM120.087 43.038V41.542H130.559V43.038H120.087ZM133.278 43.038V41.542H143.75V43.038H133.278ZM146.469 43.038V41.542H156.941V43.038H146.469ZM159.661 43.038V41.542H170.133V43.038H159.661ZM172.852 43.038V41.542H183.324V43.038H172.852ZM186.044 43.038V41.542H196.516V43.038H186.044ZM199.235 43.038V41.542H209.707V43.038H199.235ZM212.427 43.038V41.542H222.899V43.038H212.427ZM225.618 43.038V41.542H236.09V43.038H225.618ZM238.809 43.038V41.542H249.281V43.038H238.809ZM252.001 43.038V41.542H262.473V43.038H252.001ZM265.192 43.038V41.542H275.664V43.038H265.192ZM278.384 43.038V41.542H288.856V43.038H278.384ZM291.575 43.038V41.542H302.047V43.038H291.575ZM304.766 43.038V41.542H315.238V43.038H304.766ZM317.958 43.038V41.542H328.43V43.038H317.958ZM331.149 43.038V41.542H341.621V43.038H331.149ZM344.341 43.038V41.542H354.813V43.038H344.341ZM357.532 43.038V41.542H368.004V43.038H357.532ZM370.723 43.038V41.542H381.195V43.038H370.723ZM383.915 43.038V41.542H394.387V43.038H383.915ZM397.106 43.038V41.542H407.578V43.038H397.106ZM410.298 43.038V41.542H420.77V43.038H410.298ZM423.489 43.038V41.542H433.961V43.038H423.489ZM436.68 43.038V41.542H447.152V43.038H436.68ZM449.872 43.038V41.542H460.344V43.038H449.872ZM463.063 43.038V41.542H473.535V43.038H463.063ZM476.255 43.038V41.542H486.727V43.038H476.255ZM489.446 43.038V41.542H499.918V43.038H489.446ZM502.637 43.038V41.542H513.109V43.038H502.637ZM515.829 43.038V41.542H526.301V43.038H515.829ZM529.02 43.038V41.542H539.492V43.038H529.02ZM542.212 43.038V41.542H552.684V43.038H542.212ZM555.403 43.038V41.542H565.875V43.038H555.403ZM568.594 43.038V41.542H579.066V43.038H568.594ZM581.786 43.038V41.542H592.258V43.038H581.786ZM599.377 47.636V43.038H594.977V41.542H599.377V36.944H601.049V41.542H605.449V43.038H601.049V47.636H599.377ZM5.83 84.036V64.28H7.37V84.036H5.83ZM309.166 79.636V75.038H304.766V73.542H309.166V68.944H310.838V73.542H315.238V75.038H310.838V79.636H309.166ZM599.443 84.036V64.28H600.983V84.036H599.443ZM5.764 111.636V107.038H1.364V105.542H5.764V100.944H7.436V105.542H11.836V107.038H7.436V111.636H5.764ZM14.5554 107.038V105.542H25.0274V107.038H14.5554ZM27.7468 107.038V105.542H38.2188V107.038H27.7468ZM40.9382 107.038V105.542H51.4102V107.038H40.9382ZM54.1296 107.038V105.542H64.6016V107.038H54.1296ZM67.321 107.038V105.542H77.793V107.038H67.321ZM80.5124 107.038V105.542H90.9844V107.038H80.5124ZM93.7038 107.038V105.542H104.176V107.038H93.7038ZM106.895 107.038V105.542H117.367V107.038H106.895ZM120.087 107.038V105.542H130.559V107.038H120.087ZM133.278 107.038V105.542H143.75V107.038H133.278ZM146.469 107.038V105.542H156.941V107.038H146.469ZM159.661 107.038V105.542H170.133V107.038H159.661ZM172.852 107.038V105.542H183.324V107.038H172.852ZM186.044 107.038V105.542H196.516V107.038H186.044ZM199.235 107.038V105.542H209.707V107.038H199.235ZM212.427 107.038V105.542H222.899V107.038H212.427ZM225.618 107.038V105.542H236.09V107.038H225.618ZM238.809 107.038V105.542H249.281V107.038H238.809ZM252.001 107.038V105.542H262.473V107.038H252.001ZM265.192 107.038V105.542H275.664V107.038H265.192ZM278.384 107.038V105.542H288.856V107.038H278.384ZM291.575 107.038V105.542H302.047V107.038H291.575ZM304.766 107.038V105.542H315.238V107.038H304.766ZM317.958 107.038V105.542H328.43V107.038H317.958ZM331.149 107.038V105.542H341.621V107.038H331.149ZM344.341 107.038V105.542H354.813V107.038H344.341ZM357.532 107.038V105.542H368.004V107.038H357.532ZM370.723 107.038V105.542H381.195V107.038H370.723ZM383.915 107.038V105.542H394.387V107.038H383.915ZM397.106 107.038V105.542H407.578V107.038H397.106ZM410.298 107.038V105.542H420.77V107.038H410.298ZM423.489 107.038V105.542H433.961V107.038H423.489ZM436.68 107.038V105.542H447.152V107.038H436.68ZM449.872 107.038V105.542H460.344V107.038H449.872ZM463.063 107.038V105.542H473.535V107.038H463.063ZM476.255 107.038V105.542H486.727V107.038H476.255ZM489.446 107.038V105.542H499.918V107.038H489.446ZM502.637 107.038V105.542H513.109V107.038H502.637ZM515.829 107.038V105.542H526.301V107.038H515.829ZM529.02 107.038V105.542H539.492V107.038H529.02ZM542.212 107.038V105.542H552.684V107.038H542.212ZM555.403 107.038V105.542H565.875V107.038H555.403ZM568.594 107.038V105.542H579.066V107.038H568.594ZM581.786 107.038V105.542H592.258V107.038H581.786ZM599.377 111.636V107.038H594.977V105.542H599.377V100.944H601.049V105.542H605.449V107.038H601.049V111.636H599.377Z" fill="#00AEE5"/>
</svg>
