<svg width="702" height="9" viewBox="0 0 702 9" fill="none" xmlns="http://www.w3.org/2000/svg">
<path d="M5.165 0.082V3.691H8.72V5.113H5.165V8.695H3.599V5.113H0.08V3.691H3.599V0.082H5.165ZM17.713 3.619V5.131H10.873V3.619H17.713ZM27.6059 3.619V5.131H20.7659V3.619H27.6059ZM37.4989 3.619V5.131H30.6589V3.619H37.4989ZM47.3919 3.619V5.131H40.5519V3.619H47.3919ZM57.2848 3.619V5.131H50.4448V3.619H57.2848ZM67.1778 3.619V5.131H60.3378V3.619H67.1778ZM77.0708 3.619V5.131H70.2308V3.619H77.0708ZM86.9638 3.619V5.131H80.1238V3.619H86.9638ZM96.8567 3.619V5.131H90.0167V3.619H96.8567ZM106.75 3.619V5.131H99.9097V3.619H106.75ZM116.643 3.619V5.131H109.803V3.619H116.643ZM126.536 3.619V5.131H119.696V3.619H126.536ZM136.429 3.619V5.131H129.589V3.619H136.429ZM146.322 3.619V5.131H139.482V3.619H146.322ZM156.215 3.619V5.131H149.375V3.619H156.215ZM166.108 3.619V5.131H159.268V3.619H166.108ZM176 3.619V5.131H169.16V3.619H176ZM185.893 3.619V5.131H179.053V3.619H185.893ZM195.786 3.619V5.131H188.946V3.619H195.786ZM205.679 3.619V5.131H198.839V3.619H205.679ZM215.572 3.619V5.131H208.732V3.619H215.572ZM225.465 3.619V5.131H218.625V3.619H225.465ZM235.358 3.619V5.131H228.518V3.619H235.358ZM245.251 3.619V5.131H238.411V3.619H245.251ZM255.144 3.619V5.131H248.304V3.619H255.144ZM265.037 3.619V5.131H258.197V3.619H265.037ZM274.93 3.619V5.131H268.09V3.619H274.93ZM284.823 3.619V5.131H277.983V3.619H284.823ZM294.716 3.619V5.131H287.876V3.619H294.716ZM304.609 3.619V5.131H297.769V3.619H304.609ZM314.502 3.619V5.131H307.662V3.619H314.502ZM324.395 3.619V5.131H317.555V3.619H324.395ZM334.288 3.619V5.131H327.448V3.619H334.288ZM344.181 3.619V5.131H337.341V3.619H344.181ZM354.074 3.619V5.131H347.234V3.619H354.074ZM363.967 3.619V5.131H357.127V3.619H363.967ZM373.86 3.619V5.131H367.02V3.619H373.86ZM383.753 3.619V5.131H376.913V3.619H383.753ZM393.646 3.619V5.131H386.806V3.619H393.646ZM403.539 3.619V5.131H396.699V3.619H403.539ZM413.432 3.619V5.131H406.592V3.619H413.432ZM423.325 3.619V5.131H416.485V3.619H423.325ZM433.218 3.619V5.131H426.378V3.619H433.218ZM443.111 3.619V5.131H436.271V3.619H443.111ZM453.004 3.619V5.131H446.164V3.619H453.004ZM462.897 3.619V5.131H456.057V3.619H462.897ZM472.79 3.619V5.131H465.95V3.619H472.79ZM482.682 3.619V5.131H475.842V3.619H482.682ZM492.575 3.619V5.131H485.735V3.619H492.575ZM502.468 3.619V5.131H495.628V3.619H502.468ZM512.361 3.619V5.131H505.521V3.619H512.361ZM522.254 3.619V5.131H515.414V3.619H522.254ZM532.147 3.619V5.131H525.307V3.619H532.147ZM542.04 3.619V5.131H535.2V3.619H542.04ZM551.933 3.619V5.131H545.093V3.619H551.933ZM561.826 3.619V5.131H554.986V3.619H561.826ZM571.719 3.619V5.131H564.879V3.619H571.719ZM581.612 3.619V5.131H574.772V3.619H581.612ZM591.505 3.619V5.131H584.665V3.619H591.505ZM601.398 3.619V5.131H594.558V3.619H601.398ZM611.291 3.619V5.131H604.451V3.619H611.291ZM621.184 3.619V5.131H614.344V3.619H621.184ZM631.077 3.619V5.131H624.237V3.619H631.077ZM640.97 3.619V5.131H634.13V3.619H640.97ZM650.863 3.619V5.131H644.023V3.619H650.863ZM660.756 3.619V5.131H653.916V3.619H660.756ZM670.649 3.619V5.131H663.809V3.619H670.649ZM680.542 3.619V5.131H673.702V3.619H680.542ZM690.435 3.619V5.131H683.595V3.619H690.435ZM697.673 0.082V3.691H701.228V5.113H697.673V8.695H696.107V5.113H692.588V3.691H696.107V0.082H697.673Z" fill="#0089B5"/>
</svg>
