<svg width="306" height="129" viewBox="0 0 306 129" fill="none" xmlns="http://www.w3.org/2000/svg">
<path d="M5.165 0.082V3.691H8.72V5.113H5.165V8.695H3.599V5.113H0.08V3.691H3.599V0.082H5.165ZM17.713 3.619V5.131H10.873V3.619H17.713ZM27.6059 3.619V5.131H20.7659V3.619H27.6059ZM37.4989 3.619V5.131H30.6589V3.619H37.4989ZM47.3919 3.619V5.131H40.5519V3.619H47.3919ZM57.2848 3.619V5.131H50.4448V3.619H57.2848ZM67.1778 3.619V5.131H60.3378V3.619H67.1778ZM77.0708 3.619V5.131H70.2308V3.619H77.0708ZM86.9638 3.619V5.131H80.1238V3.619H86.9638ZM96.8567 3.619V5.131H90.0167V3.619H96.8567ZM106.75 3.619V5.131H99.9097V3.619H106.75ZM116.643 3.619V5.131H109.803V3.619H116.643ZM126.536 3.619V5.131H119.696V3.619H126.536ZM136.429 3.619V5.131H129.589V3.619H136.429ZM146.322 3.619V5.131H139.482V3.619H146.322ZM156.215 3.619V5.131H149.375V3.619H156.215ZM166.108 3.619V5.131H159.268V3.619H166.108ZM176 3.619V5.131H169.16V3.619H176ZM185.893 3.619V5.131H179.053V3.619H185.893ZM195.786 3.619V5.131H188.946V3.619H195.786ZM205.679 3.619V5.131H198.839V3.619H205.679ZM215.572 3.619V5.131H208.732V3.619H215.572ZM225.465 3.619V5.131H218.625V3.619H225.465ZM235.358 3.619V5.131H228.518V3.619H235.358ZM245.251 3.619V5.131H238.411V3.619H245.251ZM255.144 3.619V5.131H248.304V3.619H255.144ZM265.037 3.619V5.131H258.197V3.619H265.037ZM274.93 3.619V5.131H268.09V3.619H274.93ZM284.823 3.619V5.131H277.983V3.619H284.823ZM294.716 3.619V5.131H287.876V3.619H294.716ZM301.954 0.082V3.691H305.509V5.113H301.954V8.695H300.388V5.113H296.869V3.691H300.388V0.082H301.954ZM5.183 17.8V39.4H3.617V17.8H5.183ZM301.972 17.8V39.4H300.406V17.8H301.972ZM5.183 41.8V63.4H3.617V41.8H5.183ZM301.972 41.8V63.4H300.406V41.8H301.972ZM5.183 65.8V87.4H3.617V65.8H5.183ZM301.972 65.8V87.4H300.406V65.8H301.972ZM5.183 89.8V111.4H3.617V89.8H5.183ZM301.972 89.8V111.4H300.406V89.8H301.972ZM5.165 120.082V123.691H8.72V125.113H5.165V128.695H3.599V125.113H0.08V123.691H3.599V120.082H5.165ZM17.713 123.619V125.131H10.873V123.619H17.713ZM27.6059 123.619V125.131H20.7659V123.619H27.6059ZM37.4989 123.619V125.131H30.6589V123.619H37.4989ZM47.3919 123.619V125.131H40.5519V123.619H47.3919ZM57.2848 123.619V125.131H50.4448V123.619H57.2848ZM67.1778 123.619V125.131H60.3378V123.619H67.1778ZM77.0708 123.619V125.131H70.2308V123.619H77.0708ZM86.9638 123.619V125.131H80.1238V123.619H86.9638ZM96.8567 123.619V125.131H90.0167V123.619H96.8567ZM106.75 123.619V125.131H99.9097V123.619H106.75ZM116.643 123.619V125.131H109.803V123.619H116.643ZM126.536 123.619V125.131H119.696V123.619H126.536ZM136.429 123.619V125.131H129.589V123.619H136.429ZM146.322 123.619V125.131H139.482V123.619H146.322ZM156.215 123.619V125.131H149.375V123.619H156.215ZM166.108 123.619V125.131H159.268V123.619H166.108ZM176 123.619V125.131H169.16V123.619H176ZM185.893 123.619V125.131H179.053V123.619H185.893ZM195.786 123.619V125.131H188.946V123.619H195.786ZM205.679 123.619V125.131H198.839V123.619H205.679ZM215.572 123.619V125.131H208.732V123.619H215.572ZM225.465 123.619V125.131H218.625V123.619H225.465ZM235.358 123.619V125.131H228.518V123.619H235.358ZM245.251 123.619V125.131H238.411V123.619H245.251ZM255.144 123.619V125.131H248.304V123.619H255.144ZM265.037 123.619V125.131H258.197V123.619H265.037ZM274.93 123.619V125.131H268.09V123.619H274.93ZM284.823 123.619V125.131H277.983V123.619H284.823ZM294.716 123.619V125.131H287.876V123.619H294.716ZM301.954 120.082V123.691H305.509V125.113H301.954V128.695H300.388V125.113H296.869V123.691H300.388V120.082H301.954Z" fill="#0089B5"/>
</svg>
