<?xml version="1.0" standalone="no"?>
<!DOCTYPE svg PUBLIC "-//W3C//DTD SVG 20010904//EN"
 "http://www.w3.org/TR/2001/REC-SVG-20010904/DTD/svg10.dtd">
<svg version="1.0" xmlns="http://www.w3.org/2000/svg"
 width="260.000000pt" height="260.000000pt" viewBox="0 0 260.000000 260.000000"
 preserveAspectRatio="xMidYMid meet">
<metadata>
Created by potrace 1.14, written by Peter Selinger 2001-2017
</metadata>
<g transform="translate(0.000000,260.000000) scale(0.100000,-0.100000)"
fill="#000000" stroke="none">
<path d="M0 1300 l0 -1300 1300 0 1300 0 0 1300 0 1300 -1300 0 -1300 0 0
-1300z m1370 1082 c0 -26 -11 -34 -27 -21 -10 9 -10 15 -2 25 16 19 29 17 29
-4z m-160 -7 c0 -8 -7 -15 -15 -15 -8 0 -15 7 -15 15 0 8 7 15 15 15 8 0 15
-7 15 -15z m80 0 c0 -8 -7 -15 -15 -15 -8 0 -15 7 -15 15 0 8 7 15 15 15 8 0
15 -7 15 -15z m-330 -90 c7 -8 10 -25 6 -39 -3 -14 -2 -27 3 -30 16 -10 -1
-47 -26 -57 -16 -6 -30 -5 -43 4 -21 13 -27 42 -10 52 6 3 7 17 4 31 -7 28 10
54 36 54 10 0 23 -7 30 -15z m108 7 c7 -5 12 -22 12 -38 0 -16 1 -42 2 -58 3
-25 -2 -31 -26 -37 -42 -12 -55 4 -54 64 1 70 25 95 66 69z m131 -10 c7 -13 6
-23 -2 -31 -9 -9 -9 -16 1 -32 12 -19 8 -59 -6 -59 -4 0 -17 -3 -29 -6 -28 -8
-62 38 -44 60 7 8 9 25 5 41 -5 18 -2 30 7 36 24 15 58 10 68 -9z m111 3 c7
-8 10 -25 7 -37 -4 -12 -2 -27 4 -34 26 -31 -34 -75 -71 -51 -21 13 -27 42
-10 52 6 3 7 17 4 31 -11 44 38 73 66 39z m108 7 c7 -5 12 -22 12 -38 -1 -16
2 -41 6 -56 5 -24 2 -29 -22 -39 -44 -16 -59 -1 -60 62 0 30 4 60 9 67 11 14
36 16 55 4z m131 -10 c6 -11 6 -24 0 -34 -6 -12 -6 -24 2 -36 17 -27 6 -48
-27 -56 -37 -10 -70 25 -53 55 5 11 7 29 4 40 -14 42 53 70 74 31z m64 -1 c2
-11 15 -21 28 -23 21 -3 24 -9 27 -50 4 -56 -15 -66 -20 -10 -2 25 -8 37 -18
37 -10 0 -16 -12 -18 -37 -5 -66 -22 -41 -22 32 0 66 12 93 23 51z m-818 -31
c4 -6 16 -8 27 -4 17 5 20 3 15 -10 -4 -9 -1 -27 5 -41 15 -32 4 -43 -21 -21
-18 17 -20 17 -29 -1 -6 -10 -13 -15 -17 -11 -3 3 0 15 7 27 10 17 10 25 0 41
-6 11 -12 22 -12 25 0 9 19 5 25 -5z m944 -2 c11 -10 14 -10 18 0 3 6 12 12
20 12 14 0 14 -3 -2 -20 -17 -18 -17 -21 -1 -46 20 -30 11 -48 -10 -20 -13 18
-15 18 -31 3 -17 -15 -18 -13 -19 34 0 51 3 57 25 37z m611 3 c0 -14 -18 -23
-30 -16 -6 4 -8 11 -5 16 8 12 35 12 35 0z m-1640 -75 c0 -16 -18 -31 -27 -22
-8 8 5 36 17 36 5 0 10 -6 10 -14z m1638 -4 c2 -7 -3 -12 -12 -12 -9 0 -16 7
-16 16 0 17 22 14 28 -4z m-1728 -142 c0 -64 -1 -68 -25 -74 -52 -13 -89 40
-58 84 22 32 31 24 25 -25 -4 -38 -2 -45 13 -45 14 0 16 7 13 43 -5 46 9 100
23 91 5 -3 9 -36 9 -74z m95 56 c12 -9 16 -20 12 -36 -3 -12 -1 -30 5 -40 15
-24 4 -48 -27 -56 -39 -10 -53 10 -53 72 0 39 5 57 17 64 21 12 24 12 46 -4z
m240 -2 c10 -11 14 -25 11 -40 -3 -12 -1 -26 4 -29 12 -8 3 -46 -14 -57 -17
-12 -40 -9 -61 6 -17 12 -18 17 -7 41 9 20 10 31 2 40 -9 10 -6 19 9 34 25 25
35 26 56 5z m117 6 c6 0 8 -14 6 -32 -3 -18 -1 -40 5 -49 14 -23 2 -47 -28
-55 -39 -10 -53 10 -53 72 1 56 16 79 46 69 8 -3 18 -5 24 -5z m233 -4 c13 -9
16 -20 12 -36 -3 -13 -2 -29 4 -36 6 -7 6 -21 -1 -38 -11 -29 -44 -35 -75 -12
-16 12 -17 18 -8 39 7 14 9 35 6 47 -6 21 16 50 37 50 3 0 14 -6 25 -14z m114
5 c9 -6 12 -19 8 -40 -4 -16 -2 -33 3 -36 19 -12 10 -45 -16 -57 -42 -19 -59
-1 -60 66 -2 43 2 58 15 66 20 12 32 12 50 1z m236 -5 c13 -9 16 -20 12 -36
-3 -13 -2 -29 4 -36 6 -7 6 -21 -1 -38 -11 -29 -44 -35 -75 -12 -16 12 -17 18
-8 39 7 14 9 35 6 47 -6 21 16 50 37 50 3 0 14 -6 25 -14z m111 6 c16 -10 26
-113 13 -129 -14 -17 -53 -17 -67 0 -15 18 -8 117 9 128 17 11 30 11 45 1z
m194 -11 c0 -14 8 -21 28 -23 25 -3 27 -7 30 -50 4 -56 -15 -66 -20 -10 -2 25
-8 37 -18 37 -10 0 -16 -12 -18 -37 -5 -66 -22 -41 -22 32 0 40 4 70 10 70 6
0 10 -9 10 -19z m-1110 -28 c-1 -21 0 -49 2 -63 2 -19 -3 -26 -25 -34 -23 -8
-31 -6 -49 11 -18 18 -19 25 -9 37 8 9 11 26 7 41 -9 36 -1 45 40 45 33 0 34
-1 34 -37z m353 25 c2 -7 0 -21 -5 -30 -5 -11 -4 -24 3 -36 28 -45 -35 -82
-74 -44 -17 17 -18 24 -8 36 8 9 11 26 7 41 -4 14 -4 30 -1 35 9 15 73 12 78
-2z m351 -4 c4 -9 2 -22 -4 -29 -8 -10 -8 -19 1 -33 17 -26 5 -50 -27 -58 -34
-9 -72 29 -53 52 6 8 8 25 5 39 -9 35 -1 45 39 45 21 0 35 -6 39 -16z m350 0
c4 -9 1 -23 -5 -31 -9 -10 -9 -17 -1 -25 18 -18 14 -46 -7 -58 -27 -14 -34
-13 -59 11 -20 18 -21 22 -7 41 10 16 12 25 4 35 -6 7 -9 20 -5 28 8 21 72 20
80 -1z m203 -26 c5 14 33 17 33 3 0 -5 -7 -14 -15 -21 -14 -11 -14 -15 1 -37
19 -29 8 -46 -12 -19 -13 18 -15 18 -31 3 -17 -15 -18 -13 -19 33 0 45 1 47
19 36 15 -8 21 -8 24 2z m117 -5 c10 4 15 -6 19 -36 7 -49 3 -55 -19 -36 -13
11 -18 11 -21 2 -5 -13 -33 -18 -33 -6 0 3 7 15 17 25 15 17 15 19 0 36 -19
21 -11 38 9 21 8 -6 20 -9 28 -6z m-936 -151 c2 -7 -2 -10 -12 -6 -9 3 -16 11
-16 16 0 13 23 5 28 -10z m942 3 c8 -9 8 -15 2 -15 -18 0 -42 12 -42 21 0 14
26 10 40 -6z m-1635 -8 c10 -8 15 -19 11 -25 -15 -25 -63 -4 -53 22 8 20 18
20 42 3z m795 -12 c0 -14 -4 -25 -10 -25 -5 0 -10 11 -10 25 0 14 5 25 10 25
6 0 10 -11 10 -25z m40 -1 c0 -14 -12 -19 -23 -8 -9 9 4 35 14 28 5 -3 9 -12
9 -20z m-935 -26 c0 -20 3 -40 8 -44 14 -15 6 -34 -21 -48 -25 -13 -30 -12
-51 5 -22 18 -23 22 -11 45 10 18 11 27 2 36 -21 21 5 50 41 46 30 -3 32 -6
32 -40z m1170 7 c0 -16 3 -35 8 -42 4 -6 3 -23 -3 -37 -11 -30 -44 -35 -76
-12 -16 12 -17 18 -7 34 6 11 9 29 6 41 -9 36 4 53 39 49 29 -3 33 -6 33 -33z
m115 -10 c3 -22 9 -45 13 -52 4 -6 0 -19 -9 -28 -35 -34 -103 3 -78 43 8 12 8
22 1 34 -15 23 9 50 42 46 22 -3 27 -9 31 -43z m120 30 c10 -12 10 -18 0 -30
-11 -13 -11 -20 0 -40 24 -45 -21 -72 -68 -39 -21 14 -21 17 -7 45 9 17 24 29
35 29 11 0 20 7 20 15 0 8 -7 15 -15 15 -9 0 -18 -7 -21 -15 -4 -8 -10 -15
-15 -15 -10 0 -12 33 -2 43 12 13 60 7 73 -8z m116 -20 c0 -16 4 -38 8 -47 11
-24 -11 -58 -37 -58 -38 0 -61 23 -51 51 4 13 7 32 5 42 -4 27 19 48 48 45 21
-2 26 -8 27 -33z m74 13 l0 -21 25 23 c29 27 33 16 8 -20 -16 -22 -16 -24 5
-38 25 -17 29 -50 7 -59 -22 -8 -30 4 -15 22 8 10 9 15 1 15 -6 0 -11 -5 -11
-11 0 -6 -7 -9 -15 -5 -8 3 -19 -2 -24 -12 -9 -14 -10 -15 -11 -1 0 8 7 24 15
35 18 24 19 45 3 43 -28 -3 -38 2 -38 20 0 19 12 29 38 30 6 1 12 -9 12 -21z
m-570 -12 c0 -7 10 -17 23 -21 13 -4 17 -8 10 -12 -7 -2 -13 -13 -13 -22 0
-13 -8 -18 -30 -18 -17 0 -30 6 -30 13 0 7 -3 19 -6 28 -4 11 -1 16 10 16 9 0
16 7 16 15 0 8 5 15 10 15 6 0 10 -6 10 -14z m-500 -86 c0 -21 -24 -28 -35
-10 -8 14 3 30 21 30 8 0 14 -9 14 -20z m-162 -2 c-6 -18 -28 -21 -28 -4 0 9
7 16 16 16 9 0 14 -5 12 -12z m82 -3 c0 -8 -7 -15 -15 -15 -8 0 -15 7 -15 15
0 8 7 15 15 15 8 0 15 -7 15 -15z m228 -67 c19 -19 14 -30 -8 -18 -11 6 -20
15 -20 20 0 14 14 12 28 -2z m-813 -52 c-1 -51 -19 -50 -23 3 -2 32 0 42 10
39 8 -3 13 -20 13 -42z m335 24 c0 -11 -4 -20 -9 -20 -14 0 -23 18 -16 30 10
17 25 11 25 -10z m40 6 c0 -8 -4 -17 -9 -21 -12 -7 -24 12 -16 25 9 15 25 12
25 -4z m1045 -46 c-15 -17 -15 -20 1 -44 19 -31 9 -50 -12 -22 -13 18 -15 18
-31 3 -17 -15 -18 -13 -18 34 0 52 3 57 24 37 10 -11 14 -9 22 5 6 9 15 15 20
11 6 -4 4 -13 -6 -24z m-277 8 c8 -8 15 -8 27 2 14 11 15 9 14 -16 0 -16 3
-40 7 -54 7 -24 7 -24 -17 -8 -23 15 -26 15 -36 0 -6 -10 -14 -14 -18 -10 -3
3 -1 15 6 26 10 16 10 26 1 46 -12 27 -4 34 16 14z m170 -32 c2 -21 -1 -43 -7
-49 -8 -8 -11 -1 -11 24 0 18 -4 40 -9 48 -15 23 -31 2 -31 -40 0 -21 -4 -39
-10 -39 -5 0 -10 23 -10 51 l0 50 38 -3 c35 -3 37 -5 40 -42z m180 32 c8 -8
15 -8 27 2 13 11 15 8 15 -16 0 -16 3 -40 7 -54 6 -25 6 -25 -16 -6 -21 19
-22 19 -35 0 -8 -10 -18 -16 -22 -12 -4 5 1 17 10 27 17 18 17 21 1 45 -17 26
-9 36 13 14z m-440 -75 c-4 -22 -22 -20 -26 1 -2 10 3 16 13 16 10 0 15 -7 13
-17z m592 2 c0 -8 -9 -15 -20 -15 -11 0 -20 7 -20 15 0 8 9 15 20 15 11 0 20
-7 20 -15z m-1650 -5 c0 -5 -4 -10 -10 -10 -5 0 -10 5 -10 10 0 6 5 10 10 10
6 0 10 -4 10 -10z m4 -97 c13 17 36 23 36 9 0 -4 -7 -18 -16 -31 -14 -20 -15
-27 -3 -49 7 -15 15 -30 17 -34 6 -15 -7 -8 -27 13 l-19 20 -16 -22 c-19 -27
-36 -17 -18 11 16 27 15 65 -3 80 -8 7 -12 17 -8 22 3 6 14 1 25 -13 17 -23
19 -23 32 -6z m942 17 c22 -9 26 -15 21 -39 -3 -15 -2 -32 3 -37 15 -15 -1
-54 -25 -60 -36 -9 -68 13 -60 39 4 12 7 35 6 51 0 16 4 36 10 43 14 16 11 15
45 3z m122 2 c7 -5 12 -22 12 -38 -1 -16 2 -41 6 -56 5 -24 2 -29 -22 -39 -44
-16 -59 -1 -61 62 -2 66 25 96 65 71z m126 -8 c19 -19 20 -26 4 -42 -9 -9 -9
-15 0 -24 18 -18 14 -46 -7 -58 -27 -14 -34 -13 -60 11 -17 16 -20 24 -10 35
6 8 8 25 5 40 -12 47 34 73 68 38z m102 6 c22 -9 26 -15 21 -39 -3 -15 -2 -32
3 -37 15 -15 -1 -54 -25 -60 -36 -9 -68 13 -60 39 4 12 7 35 6 51 0 16 4 36
10 43 14 16 11 15 45 3z m120 2 c6 -4 14 -33 18 -65 6 -56 6 -58 -21 -68 -43
-16 -58 -1 -59 65 -2 43 2 58 15 66 19 11 32 12 47 2z m125 -1 c14 -2 19 -34
8 -48 -9 -10 -9 -17 -1 -25 18 -18 14 -46 -7 -58 -27 -14 -34 -13 -59 11 -20
18 -21 22 -8 41 11 16 12 25 3 38 -8 14 -8 22 1 33 10 12 22 13 63 8z m124
-37 c0 -16 3 -34 7 -40 12 -19 -4 -54 -27 -60 -36 -9 -68 13 -60 39 4 12 7 36
6 54 -1 37 22 55 53 43 15 -5 21 -16 21 -36z m111 7 c-20 -22 -21 -41 -2 -41
21 0 29 -17 22 -46 -7 -27 -31 -32 -40 -9 -7 18 -32 20 -39 3 -4 -9 -6 -8 -6
3 -1 8 6 24 14 35 20 26 19 34 -5 34 -25 0 -38 29 -19 41 21 13 39 11 39 -6 0
-22 18 -18 31 7 8 15 14 18 17 10 2 -7 -3 -21 -12 -31z m-1563 12 c18 -17 19
-17 33 1 7 11 17 17 21 13 3 -4 -2 -15 -11 -26 -17 -18 -16 -21 4 -60 17 -34
18 -41 6 -41 -9 0 -20 9 -26 20 -12 23 -30 27 -30 6 0 -16 -18 -31 -27 -22 -3
3 2 17 12 32 15 23 15 30 4 53 -7 14 -15 29 -17 34 -6 13 11 7 31 -10z m579
-5 c4 -29 43 -32 43 -4 0 11 6 21 13 24 9 3 12 -14 12 -63 0 -49 -3 -66 -12
-62 -7 2 -13 15 -13 28 0 26 -32 40 -39 17 -16 -51 -17 -53 -26 -38 -8 16 -11
100 -3 113 9 14 22 7 25 -15z m1086 -26 c2 -7 -3 -12 -12 -12 -9 0 -16 7 -16
16 0 17 22 14 28 -4z m-1176 -84 c-15 -15 -26 -4 -18 18 5 13 9 15 18 6 9 -9
9 -15 0 -24z m1173 12 c0 -7 -6 -15 -12 -17 -8 -3 -13 4 -13 17 0 13 5 20 13
18 6 -3 12 -11 12 -18z m-1635 -90 c0 -10 -4 -21 -9 -25 -12 -7 -25 31 -16 45
9 15 25 2 25 -20z m83 0 c3 -13 14 -20 30 -20 23 0 27 -5 33 -45 7 -48 3 -62
-15 -51 -6 4 -8 19 -5 35 5 21 1 30 -12 35 -18 7 -37 -11 -27 -27 8 -13 -7
-58 -17 -52 -12 8 -13 145 -1 145 5 0 11 -9 14 -20z m1181 8 c5 -10 7 -10 12
0 10 21 24 13 24 -13 0 -25 -14 -33 -25 -15 -3 5 -12 7 -20 3 -10 -3 -15 2
-15 16 0 23 15 28 24 9z m-1525 -20 l13 -21 18 24 c25 32 36 18 15 -18 -15
-25 -15 -31 -1 -58 19 -36 10 -49 -12 -17 l-15 23 -23 -28 c-22 -27 -23 -27
-24 -6 0 12 5 25 10 28 16 10 12 65 -5 71 -18 7 -20 24 -2 24 7 0 18 -10 26
-22z m636 -13 c0 -16 3 -35 8 -42 4 -6 3 -23 -3 -37 -11 -29 -44 -35 -75 -12
-16 12 -17 18 -8 38 6 14 8 31 3 38 -16 25 8 51 43 48 28 -3 32 -7 32 -33z
m111 0 c0 -16 4 -38 8 -47 17 -38 -13 -65 -58 -54 -23 6 -24 10 -22 69 2 34 4
63 5 65 0 2 16 2 34 0 28 -3 32 -7 33 -33z m124 20 c10 -12 10 -18 0 -30 -10
-12 -10 -19 -2 -27 20 -20 13 -48 -13 -60 -19 -9 -29 -8 -50 6 -27 18 -31 31
-14 41 6 4 7 19 4 36 -4 16 -4 33 0 39 9 15 61 12 75 -5z m115 -20 c0 -16 3
-35 8 -42 4 -6 3 -23 -3 -37 -18 -48 -101 -24 -84 25 4 13 7 34 5 46 -4 34 7
44 42 41 28 -3 32 -7 32 -33z m111 0 c1 -16 5 -38 9 -49 16 -38 -37 -73 -70
-46 -11 9 -14 66 -6 123 0 5 16 7 34 5 28 -3 32 -7 33 -33z m124 20 c10 -12
10 -18 0 -30 -10 -12 -10 -19 -2 -27 20 -20 13 -48 -13 -60 -19 -9 -29 -8 -50
6 -27 18 -31 31 -14 41 6 4 7 19 4 36 -4 16 -4 33 0 39 9 15 61 12 75 -5z
m115 -20 c0 -16 3 -35 8 -42 4 -6 3 -23 -3 -37 -11 -30 -44 -35 -76 -12 -16
12 -17 18 -7 34 6 11 9 29 6 41 -9 36 4 53 39 49 29 -3 33 -6 33 -33z m114
-15 c13 0 15 -17 1 -25 -5 -3 -7 -11 -4 -18 3 -9 -6 -13 -29 -13 -28 0 -33 3
-29 18 2 10 -1 18 -7 18 -6 0 -11 5 -11 10 0 6 9 10 20 10 12 0 20 7 20 18 1
16 1 16 14 0 7 -10 18 -18 25 -18z m568 3 l35 -27 -34 -28 c-18 -15 -39 -28
-45 -28 -22 0 -14 20 12 32 30 14 32 34 5 43 -11 3 -20 13 -20 21 0 20 6 18
47 -13z m-1493 -14 c10 -30 0 -87 -14 -73 -5 5 -10 25 -12 44 -4 45 -32 49
-36 5 -5 -54 -16 -62 -22 -15 -8 64 -3 72 39 68 28 -2 38 -8 45 -29z m-150
-134 c6 -17 4 -18 -18 -9 -20 8 -21 24 -2 24 8 0 16 -7 20 -15z m934 -4 c3 -8
-1 -12 -9 -9 -7 2 -15 10 -17 17 -3 8 1 12 9 9 7 -2 15 -10 17 -17z m-1318
-15 c0 -24 28 -26 43 -3 8 12 18 19 22 15 4 -4 0 -19 -9 -33 -16 -25 -16 -29
-2 -60 23 -47 19 -55 -9 -21 l-24 30 -12 -27 c-7 -15 -16 -27 -21 -27 -11 0
-10 38 2 45 16 10 12 62 -5 69 -8 3 -15 10 -15 16 0 5 7 10 15 10 8 0 15 -6
15 -14z m642 2 c0 -7 2 -24 3 -38 1 -14 3 -29 5 -35 7 -26 -2 -46 -25 -55 -45
-17 -85 26 -54 57 8 8 8 17 1 30 -8 13 -7 22 5 35 18 21 62 24 65 6z m114 -23
c1 -16 5 -38 9 -47 10 -25 -1 -47 -27 -57 -41 -15 -57 3 -55 62 3 65 12 79 45
75 22 -2 27 -8 28 -33z m122 18 c7 -11 6 -23 -2 -36 -8 -15 -8 -21 2 -24 21
-8 13 -40 -14 -58 -26 -17 -27 -16 -52 8 -21 21 -23 29 -13 40 7 9 9 26 5 40
-3 14 -3 31 1 36 10 17 63 13 73 -6z m118 -23 c1 -19 2 -39 4 -45 11 -43 -26
-71 -67 -52 -24 10 -31 41 -13 52 6 3 7 17 4 31 -8 32 12 56 45 52 22 -3 26
-8 27 -38z m114 26 c8 -10 8 -20 2 -32 -7 -13 -6 -24 4 -39 13 -19 12 -24 -5
-39 -11 -10 -31 -16 -48 -14 -27 3 -28 5 -29 58 0 30 4 61 9 68 13 16 52 15
67 -2z m79 -3 c8 -15 12 -16 22 -5 24 23 30 12 10 -17 -26 -36 -26 -39 2 -43
27 -4 36 -42 12 -52 -21 -8 -35 0 -35 20 0 20 -9 18 -31 -8 -22 -27 -26 -12
-5 18 18 25 25 69 11 69 -5 0 -9 -6 -7 -12 2 -7 -2 -13 -7 -13 -14 0 -29 32
-24 48 7 18 40 15 52 -5z m835 9 c8 -13 -5 -82 -15 -82 -5 0 -9 20 -9 45 0 41
11 58 24 37z m-1869 -21 c7 -12 -12 -24 -25 -16 -11 7 -4 25 10 25 5 0 11 -4
15 -9z m345 -10 c0 -5 9 -11 20 -14 16 -4 18 -8 8 -29 -15 -31 -64 -35 -71 -6
-7 26 -6 33 4 30 5 -1 12 5 15 13 7 16 24 21 24 6z m-346 -59 c2 -4 0 -14 -5
-22 -8 -13 -10 -13 -18 0 -10 15 -6 30 9 30 5 0 11 -4 14 -8z m1866 -32 c0 -5
-4 -10 -10 -10 -5 0 -10 5 -10 10 0 6 5 10 10 10 6 0 10 -4 10 -10z m-1289
-66 c12 -14 11 -16 -5 -13 -11 2 -21 10 -24 17 -5 17 13 15 29 -4z m-696 -14
c7 -23 -2 -43 -16 -35 -12 8 -12 55 0 55 5 0 12 -9 16 -20z m820 9 c11 -17 0
-20 -21 -4 -17 13 -17 14 -2 15 9 0 20 -5 23 -11z m-686 -8 c9 -6 11 -18 6
-39 -3 -18 -2 -33 4 -37 18 -11 12 -34 -13 -50 -23 -15 -27 -15 -50 0 -26 17
-35 45 -16 45 13 0 13 33 -1 47 -7 7 -5 15 6 27 18 18 42 20 64 7z m71 -10 c0
-14 8 -21 28 -23 25 -3 27 -7 30 -52 2 -36 0 -47 -10 -44 -7 3 -14 21 -16 41
-5 53 -32 50 -32 -3 0 -22 -4 -40 -10 -40 -11 0 -11 1 -11 70 0 69 0 70 11 70
6 0 10 -9 10 -19z m1686 5 c17 -13 17 -17 5 -37 -10 -17 -10 -24 -2 -27 18 -6
13 -50 -8 -62 -27 -14 -34 -13 -60 11 -17 16 -20 24 -10 35 6 8 8 25 5 40 -12
47 29 70 70 40z m91 -29 c4 -8 16 -16 26 -20 9 -3 17 -10 17 -15 0 -13 -76
-62 -84 -55 -8 9 14 33 30 33 22 0 16 37 -6 43 -11 3 -20 10 -20 16 0 15 27
14 37 -2z m-249 -9 c10 -10 15 -10 21 1 5 7 14 12 21 9 9 -3 8 -9 -5 -21 -16
-16 -16 -19 0 -43 19 -30 10 -48 -11 -20 -13 18 -15 18 -31 3 -17 -15 -18 -13
-19 34 0 51 4 57 24 37z m-1363 -76 c0 -18 -20 -15 -23 4 -3 10 1 15 10 12 7
-3 13 -10 13 -16z m75 4 c0 -8 -4 -17 -9 -21 -12 -7 -24 12 -16 25 9 15 25 12
25 -4z m1098 -4 c2 -7 -3 -12 -12 -12 -9 0 -16 7 -16 16 0 17 22 14 28 -4z
m75 3 c1 -5 -6 -11 -15 -13 -11 -2 -18 3 -18 13 0 17 30 18 33 0z m-1498 -76
c4 -6 5 -12 2 -15 -7 -7 -37 7 -37 17 0 13 27 11 35 -2z m1780 1 c3 -5 -1 -10
-9 -10 -21 0 -30 -18 -16 -35 7 -9 8 -15 0 -20 -5 -3 -10 -22 -10 -41 0 -19
-4 -34 -10 -34 -5 0 -10 15 -10 34 0 19 -4 37 -9 40 -13 9 10 64 29 70 26 7
29 6 35 -4z m-1650 -14 c12 -9 16 -20 12 -36 -3 -13 -2 -30 2 -39 24 -45 -30
-79 -74 -47 -16 11 -17 18 -8 38 7 15 8 30 2 41 -7 12 -4 22 11 37 24 24 30
24 55 6z m107 3 c16 -8 19 -17 14 -40 -3 -15 -1 -31 4 -34 15 -9 12 -41 -5
-55 -8 -7 -26 -9 -44 -5 -28 6 -29 8 -28 66 0 44 5 62 16 69 20 12 19 12 43
-1z m120 0 c16 -8 19 -17 14 -40 -3 -15 -1 -31 4 -34 19 -12 10 -45 -15 -57
-19 -9 -29 -8 -50 6 -27 18 -31 31 -15 41 6 4 8 21 4 40 -4 26 -2 35 13 44 23
13 20 13 45 0z m123 -3 c13 -9 16 -20 12 -36 -3 -13 -2 -29 4 -36 6 -7 6 -21
-1 -38 -11 -29 -44 -35 -75 -12 -16 11 -17 18 -8 38 7 15 8 30 2 41 -7 12 -4
22 11 37 24 24 30 24 55 6z m107 3 c16 -8 19 -17 14 -40 -3 -15 -1 -31 4 -34
15 -9 12 -41 -6 -55 -11 -10 -23 -11 -42 -4 -25 9 -27 14 -28 67 -2 44 2 59
15 67 20 12 19 12 43 -1z m129 -8 c20 -16 22 -21 10 -35 -11 -13 -11 -20 -3
-28 20 -20 13 -48 -13 -60 -19 -9 -29 -8 -50 6 -27 18 -31 31 -15 41 6 4 8 21
4 40 -4 26 -2 35 13 44 25 14 27 14 54 -8z m114 5 c13 -9 16 -20 12 -36 -3
-13 -2 -29 4 -36 6 -7 6 -21 -1 -38 -11 -29 -44 -35 -75 -12 -16 12 -17 18 -8
39 7 14 9 35 6 47 -6 21 16 50 37 50 3 0 14 -6 25 -14z m122 -34 c-3 -14 0
-34 6 -44 15 -23 -1 -52 -32 -56 -36 -6 -48 13 -48 74 0 47 3 57 21 64 32 12
59 -7 53 -38z m113 38 c14 0 21 -32 9 -47 -9 -10 -9 -17 -1 -25 20 -20 13 -48
-13 -60 -19 -9 -29 -8 -50 6 -27 18 -31 31 -15 41 6 4 8 21 4 40 -4 26 -2 35
13 44 10 6 24 8 31 6 8 -3 17 -5 22 -5z m115 -4 c13 -9 16 -20 12 -36 -3 -13
-2 -29 4 -36 6 -7 6 -21 -1 -38 -11 -29 -44 -35 -75 -12 -16 12 -17 18 -8 39
7 14 9 35 6 47 -6 21 16 50 37 50 3 0 14 -6 25 -14z m128 -54 c7 -62 -3 -82
-38 -82 -33 0 -43 19 -40 75 3 66 2 63 23 67 39 9 49 -2 55 -60z m107 58 c14
0 21 -32 9 -47 -9 -10 -9 -17 -1 -25 30 -30 -6 -76 -48 -63 -25 8 -44 41 -30
50 6 4 8 21 4 40 -4 26 -2 35 13 44 10 6 24 8 31 6 8 -3 17 -5 22 -5z m115 -4
c13 -9 16 -20 12 -36 -3 -13 -2 -29 4 -36 6 -7 6 -21 -1 -38 -11 -29 -44 -35
-75 -12 -16 12 -17 18 -8 39 7 14 9 35 6 47 -6 21 16 50 37 50 3 0 14 -6 25
-14z m126 -10 c1 -6 0 -21 -1 -34 -1 -13 4 -30 11 -38 9 -11 8 -18 -7 -35 -36
-40 -104 -4 -76 42 10 15 10 24 2 34 -13 16 -3 43 18 47 25 6 52 -3 53 -16z
m-1541 -201 c0 -28 -15 -34 -24 -9 -10 25 -7 34 9 34 9 0 15 -9 15 -25z m1517
13 c6 16 23 6 23 -15 0 -9 -6 -13 -15 -10 -8 4 -17 2 -20 -3 -10 -16 -25 -11
-25 8 0 25 12 35 23 20 7 -10 10 -10 14 0z m-1417 -13 c0 -19 9 -19 32 2 22
19 23 6 3 -21 -19 -25 -19 -46 -1 -46 8 0 16 -6 19 -12 3 -10 10 -8 23 5 15
14 16 21 7 36 -18 28 5 54 42 49 28 -3 30 -6 28 -40 -1 -21 2 -38 7 -38 19 0
10 -38 -13 -53 -22 -14 -26 -13 -55 5 -28 18 -33 18 -38 4 -3 -9 -12 -16 -20
-16 -17 0 -18 12 -2 28 8 8 9 12 1 12 -6 0 -13 -4 -15 -8 -1 -5 -15 -12 -31
-16 -26 -6 -27 -5 -15 16 7 13 17 26 22 29 13 10 -3 29 -19 23 -7 -3 -18 3
-24 15 -9 16 -8 22 6 30 26 15 43 13 43 -4z m275 -25 c1 -19 3 -40 7 -45 12
-20 -11 -55 -36 -55 -51 0 -74 28 -45 57 8 8 8 17 1 29 -17 30 3 56 41 52 29
-3 32 -6 32 -38z m111 5 c0 -16 4 -38 9 -49 13 -29 -7 -51 -46 -51 l-34 0 -1
55 c-1 64 10 82 45 78 21 -2 26 -8 27 -33z m123 17 c7 -13 6 -23 -1 -30 -9 -9
-9 -15 0 -24 19 -19 14 -44 -11 -61 -22 -14 -26 -14 -53 8 -24 19 -26 25 -16
38 8 9 10 26 6 40 -3 14 -3 31 1 36 11 18 63 13 74 -7z m116 -17 c0 -16 3 -35
8 -42 11 -18 -9 -60 -32 -66 -13 -3 -30 2 -44 13 -18 16 -20 22 -10 38 6 11 9
29 6 41 -7 29 15 53 46 49 22 -2 26 -8 26 -33z m111 0 c1 -16 5 -38 9 -47 16
-38 -15 -65 -60 -54 -18 5 -25 13 -25 31 0 13 4 27 10 30 6 4 5 13 -2 25 -16
25 6 52 41 48 21 -2 26 -9 27 -33z m124 20 c10 -12 10 -18 0 -30 -10 -12 -10
-19 -2 -27 19 -19 14 -44 -11 -61 -22 -14 -26 -14 -53 8 -24 19 -26 25 -16 38
8 9 10 26 6 40 -3 14 -3 31 1 36 9 16 61 13 75 -4z m116 -20 c0 -16 4 -38 8
-47 10 -22 -8 -54 -34 -61 -12 -3 -30 3 -43 13 -18 16 -20 22 -10 38 6 11 9
29 6 41 -7 29 15 53 46 49 21 -2 26 -8 27 -33z m110 0 c1 -16 5 -38 9 -47 16
-38 -15 -65 -60 -54 -18 5 -25 13 -25 31 0 13 4 27 10 30 6 4 5 13 -2 25 -16
25 6 52 41 48 21 -2 26 -9 27 -33z m124 20 c10 -12 10 -18 0 -30 -10 -12 -10
-19 -2 -27 19 -19 14 -44 -11 -61 -21 -13 -25 -13 -50 5 -22 16 -25 23 -17 39
6 10 8 30 4 43 -3 14 -3 30 1 35 9 16 61 13 75 -4z m119 -42 c2 -2 -2 -9 -8
-17 -7 -8 -9 -21 -5 -27 5 -9 2 -10 -11 -6 -9 4 -24 2 -33 -5 -13 -11 -14 -10
-8 9 5 15 2 25 -11 32 -17 10 -16 11 5 17 12 3 22 10 22 15 0 8 11 3 49 -18z
m-1073 -130 c7 -10 13 -25 14 -33 0 -13 -1 -13 -10 0 -8 12 -13 13 -30 3 -25
-16 -30 -16 -30 -1 0 11 29 48 38 48 3 0 11 -8 18 -17z m934 -25 c0 -5 -9 -4
-20 2 -11 6 -18 15 -14 21 6 11 34 -7 34 -23z m-840 -8 c0 -11 -4 -20 -9 -20
-14 0 -23 18 -16 30 10 17 25 11 25 -10z m40 6 c0 -8 -4 -17 -9 -21 -12 -7
-24 12 -16 25 9 15 25 12 25 -4z m578 -3 c2 -9 -7 -13 -27 -13 -30 0 -39 9
-24 24 11 10 46 3 51 -11z m82 5 c0 -9 3 -9 12 0 17 17 30 15 26 -4 -2 -10
-15 -18 -30 -20 -22 -2 -28 2 -28 17 0 10 5 19 10 19 6 0 10 -5 10 -12z m-570
-22 c0 -7 10 -17 23 -20 21 -6 21 -7 3 -20 -10 -9 -15 -20 -10 -27 5 -9 2 -10
-11 -6 -9 4 -24 2 -32 -5 -13 -10 -15 -9 -11 7 2 11 -3 25 -12 32 -13 11 -12
12 8 13 15 0 22 6 22 20 0 11 5 20 10 20 6 0 10 -6 10 -14z m240 -12 c0 -8 7
-14 15 -14 8 0 15 -4 15 -10 0 -5 -4 -10 -9 -10 -5 0 -7 -9 -4 -20 6 -21 -11
-28 -22 -10 -5 8 -11 7 -21 -1 -13 -11 -18 -6 -15 15 1 4 -3 14 -9 21 -8 9 -5
14 10 18 11 3 20 9 19 14 -3 17 1 24 11 18 6 -3 10 -13 10 -21z m110 12 c0 -7
10 -17 23 -20 21 -6 21 -7 3 -20 -10 -8 -15 -20 -11 -26 5 -9 1 -10 -14 -5
-12 4 -21 2 -21 -4 0 -6 -5 -11 -11 -11 -6 0 -9 9 -6 20 3 11 1 20 -4 20 -5 0
-9 5 -9 10 0 6 7 10 15 10 8 0 15 9 15 20 0 11 5 20 10 20 6 0 10 -6 10 -14z
m-219 -15 c14 -13 17 -21 9 -26 -6 -4 -8 -14 -6 -23 5 -14 -1 -17 -29 -18 -28
0 -32 2 -23 13 8 10 7 17 -8 28 -18 13 -18 14 -1 15 10 0 20 7 23 15 8 19 11
19 35 -4z"/>
<path d="M914 2269 c-10 -17 13 -36 27 -22 12 12 4 33 -11 33 -5 0 -12 -5 -16
-11z"/>
<path d="M910 2195 c0 -28 24 -34 34 -9 8 20 -1 34 -20 34 -8 0 -14 -10 -14
-25z"/>
<path d="M1030 2266 c0 -21 21 -31 30 -15 5 7 6 17 4 21 -9 14 -34 9 -34 -6z"/>
<path d="M1027 2214 c-14 -15 -6 -34 14 -34 14 0 19 5 17 17 -3 18 -20 27 -31
17z"/>
<path d="M1144 2269 c-10 -17 13 -36 27 -22 12 12 4 33 -11 33 -5 0 -12 -5
-16 -11z"/>
<path d="M1142 2198 c2 -12 11 -24 21 -26 14 -3 18 1 15 20 -2 12 -11 24 -21
26 -14 3 -18 -1 -15 -20z"/>
<path d="M1264 2269 c-10 -17 13 -36 27 -22 12 12 4 33 -11 33 -5 0 -12 -5
-16 -11z"/>
<path d="M1260 2201 c0 -25 19 -38 31 -20 12 19 6 33 -14 37 -11 2 -17 -3 -17
-17z"/>
<path d="M1380 2266 c0 -21 21 -31 30 -15 5 7 6 17 4 21 -9 14 -34 9 -34 -6z"/>
<path d="M1376 2205 c-3 -9 1 -18 10 -22 19 -7 28 2 21 22 -8 19 -23 19 -31 0z"/>
<path d="M1494 2269 c-10 -17 13 -36 27 -22 12 12 4 33 -11 33 -5 0 -12 -5
-16 -11z"/>
<path d="M1496 2211 c-9 -14 4 -41 20 -41 8 0 14 10 14 25 0 25 -23 35 -34 16z"/>
<path d="M686 2073 c-12 -12 -6 -33 9 -33 8 0 15 6 15 14 0 17 -14 28 -24 19z"/>
<path d="M680 2004 c-9 -10 -10 -18 -2 -26 12 -12 32 -2 32 17 0 21 -16 26
-30 9z"/>
<path d="M912 2058 c5 -15 28 -18 29 -3 0 6 -7 12 -17 13 -10 3 -15 -1 -12
-10z"/>
<path d="M910 1995 c0 -26 24 -35 32 -12 7 18 -2 37 -18 37 -8 0 -14 -10 -14
-25z"/>
<path d="M1036 2073 c-12 -12 -6 -33 9 -33 8 0 15 6 15 14 0 17 -14 28 -24 19z"/>
<path d="M1030 2004 c-9 -10 -10 -18 -2 -26 12 -12 32 -2 32 17 0 21 -16 26
-30 9z"/>
<path d="M1263 2058 c2 -7 10 -13 17 -13 7 0 15 6 18 13 2 7 -5 12 -18 12 -13
0 -20 -5 -17 -12z"/>
<path d="M1260 1995 c0 -28 24 -34 34 -9 8 20 -1 34 -20 34 -8 0 -14 -10 -14
-25z"/>
<path d="M1386 2073 c-11 -12 -6 -33 8 -33 19 0 28 27 11 33 -7 3 -16 3 -19 0z"/>
<path d="M1380 2004 c-9 -10 -10 -18 -2 -26 12 -12 32 -2 32 17 0 21 -16 26
-30 9z"/>
<path d="M1613 2058 c2 -7 10 -13 17 -13 7 0 15 6 18 13 2 7 -5 12 -18 12 -13
0 -20 -5 -17 -12z"/>
<path d="M1610 1995 c0 -20 4 -26 18 -23 9 2 17 12 17 23 0 11 -8 21 -17 23
-14 3 -18 -3 -18 -23z"/>
<path d="M1736 2073 c-11 -12 -6 -33 8 -33 19 0 28 27 11 33 -7 3 -16 3 -19 0z"/>
<path d="M1724 1999 c-3 -6 -1 -16 4 -21 13 -13 45 8 36 23 -7 12 -31 11 -40
-2z"/>
<path d="M795 2059 c-4 -6 -4 -13 -1 -16 8 -8 36 5 36 17 0 13 -27 13 -35 -1z"/>
<path d="M794 2006 c-7 -19 3 -36 22 -36 10 0 14 8 12 22 -4 26 -26 36 -34 14z"/>
<path d="M1145 2059 c-4 -6 -4 -13 -1 -16 8 -8 36 5 36 17 0 13 -27 13 -35 -1z"/>
<path d="M1144 2006 c-7 -19 3 -36 22 -36 10 0 14 8 12 22 -4 26 -26 36 -34
14z"/>
<path d="M1495 2059 c-4 -6 -4 -13 -1 -16 8 -8 36 5 36 17 0 13 -27 13 -35 -1z"/>
<path d="M1494 2006 c-7 -19 3 -36 22 -36 10 0 14 8 12 22 -4 26 -26 36 -34
14z"/>
<path d="M1845 2059 c-4 -6 -4 -13 -1 -16 8 -8 36 5 36 17 0 13 -27 13 -35 -1z"/>
<path d="M1848 2008 c-7 -19 2 -38 17 -38 18 0 26 25 12 39 -14 14 -24 14 -29
-1z"/>
<path d="M445 1859 c-10 -15 1 -23 20 -15 9 3 13 10 10 16 -8 13 -22 13 -30
-1z"/>
<path d="M440 1791 c0 -19 23 -35 34 -24 14 15 5 43 -14 43 -13 0 -20 -7 -20
-19z"/>
<path d="M1612 1858 c3 -7 13 -15 22 -16 12 -3 17 1 14 10 -3 7 -13 15 -22 16
-12 3 -17 -1 -14 -10z"/>
<path d="M1610 1791 c0 -11 4 -22 9 -25 12 -8 34 21 26 34 -11 17 -35 11 -35
-9z"/>
<path d="M1730 1855 c0 -10 7 -15 18 -13 21 4 19 22 -2 26 -10 2 -16 -3 -16
-13z"/>
<path d="M1725 1800 c-8 -14 3 -30 21 -30 8 0 14 9 14 20 0 21 -24 28 -35 10z"/>
<path d="M1845 1800 c-8 -13 14 -42 26 -34 5 3 9 14 9 25 0 20 -24 26 -35 9z"/>
<path d="M1962 1858 c7 -19 38 -22 38 -4 0 10 -9 16 -21 16 -12 0 -19 -5 -17
-12z"/>
<path d="M1960 1791 c0 -11 4 -22 9 -25 12 -8 34 21 26 34 -11 17 -35 11 -35
-9z"/>
<path d="M1264 1459 c-10 -17 13 -36 27 -22 12 12 4 33 -11 33 -5 0 -12 -5
-16 -11z"/>
<path d="M1260 1385 c0 -28 24 -34 34 -9 8 20 -1 34 -20 34 -8 0 -14 -10 -14
-25z"/>
<path d="M1387 1463 c-4 -3 -7 -12 -7 -20 0 -17 26 -17 33 1 8 21 -11 35 -26
19z"/>
<path d="M1380 1394 c-9 -10 -10 -18 -2 -26 12 -12 32 -2 32 17 0 21 -16 26
-30 9z"/>
<path d="M1502 1458 c-7 -7 -12 -16 -12 -20 0 -12 28 -10 36 3 10 17 -10 31
-24 17z"/>
<path d="M1496 1401 c-9 -14 4 -41 21 -41 9 0 13 8 11 22 -3 23 -23 35 -32 19z"/>
<path d="M1614 1459 c-10 -17 13 -36 27 -22 12 12 4 33 -11 33 -5 0 -12 -5
-16 -11z"/>
<path d="M1610 1385 c0 -28 24 -34 34 -9 8 20 -1 34 -20 34 -8 0 -14 -10 -14
-25z"/>
<path d="M1734 1459 c-3 -6 -1 -16 5 -22 9 -9 14 -8 21 3 9 15 4 30 -10 30 -5
0 -12 -5 -16 -11z"/>
<path d="M1732 1397 c-7 -8 -7 -18 -2 -27 8 -13 11 -13 25 1 14 13 14 17 2 27
-11 10 -17 9 -25 -1z"/>
<path d="M1845 1449 c-4 -6 -4 -13 -1 -16 8 -8 36 5 36 17 0 13 -27 13 -35 -1z"/>
<path d="M1846 1401 c-9 -14 4 -41 21 -41 9 0 13 8 11 22 -3 23 -23 35 -32 19z"/>
<path d="M1964 1459 c-10 -17 13 -36 27 -22 12 12 4 33 -11 33 -5 0 -12 -5
-16 -11z"/>
<path d="M1962 1388 c2 -12 10 -23 18 -23 22 0 19 39 -3 43 -15 3 -18 -1 -15
-20z"/>
<path d="M2110 1380 c0 -5 5 -10 10 -10 6 0 10 5 10 10 0 6 -4 10 -10 10 -5 0
-10 -4 -10 -10z"/>
<path d="M912 1248 c5 -15 28 -18 29 -3 0 6 -7 12 -17 13 -10 3 -15 -1 -12
-10z"/>
<path d="M910 1185 c0 -15 6 -25 14 -25 22 0 30 19 16 35 -18 22 -30 18 -30
-10z"/>
<path d="M1030 1245 c0 -8 7 -15 15 -15 8 0 15 7 15 15 0 8 -7 15 -15 15 -8 0
-15 -7 -15 -15z"/>
<path d="M1024 1189 c-3 -6 -2 -15 4 -21 13 -13 32 -2 32 18 0 16 -26 19 -36
3z"/>
<path d="M1147 1254 c-13 -13 -7 -24 14 -24 11 0 19 5 17 12 -5 14 -22 21 -31
12z"/>
<path d="M1142 1183 c5 -26 38 -29 38 -4 0 15 -6 21 -21 21 -14 0 -19 -5 -17
-17z"/>
<path d="M1262 1248 c3 -7 13 -15 22 -16 12 -3 17 1 14 10 -3 7 -13 15 -22 16
-12 3 -17 -1 -14 -10z"/>
<path d="M1267 1204 c-4 -4 -7 -16 -7 -26 0 -20 25 -25 36 -7 8 13 -19 43 -29
33z"/>
<path d="M1380 1245 c0 -8 7 -15 15 -15 8 0 15 7 15 15 0 8 -7 15 -15 15 -8 0
-15 -7 -15 -15z"/>
<path d="M1374 1189 c-3 -6 -2 -15 4 -21 13 -13 32 -2 32 18 0 16 -26 19 -36
3z"/>
<path d="M1497 1253 c-13 -12 -7 -23 13 -23 11 0 20 7 20 15 0 15 -21 21 -33
8z"/>
<path d="M1495 1190 c-8 -14 3 -30 21 -30 8 0 14 9 14 20 0 21 -24 28 -35 10z"/>
<path d="M1612 1248 c7 -19 38 -22 38 -4 0 10 -9 16 -21 16 -12 0 -19 -5 -17
-12z"/>
<path d="M1617 1204 c-4 -4 -7 -16 -7 -26 0 -20 25 -25 36 -7 8 13 -19 43 -29
33z"/>
<path d="M910 1046 c0 -10 9 -16 21 -16 24 0 21 23 -4 28 -10 2 -17 -3 -17
-12z"/>
<path d="M910 981 c0 -11 4 -22 9 -25 12 -8 34 21 26 34 -11 17 -35 11 -35 -9z"/>
<path d="M1032 1044 c4 -21 22 -23 26 -1 2 10 -3 17 -13 17 -10 0 -15 -6 -13
-16z"/>
<path d="M1025 990 c-8 -14 3 -30 21 -30 8 0 14 9 14 20 0 21 -24 28 -35 10z"/>
<path d="M1147 1054 c-13 -13 -7 -24 14 -24 11 0 19 5 17 12 -5 14 -22 21 -31
12z"/>
<path d="M1140 988 c0 -22 17 -41 29 -34 19 12 13 46 -9 46 -11 0 -20 -6 -20
-12z"/>
<path d="M1267 1054 c-13 -13 -7 -24 14 -24 11 0 19 5 17 12 -5 14 -22 21 -31
12z"/>
<path d="M1260 981 c0 -11 4 -22 9 -25 12 -8 34 21 26 34 -11 17 -35 11 -35
-9z"/>
<path d="M1380 1046 c0 -8 4 -17 9 -20 11 -7 33 18 24 27 -12 12 -33 7 -33 -7z"/>
<path d="M1375 990 c-8 -14 3 -30 21 -30 8 0 14 9 14 20 0 21 -24 28 -35 10z"/>
<path d="M447 854 c-14 -14 -7 -35 11 -32 9 2 17 10 17 17 0 16 -18 25 -28 15z"/>
<path d="M442 778 c2 -12 10 -23 18 -23 22 0 19 39 -3 43 -15 3 -18 -1 -15
-20z"/>
<path d="M2204 846 c-8 -22 3 -33 18 -18 9 9 9 15 0 24 -9 9 -13 7 -18 -6z"/>
<path d="M2198 788 c-7 -19 2 -38 17 -38 15 0 24 19 18 38 -3 6 -11 12 -18 12
-7 0 -15 -6 -17 -12z"/>
<path d="M570 650 c-12 -7 -12 -12 -3 -21 15 -15 26 -7 21 15 -2 11 -7 13 -18
6z"/>
<path d="M560 575 c0 -15 6 -25 14 -25 19 0 27 25 13 39 -18 18 -27 13 -27
-14z"/>
<path d="M680 635 c0 -8 7 -15 15 -15 8 0 15 7 15 15 0 8 -7 15 -15 15 -8 0
-15 -7 -15 -15z"/>
<path d="M674 579 c-3 -6 -2 -15 4 -21 13 -13 32 -2 32 18 0 16 -26 19 -36 3z"/>
<path d="M795 639 c-10 -15 1 -23 20 -15 9 3 13 10 10 16 -8 13 -22 13 -30 -1z"/>
<path d="M794 585 c-3 -8 -3 -19 1 -25 11 -17 35 -11 35 9 0 23 -29 36 -36 16z"/>
<path d="M920 650 c-12 -7 -12 -12 -3 -21 15 -15 26 -7 21 15 -2 11 -7 13 -18
6z"/>
<path d="M910 575 c0 -15 6 -25 14 -25 19 0 27 25 13 39 -18 18 -27 13 -27
-14z"/>
<path d="M1030 635 c0 -8 7 -15 15 -15 8 0 15 7 15 15 0 8 -7 15 -15 15 -8 0
-15 -7 -15 -15z"/>
<path d="M1024 579 c-3 -6 -2 -15 4 -21 13 -13 32 -2 32 18 0 16 -26 19 -36 3z"/>
<path d="M1145 639 c-4 -6 -4 -13 -1 -16 8 -8 36 5 36 17 0 13 -27 13 -35 -1z"/>
<path d="M1144 585 c-3 -8 -3 -19 1 -25 11 -17 35 -11 35 9 0 23 -29 36 -36
16z"/>
<path d="M1270 650 c-12 -7 -12 -12 -3 -21 15 -15 26 -7 21 15 -2 11 -7 13
-18 6z"/>
<path d="M1260 575 c0 -15 6 -25 14 -25 22 0 30 19 16 35 -18 22 -30 18 -30
-10z"/>
<path d="M1380 635 c0 -8 7 -15 15 -15 8 0 15 7 15 15 0 8 -7 15 -15 15 -8 0
-15 -7 -15 -15z"/>
<path d="M1376 581 c-7 -11 18 -33 27 -24 4 3 7 12 7 20 0 15 -26 18 -34 4z"/>
<path d="M1500 635 c0 -8 7 -15 15 -15 8 0 15 7 15 15 0 8 -7 15 -15 15 -8 0
-15 -7 -15 -15z"/>
<path d="M1494 586 c-7 -19 3 -36 22 -36 10 0 14 8 12 22 -4 26 -26 36 -34 14z"/>
<path d="M1621 650 c-16 -9 -6 -30 15 -30 15 0 20 25 6 34 -4 2 -14 1 -21 -4z"/>
<path d="M1610 575 c0 -16 6 -25 15 -25 21 0 31 30 14 41 -23 14 -29 11 -29
-16z"/>
<path d="M1730 634 c0 -9 7 -14 17 -12 25 5 28 28 4 28 -12 0 -21 -6 -21 -16z"/>
<path d="M1726 581 c-3 -5 0 -14 8 -20 10 -8 16 -8 25 2 6 8 8 17 4 20 -9 10
-31 9 -37 -2z"/>
<path d="M1850 635 c0 -8 7 -15 15 -15 8 0 15 7 15 15 0 8 -7 15 -15 15 -8 0
-15 -7 -15 -15z"/>
<path d="M1850 585 c-14 -16 -5 -35 16 -35 15 0 20 35 5 44 -5 3 -14 -1 -21
-9z"/>
<path d="M1971 650 c-16 -9 -6 -30 15 -30 15 0 20 25 6 34 -4 2 -14 1 -21 -4z"/>
<path d="M1960 575 c0 -16 6 -25 15 -25 21 0 31 30 14 41 -23 14 -29 11 -29
-16z"/>
<path d="M2080 634 c0 -9 7 -14 17 -12 25 5 28 28 4 28 -12 0 -21 -6 -21 -16z"/>
<path d="M2076 581 c-9 -15 23 -36 36 -23 5 5 7 15 4 21 -9 13 -33 14 -40 2z"/>
<path d="M797 444 c-13 -13 -7 -24 14 -24 11 0 19 5 17 12 -5 14 -22 21 -31
12z"/>
<path d="M790 376 c0 -17 24 -38 33 -29 15 15 6 43 -13 43 -11 0 -20 -6 -20
-14z"/>
<path d="M910 435 c0 -8 7 -15 15 -15 8 0 15 7 15 15 0 8 -7 15 -15 15 -8 0
-15 -7 -15 -15z"/>
<path d="M910 371 c0 -11 4 -22 9 -25 12 -8 34 21 26 34 -11 17 -35 11 -35 -9z"/>
<path d="M1030 435 c0 -8 7 -15 15 -15 8 0 15 7 15 15 0 8 -7 15 -15 15 -8 0
-15 -7 -15 -15z"/>
<path d="M1025 380 c-8 -14 3 -30 21 -30 8 0 14 9 14 20 0 21 -24 28 -35 10z"/>
<path d="M1145 440 c-3 -6 1 -13 10 -16 19 -8 30 0 20 15 -8 14 -22 14 -30 1z"/>
<path d="M1140 376 c0 -17 24 -38 33 -29 15 15 6 43 -13 43 -11 0 -20 -6 -20
-14z"/>
<path d="M1260 435 c0 -10 7 -15 18 -13 21 4 19 22 -2 26 -10 2 -16 -3 -16
-13z"/>
<path d="M1260 371 c0 -11 4 -22 9 -25 12 -8 34 21 26 34 -11 17 -35 11 -35
-9z"/>
<path d="M1380 435 c0 -10 7 -15 18 -13 21 4 19 22 -2 26 -10 2 -16 -3 -16
-13z"/>
<path d="M1375 380 c-8 -14 3 -30 21 -30 8 0 14 9 14 20 0 21 -24 28 -35 10z"/>
<path d="M1500 436 c0 -9 7 -16 16 -16 9 0 14 5 12 12 -6 18 -28 21 -28 4z"/>
<path d="M1490 376 c0 -17 24 -38 33 -29 15 15 6 43 -13 43 -11 0 -20 -6 -20
-14z"/>
<path d="M1612 438 c3 -7 13 -15 22 -16 12 -3 17 1 14 10 -3 7 -13 15 -22 16
-12 3 -17 -1 -14 -10z"/>
<path d="M1610 371 c0 -11 4 -22 9 -25 12 -8 34 21 26 34 -11 17 -35 11 -35
-9z"/>
<path d="M1730 435 c0 -10 7 -15 18 -13 21 4 19 22 -2 26 -10 2 -16 -3 -16
-13z"/>
<path d="M1727 384 c-9 -10 4 -34 19 -34 8 0 14 9 14 20 0 19 -19 27 -33 14z"/>
<path d="M1850 436 c0 -9 7 -16 16 -16 9 0 14 5 12 12 -6 18 -28 21 -28 4z"/>
<path d="M1845 380 c-8 -13 14 -42 26 -34 5 3 9 14 9 25 0 20 -24 26 -35 9z"/>
</g>
</svg>
